<svg width="1424" height="1234" viewBox="0 0 1424 1234" fill="none" xmlns="http://www.w3.org/2000/svg">
    <path d="M170.68 540.83L372.24 448.44L584.11 501.16L1097 994.88L881 1125.96L172.03 773.31L170.68 540.83Z" stroke="#E0FF00" stroke-width="8" stroke-miterlimit="10"/>
    <path d="M171.06 543.97L172.03 930.97L632.65 1164.37L855.23 994.35L861.41 832.05L632.65 1006.71L172.03 773.31L171.06 543.97Z" fill="#E0FF00" stroke="#E0FF00" stroke-width="8" stroke-miterlimit="10"/>
    <path d="M288.01 570.5C158 438.96 259.38 395.47 296 390.96C361 382.96 453 361.96 433 284.96C405.17 177.82 553 160.96 646 204.96C739 248.96 886 276.96 984 196.96C1082 116.96 1067 51.96 1204 94.96C1341 137.96 1423.61 0.959961 1423.61 0.959961H49.6498C49.6498 0.959961 -53.0002 75.96 36.9998 133.96C142.37 201.87 239 192.96 273 273.96C305.07 350.36 133.86 328.39 129 413.96C124 501.96 292 588.96 292 588.96L348 612.96L288.01 570.5Z" fill="#9600FF"/>
    <path d="M442.68 523.39C494.42 544.09 587 611.96 524 708.96L548 726.96C548 726.96 618.71 665.77 696 688.96C773.29 712.15 1165.07 992.97 1165.07 992.97L806 1083.96C806 1083.96 632 998.96 555 959.96C480.36 922.16 455 824.96 508 762.96L481.32 745.98C481.32 745.98 404.03 789.26 315.93 745.98C315.93 745.98 302.02 767.62 278.83 756.8C255.64 745.98 264.92 721.25 269.56 716.61C269.56 716.61 238.65 701.15 238.65 657.87C238.65 614.59 257.2 589.86 291.2 555.85C325.2 521.84 380.85 498.66 442.68 523.39Z" fill="#9600FF"/>
    <path d="M376.835 639.64C394.948 629.183 403.813 610.628 396.636 598.198C389.459 585.767 368.958 584.168 350.845 594.626C332.733 605.083 323.868 623.637 331.045 636.068C338.222 648.498 358.723 650.098 376.835 639.64Z" fill="white"/>
    <path d="M366.17 633.38C378.121 633.38 387.81 625.075 387.81 614.83C387.81 604.585 378.121 596.28 366.17 596.28C354.218 596.28 344.53 604.585 344.53 614.83C344.53 625.075 354.218 633.38 366.17 633.38Z" fill="#9600FF"/>
    <path d="M407.49 565.02L414 552.96H479L473 564.96L407.49 565.02Z" fill="#E0FF00"/>
    <path d="M443.86 585.25L430 586.96L442 537.96L454.86 536.25L443.86 585.25Z" fill="#E0FF00"/>
    <path d="M577.34 787.25L756.64 665.14L983.86 705.33L1293 1059.3L1064.24 1233.96L603.61 1000.56L577.34 787.25Z" fill="#E0FF00"/>
    <path d="M691.69 709.37C707.05 716.84 714.9 714.6 717.99 711.51C721.08 708.42 718.5 700.62 711.29 696.02C711.29 696.02 718.56 698.8 735.28 698.2C752 697.6 764.36 688.33 765.91 680.6C767.46 672.87 747.36 649.69 710.26 658.96C673.17 668.23 677.75 702.59 691.69 709.37Z" fill="#9600FF"/>
    <path d="M586.82 793.21C574.93 782.41 567.75 751.06 606.07 740.97C636.5 732.96 661.03 745.32 665.33 750.58C679.74 768.2 641.31 760.19 641.31 760.19C641.31 760.19 676.09 774.39 649.32 795.43C626.89 813.04 593.2 799 586.82 793.21Z" fill="#9600FF"/>
    <path d="M353.82 283.58L380.42 296.4L358.14 274.14L368.62 258.64L351.92 262.51L343.71 243.95L342.18 263.04L314.74 249.82L336.27 271.32L324.22 289.13L346.91 283.88L352.74 297.06L353.82 283.58Z" fill="#E0FF00"/>
    <path d="M699.96 87.9501L698.54 49.6201L684.47 76.7001L656.7 52.6001L673.36 81.8801L654.46 87.3301L680.79 98.1901L682.25 137.74L695.85 111.58L727.76 139.27L705.12 99.4901L718.55 95.6201L699.96 87.9501Z" fill="#E0FF00"/>
    <path d="M316.91 174.92C318.63 178.85 323.74 180.43 328.3 178.43L342.29 172.3C344.35 171.4 346.02 169.89 347.03 168.04C347.07 167.97 347.11 167.89 347.15 167.81C348.19 165.74 348.3 163.51 347.43 161.54L339.22 142.81C339.55 142.29 339.87 141.76 340.16 141.22C344.83 132.58 345.53 121.6 341.11 111.51C333.77 94.7599 315.08 86.7099 299.45 93.5599C291.85 96.8899 286.11 103.19 283.28 111.31C280.46 119.37 280.87 128.27 284.41 136.36C289.11 147.09 298.47 154.22 308.7 156.18L316.91 174.92ZM316.67 164.94L340.25 154.61L342.09 158.82L318.51 169.15L316.67 164.94ZM332.39 145.39L326.31 131.51C324.75 127.95 321.32 126.14 318.49 127.38L311.4 130.49C309.96 131.12 308.93 132.47 308.56 134.2C308.23 135.73 308.44 137.45 309.14 139.04L315.22 152.92C304.06 153.29 292.95 146.41 287.88 134.84C284.72 127.63 284.36 119.72 286.86 112.56C287.36 111.11 287.98 109.73 288.68 108.43C291.45 103.32 295.7 99.3499 300.98 97.0399C314.7 91.0299 331.15 98.1999 337.65 113.04C342.7 124.6 340.22 137.43 332.39 145.39ZM324.54 150.84C322.78 151.61 320.98 152.16 319.17 152.5L312.6 137.51C312.22 136.65 312.1 135.73 312.26 134.98C312.31 134.73 312.48 134.13 312.92 133.95L320.01 130.84C320.74 130.52 322.13 131.41 322.84 133.02L329.41 148.01C327.91 149.11 326.29 150.07 324.54 150.84ZM336.63 146.36L338.72 151.13L315.14 161.46L313.04 156.68C317.41 156.87 321.84 156.14 326.05 154.3C330.26 152.46 333.81 149.71 336.63 146.36ZM320.37 173.4L320.02 172.61L343.6 162.28L343.95 163.07C344.35 163.98 344.28 165.06 343.75 166.11C343.18 167.28 342.1 168.24 340.76 168.83L326.77 174.96C324.13 176.12 321.26 175.42 320.37 173.4Z" fill="#E0FF00"/>
    <path d="M543.64 74.74L532.33 59.25C530.86 57.23 528.69 55.91 526.22 55.52C523.75 55.14 521.28 55.73 519.26 57.21C515.09 60.25 514.18 66.12 517.22 70.28L528.53 85.77C530.36 88.28 533.21 89.61 536.1 89.61C538.01 89.61 539.94 89.03 541.6 87.81C543.62 86.34 544.94 84.17 545.33 81.7C545.72 79.23 545.12 76.76 543.64 74.74ZM538.69 83.82C536.72 85.25 533.96 84.82 532.53 82.86L521.22 67.37C519.79 65.41 520.22 62.64 522.18 61.21C522.96 60.64 523.87 60.36 524.77 60.36C526.13 60.36 527.48 60.99 528.34 62.17L539.65 77.66C541.08 79.62 540.65 82.39 538.69 83.82Z" fill="#E0FF00"/>
    <path d="M526.18 87.78L508.17 81.2C503.32 79.43 497.94 81.93 496.17 86.78C495.31 89.13 495.42 91.67 496.47 93.94C497.52 96.21 499.4 97.93 501.75 98.78L519.76 105.36C520.81 105.74 521.89 105.93 522.98 105.93C524.32 105.93 525.66 105.64 526.92 105.05C529.19 104 530.91 102.12 531.76 99.78C533.53 94.93 531.02 89.55 526.18 87.78ZM527.11 98.08C526.71 99.19 525.9 100.07 524.83 100.57C523.76 101.07 522.56 101.12 521.46 100.71L503.45 94.13C502.34 93.73 501.46 92.92 500.96 91.85C500.46 90.78 500.41 89.58 500.82 88.48C501.47 86.69 503.17 85.58 504.97 85.58C505.47 85.58 505.98 85.67 506.48 85.85L524.49 92.43C526.76 93.26 527.94 95.8 527.11 98.08Z" fill="#E0FF00"/>
    <path d="M517.4 109.79L498.34 107.67C495.86 107.39 493.41 108.1 491.46 109.66C489.51 111.22 488.28 113.45 488.01 115.93C487.73 118.41 488.44 120.86 490 122.81C491.56 124.76 493.79 125.99 496.27 126.26L515.33 128.38C515.68 128.42 516.03 128.44 516.37 128.44C521.07 128.44 525.13 124.89 525.66 120.12C526.24 114.99 522.53 110.36 517.4 109.79ZM520.75 119.57C520.48 121.99 518.28 123.76 515.88 123.47L496.82 121.35C495.65 121.22 494.6 120.64 493.86 119.72C493.12 118.8 492.79 117.65 492.92 116.48C493.19 114.06 495.36 112.33 497.79 112.58L516.85 114.7C519.27 114.97 521.02 117.16 520.75 119.57Z" fill="#E0FF00"/>
    <path d="M1004.33 87.8301C1003.12 86.2501 1001.36 85.2301 999.39 84.9701C995.25 84.4201 991.2 83.0501 987.46 80.9601C997.51 75.4201 999.74 68.0201 1000.12 63.8101C1000.79 56.4901 996.84 49.0501 990.04 44.8701C982.87 40.4601 974.37 40.4701 967.29 44.8901C959.69 49.6401 956.5 57.7701 958.55 67.2001C958.64 67.6301 958.75 68.0601 958.87 68.5001C953.62 64.7101 951.29 58.3601 951.26 58.2901C950.64 56.4301 949.3 54.9001 947.51 54.0201C945.73 53.1401 943.7 53.0001 941.82 53.6401C939.94 54.2701 938.41 55.6101 937.52 57.3901C936.63 59.1701 936.5 61.2001 937.13 63.0901C937.32 63.6601 942.03 77.3901 954.98 83.4701C959.57 85.6301 964.56 86.5401 969.82 86.2301C977.38 93.6101 987.13 98.4101 997.42 99.7801C997.75 99.8201 998.08 99.8501 998.41 99.8501C1002.13 99.8501 1005.31 97.0701 1005.8 93.3701C1006.06 91.3701 1005.54 89.4101 1004.33 87.8301ZM1000.89 92.7001C1000.71 94.0501 999.45 95.0401 998.08 94.8601C988.5 93.5901 979.43 89.0001 972.53 81.9301L971.7 81.0801L970.52 81.1901C965.71 81.6601 961.19 80.9101 957.08 78.9701C946.03 73.7901 941.85 61.6201 941.81 61.5001C941.59 60.8601 941.64 60.1801 941.94 59.5801C942.24 58.9801 942.75 58.5301 943.39 58.3201C944.03 58.1101 944.71 58.1501 945.31 58.4501C945.91 58.7501 946.36 59.2601 946.58 59.9001C946.62 60.0201 950.24 70.2201 959.22 74.4301C960.33 74.9501 961.5 75.3701 962.71 75.6701L967.88 76.9701L965.53 72.1801C964.53 70.1501 963.81 68.1201 963.38 66.1501C961.78 58.7801 964.1 52.7201 969.91 49.0901C972.63 47.3901 975.64 46.5301 978.65 46.5301C981.66 46.5301 984.68 47.3801 987.45 49.0801C992.66 52.2901 995.7 57.8901 995.2 63.3601C994.87 66.9801 992.65 73.7301 981.46 78.3601L977.39 80.0401L980.94 82.6401C986.26 86.5301 992.41 89.0301 998.74 89.8801C999.41 89.9701 1000 90.3101 1000.4 90.8401C1000.81 91.3701 1000.98 92.0301 1000.89 92.7001Z" fill="#E0FF00"/>
    <path d="M990.19 62.9001C990.52 59.3201 988.41 55.5701 984.81 53.3601C983.72 52.6901 981.46 51.5601 978.6 51.5601C976.5 51.5601 974.47 52.1601 972.58 53.3401C969.83 55.0601 966.86 58.4901 968.3 65.0801C968.94 68.0601 970.42 71.2401 972.57 74.2501L973.58 75.6601L975.25 75.2001C976.37 74.8901 977.54 74.5001 978.73 74.0401C985.7 71.3401 989.78 67.3901 990.19 62.9001ZM975.6 69.9101C974.37 67.9201 973.52 65.9101 973.12 64.0401C972.23 59.9301 973.87 58.3601 975.19 57.5401C976.29 56.8501 977.43 56.5101 978.59 56.5101C980.23 56.5101 981.56 57.1801 982.21 57.5801C984.19 58.8001 985.42 60.7601 985.26 62.4601C985.04 64.9001 981.92 67.5101 976.93 69.4401C976.49 69.6001 976.04 69.7601 975.6 69.9101Z" fill="#E0FF00"/>
    <path d="M161.4 114.84C160.99 114.31 160.4 113.96 159.73 113.88C153.41 113.03 147.25 110.53 141.93 106.64L138.38 104.04L142.45 102.36C153.64 97.7298 155.86 90.9798 156.19 87.3598C156.69 81.8998 153.65 76.2898 148.44 73.0798C145.68 71.3798 142.66 70.5298 139.64 70.5298C136.63 70.5298 133.63 71.3798 130.91 73.0898C125.1 76.7198 122.78 82.7798 124.37 90.1498C124.8 92.1198 125.52 94.1398 126.52 96.1798L128.88 100.96L123.7 99.6698C122.5 99.3598 121.33 98.9498 120.22 98.4298C111.24 94.2098 107.62 84.0198 107.57 83.8898C107.36 83.2498 106.91 82.7398 106.31 82.4398C105.71 82.1398 105.03 82.0998 104.39 82.3098C103.76 82.5298 103.24 82.9798 102.95 83.5798C102.65 84.1798 102.6 84.8598 102.82 85.4998C102.86 85.6198 107.03 97.7898 118.08 102.97C122.2 104.91 126.72 105.66 131.53 105.19L132.71 105.08L133.53 105.93C140.43 112.99 149.5 117.58 159.08 118.86C160.45 119.04 161.71 118.05 161.89 116.7C161.98 116.03 161.81 115.37 161.4 114.84ZM134.56 99.6698L133.56 98.2598C131.41 95.2398 129.93 92.0698 129.29 89.0898C127.85 82.4898 130.83 79.0598 133.57 77.3398C135.47 76.1598 137.5 75.5598 139.6 75.5598C142.46 75.5598 144.72 76.6898 145.81 77.3598C149.4 79.5798 151.52 83.3198 151.19 86.8998C150.78 91.3898 146.7 95.3398 139.71 98.0398C138.52 98.4998 137.35 98.8898 136.23 99.1998L134.56 99.6698Z" fill="#E0FF00"/>
    <path d="M810.99 177.45C812.07 181.45 817.97 182.9 825.77 182.9C829.56 182.9 833.81 182.53 838.17 181.98C843.85 188.08 851.9 191.69 860.4 191.69C863.02 191.69 865.67 191.35 868.32 190.63C876.14 188.51 882.67 183.47 886.71 176.44C888.25 173.75 889.35 170.9 890.01 167.96C902.38 162.71 912.78 156.28 911.17 150.33C909.84 145.42 901.44 143.79 886.26 145.47C883.64 141.18 879.98 137.59 875.5 135.02C868.47 130.98 860.29 129.93 852.47 132.05C844.65 134.17 838.12 139.2 834.08 146.23C831.51 150.71 830.16 155.66 830.06 160.68C816.09 166.9 809.66 172.54 810.99 177.45ZM884.91 154.7C885.8 157.99 885.99 161.31 885.58 164.49C879.44 166.98 871.99 169.53 863.25 171.9C854.51 174.27 846.79 175.82 840.23 176.77C838.27 174.22 836.76 171.26 835.87 167.97C834.1 161.42 834.98 154.58 838.36 148.69C841.74 142.81 847.2 138.59 853.75 136.82C855.96 136.22 858.2 135.93 860.43 135.93C864.81 135.93 869.13 137.07 873.03 139.31C878.92 142.69 883.13 148.15 884.91 154.7ZM890.73 162.28C890.82 159.33 890.47 156.34 889.68 153.41C889.38 152.31 889.01 151.24 888.6 150.2C902.16 148.91 906.09 150.97 906.4 151.64C906.57 153.33 901.2 157.53 890.73 162.28ZM844.43 181.05C851.76 179.82 858.98 178.18 864.54 176.67C870.09 175.17 877.16 172.96 884.1 170.32C881.3 177.67 875.17 183.64 867.02 185.85C858.86 188.06 850.55 185.99 844.43 181.05ZM815.76 176.15C815.69 175.43 818.05 171.67 830.41 165.95C830.58 167.06 830.8 168.17 831.1 169.27C831.9 172.24 833.15 174.98 834.71 177.46C823.25 178.63 816.47 177.71 815.76 176.15Z" fill="#E0FF00"/>
    <path d="M754.37 914.84L907.2 783.94L866 751.96L843.45 818.93L769 791.96L799.24 856.8L722.44 877.57L754.37 914.84Z" fill="black"/>
    <path d="M948.99 822.58C940.79 822.07 933.63 821.83 926.53 821.08C922.94 820.7 921.61 822.1 920.61 825.26C918.15 833.02 915.24 840.64 912.73 848.39C911.87 851.05 910.57 852.06 907.69 852.48C899.47 853.65 891.3 855.28 883.16 856.97C881.65 857.28 879.3 858.59 879.17 859.65C878.25 867.68 877.78 875.76 877.14 884.29C885.53 882.8 893.27 881.43 901.75 879.92C898.89 888.33 896.36 895.78 893.5 904.2C900.87 904.6 907.41 904.44 913.75 905.45C919.29 906.34 921.35 904.13 922.75 899.31C924.9 891.96 927.61 884.79 930.02 877.52C930.74 875.34 931.69 874.38 934.37 874.01C943.24 872.79 952.03 870.94 960.81 869.17C961.81 868.97 963.28 867.77 963.36 866.91C964.15 858.87 964.68 850.81 965.33 842.2C956.81 843.65 949.06 844.98 940.89 846.37C943.65 838.33 946.15 830.97 948.99 822.58ZM959.26 849.04C958.88 852.68 958.13 855.68 958.35 858.61C958.72 863.52 955.87 864.74 951.95 865.35C944.66 866.48 937.35 867.52 930.13 869.03C928.52 869.37 926.61 871.23 925.99 872.84C922.63 881.55 919.64 890.4 916.45 899.4C911.63 898.91 906.71 898.4 901.59 897.88C904.32 889.95 907.15 881.74 910.25 872.74C901 874.32 892.56 875.76 883.08 877.38C883.59 872.78 883.82 868.64 884.65 864.63C884.89 863.46 886.77 862.05 888.1 861.78C896.28 860.1 904.56 858.88 912.71 857.1C914.26 856.76 916.03 854.85 916.65 853.25C919.98 844.71 922.98 836.05 926.16 827.26C930.93 827.68 935.86 828.12 941.01 828.58C938.33 836.47 935.63 844.4 932.5 853.64C942.04 852 950.33 850.57 959.26 849.04Z" fill="black"/>
    <path d="M848.41 895.44C836.88 897.16 827.14 902.5 818.46 910.47C808.54 918.21 801.51 928.2 798.52 940.75C796.35 949.85 797.38 958.75 804.24 965.46C811.37 972.44 820.62 974.11 830.23 971.83C853.14 966.38 869.27 952.76 877.82 930.72C881.52 921.19 881.31 911.53 874.42 903.39C867.67 895.4 858.35 893.96 848.41 895.44ZM873.14 926.29C869.39 940.28 860.84 951.02 848.23 958.61C840.16 963.47 831.84 967.07 822.34 966.65C804.17 965.85 800.93 954.13 804.83 939.58C807.61 929.21 813.6 920.57 819.44 916.25C831.86 905.94 842.4 900.62 855.35 900.95C872.02 901.37 876.72 912.96 873.14 926.29Z" fill="black"/>
    <path d="M824.31 916.98C814.31 923.09 814.58 940.06 821.38 948.17C829.42 957.74 844.54 958.32 853.12 951.22C862.61 943.37 863.86 927.8 855.71 919.18C846.59 909.53 834.51 908.26 824.31 916.98Z" fill="black"/>
</svg>
