<svg width="292" height="89" viewBox="0 0 292 89" fill="none" xmlns="http://www.w3.org/2000/svg">
    <path d="M180.421 24.1398H154.95C154.42 24.1398 153.99 23.7098 153.99 23.1798V20.2398C153.99 19.7098 154.42 19.2798 154.95 19.2798H180.421C180.951 19.2798 181.38 19.7098 181.38 20.2398V23.1798C181.38 23.7098 180.951 24.1398 180.421 24.1398Z" fill="white"/>
    <path d="M265.44 65.0596H229.521C228.991 65.0596 228.561 64.6296 228.561 64.0996V61.2896C228.561 60.7596 228.991 60.3296 229.521 60.3296H265.44C265.97 60.3296 266.401 60.7596 266.401 61.2896V64.0996C266.401 64.6296 265.97 65.0596 265.44 65.0596Z" fill="white"/>
    <path d="M179.37 34.4796H156C155.47 34.4796 155.041 34.0496 155.041 33.5196V30.5796C155.041 30.0496 155.47 29.6196 156 29.6196H179.36C179.89 29.6196 180.32 30.0496 180.32 30.5796V33.5196C180.33 34.0496 179.9 34.4796 179.37 34.4796Z" fill="white"/>
    <path d="M220.181 21.3695V25.0695C220.181 25.5995 219.75 26.0295 219.22 26.0295H209.551C209.021 26.0295 208.59 26.4595 208.59 26.9895V65.1195C208.59 65.6495 208.16 66.0795 207.63 66.0795H197.51C196.98 66.0795 196.551 65.6495 196.551 65.1195V26.9895C196.551 26.4595 196.12 26.0295 195.59 26.0295H185.891C185.361 26.0295 184.931 25.5995 184.931 25.0695V21.3695C184.931 20.8395 185.361 20.4095 185.891 20.4095H195.59C196.12 20.4095 196.551 19.9795 196.551 19.4495V2.91949C196.551 2.38949 196.98 1.95947 197.51 1.95947H207.63C208.16 1.95947 208.59 2.38949 208.59 2.91949V19.4495C208.59 19.9795 209.021 20.4095 209.551 20.4095H219.22C219.75 20.4095 220.181 20.8395 220.181 21.3695Z" fill="white"/>
    <path d="M153.401 40.8599V65.0499C153.401 65.5799 153.83 66.0099 154.36 66.0099H182.811C183.341 66.0099 183.771 65.5799 183.771 65.0499V40.8599C183.771 40.3299 183.341 39.8999 182.811 39.8999H154.36C153.83 39.8999 153.401 40.3299 153.401 40.8599ZM171.58 61.1499H165.59C165.06 61.1499 164.63 60.7199 164.63 60.1899V45.7199C164.63 45.1899 165.06 44.7599 165.59 44.7599H171.58C172.11 44.7599 172.541 45.1899 172.541 45.7199V60.1899C172.541 60.7199 172.11 61.1499 171.58 61.1499Z" fill="white"/>
    <path d="M278.171 8.78961V51.8396C278.171 52.3696 277.74 52.7996 277.21 52.7996H272.36C271.83 52.7996 271.401 52.3696 271.401 51.8396V8.78961C271.401 8.25961 271.83 7.82959 272.36 7.82959H277.21C277.74 7.82959 278.171 8.25961 278.171 8.78961Z" fill="white"/>
    <path d="M232.87 40.8599V55.9099C232.87 56.4399 233.3 56.8699 233.83 56.8699H262.47C263 56.8699 263.431 56.4399 263.431 55.9099V40.8599C263.431 40.3299 263 39.8999 262.47 39.8999H233.83C233.3 39.8999 232.87 40.3299 232.87 40.8599ZM243.281 53.2699H241.651C241.121 53.2699 240.69 52.8399 240.69 52.3099V51.2499C240.69 50.7199 241.121 50.2899 241.651 50.2899H243.281C243.811 50.2899 244.24 50.7199 244.24 51.2499V52.3099C244.24 52.8399 243.811 53.2699 243.281 53.2699ZM243.281 46.6999H241.651C241.121 46.6999 240.69 46.2699 240.69 45.7399V44.4399C240.69 43.9099 241.121 43.4799 241.651 43.4799H243.281C243.811 43.4799 244.24 43.9099 244.24 44.4399V45.7399C244.24 46.2699 243.811 46.6999 243.281 46.6999ZM254.641 53.2699H253.021C252.491 53.2699 252.061 52.8399 252.061 52.3099V51.2499C252.061 50.7199 252.491 50.2899 253.021 50.2899H254.641C255.171 50.2899 255.6 50.7199 255.6 51.2499V52.3099C255.6 52.8399 255.171 53.2699 254.641 53.2699ZM254.641 46.6999H253.021C252.491 46.6999 252.061 46.2699 252.061 45.7399V44.4399C252.061 43.9099 252.491 43.4799 253.021 43.4799H254.641C255.171 43.4799 255.6 43.9099 255.6 44.4399V45.7399C255.6 46.2699 255.171 46.6999 254.641 46.6999Z" fill="white"/>
    <path d="M263.431 22.2597V17.0497C263.431 16.5197 263.861 16.0897 264.391 16.0897H266.21C266.74 16.0897 267.171 15.6597 267.171 15.1297V12.3197C267.171 11.7897 266.74 11.3597 266.21 11.3597H264.391C263.861 11.3597 263.431 10.9297 263.431 10.3997V5.1897C263.431 4.6597 263 4.22971 262.47 4.22971H252.411C251.881 4.22971 251.45 3.79968 251.45 3.26968V1.9097C251.45 1.3797 251.02 0.949707 250.49 0.949707H243.85C243.32 0.949707 242.891 1.3797 242.891 1.9097V3.26968C242.891 3.79968 242.461 4.22971 241.931 4.22971H233.82C233.29 4.22971 232.86 4.6597 232.86 5.1897V6.86969C232.86 7.39969 233.29 7.82968 233.82 7.82968H241.931C242.461 7.82968 242.891 8.2597 242.891 8.7897V10.4097C242.891 10.9397 242.461 11.3697 241.931 11.3697H228.671C228.141 11.3697 227.71 11.7997 227.71 12.3297V15.1397C227.71 15.6697 228.141 16.0997 228.671 16.0997H241.931C242.461 16.0997 242.891 16.5297 242.891 17.0597V18.6797C242.891 19.2097 242.461 19.6397 241.931 19.6397H233.82C233.29 19.6397 232.86 20.0697 232.86 20.5997V22.2697C232.86 22.7997 233.29 23.2297 233.82 23.2297H241.931C242.461 23.2297 242.891 23.6597 242.891 24.1897V24.6797C242.891 25.2097 242.461 25.6397 241.931 25.6397H233.82C233.29 25.6397 232.86 26.0697 232.86 26.5997V29.3997C232.86 29.9297 233.29 30.3597 233.82 30.3597H241.931C242.461 30.3597 242.891 30.7897 242.891 31.3197V31.4197C242.891 31.9497 242.461 32.3797 241.931 32.3797H229.73C229.2 32.3797 228.771 32.8097 228.771 33.3397V36.1497C228.771 36.6797 229.2 37.1097 229.73 37.1097H264.59C265.12 37.1097 265.551 36.6797 265.551 36.1497V33.3397C265.551 32.8097 265.12 32.3797 264.59 32.3797H252.401C251.871 32.3797 251.44 31.9497 251.44 31.4197V31.3197C251.44 30.7897 251.871 30.3597 252.401 30.3597H262.911C263.441 30.3597 263.87 29.9297 263.87 29.3997V26.5997C263.87 26.0697 263.441 25.6397 262.911 25.6397H252.401C251.871 25.6397 251.44 25.2097 251.44 24.6797V24.1897C251.44 23.6597 251.871 23.2297 252.401 23.2297H262.46C263 23.2197 263.431 22.7897 263.431 22.2597ZM252.411 7.82968H253.921C254.451 7.82968 254.88 8.2597 254.88 8.7897V10.4097C254.88 10.9397 254.451 11.3697 253.921 11.3697H252.411C251.881 11.3697 251.45 10.9397 251.45 10.4097V8.7897C251.45 8.2597 251.881 7.82968 252.411 7.82968ZM252.411 16.0997H253.921C254.451 16.0997 254.88 16.5297 254.88 17.0597V18.6797C254.88 19.2097 254.451 19.6397 253.921 19.6397H252.411C251.881 19.6397 251.45 19.2097 251.45 18.6797V17.0597C251.45 16.5297 251.881 16.0997 252.411 16.0997Z" fill="white"/>
    <path d="M67.5704 11.8796V15.5796C67.5704 16.1096 67.1405 16.5396 66.6105 16.5396H24.0804C23.5504 16.5396 23.1205 16.9596 23.1205 17.4996V53.5196C23.1205 56.7696 25.6204 59.3996 28.7004 59.3996H64.1205C64.6405 59.3996 65.0804 59.8196 65.0804 60.3596V64.0596C65.0804 64.5896 64.6505 65.0196 64.1205 65.0196H21.9604C21.2204 65.0196 20.5104 64.9396 19.8204 64.8096C14.9004 63.8096 11.2104 59.4696 11.2104 54.2596V17.4996C11.2104 16.9696 10.7805 16.5396 10.2505 16.5396H0.960449V10.9196H33.0305C33.7705 10.9196 34.2205 10.1196 33.8705 9.48956L30.9205 4.23956C30.5605 3.59956 31.0205 2.80957 31.7605 2.80957H42.6605C43.0105 2.80957 43.3205 2.99958 43.4905 3.28958L47.5005 10.4196C47.6705 10.7196 47.9905 10.9096 48.3405 10.9096H66.6305C67.1405 10.9196 67.5704 11.3496 67.5704 11.8796Z" fill="white"/>
    <path d="M184.44 9.99982V13.6998C184.44 14.2298 184.01 14.6598 183.48 14.6598H152.36C151.83 14.6598 151.401 14.2298 151.401 13.6998V9.99982C151.401 9.46982 151.83 9.03983 152.36 9.03983H161.09C161.79 9.03983 162.26 8.30983 161.96 7.66983L160.301 4.18982C160.001 3.54982 160.461 2.81982 161.171 2.81982H172.141C172.511 2.81982 172.85 3.02981 173.01 3.36981L175.44 8.49982C175.6 8.82982 175.941 9.0498 176.311 9.0498H183.48C184.01 9.0398 184.44 9.46982 184.44 9.99982Z" fill="white"/>
    <path d="M290.051 0.959686C290.581 0.959686 291.01 1.38971 291.01 1.91971V54.2997C291.01 56.5297 290.331 58.6197 289.171 60.3297C287.471 62.8397 284.731 64.5997 281.561 64.9797C281.131 65.0397 280.7 65.0597 280.26 65.0597H270.11C269.58 65.0597 269.151 64.6297 269.151 64.0997V61.2897C269.151 60.7597 269.58 60.3297 270.11 60.3297H275.98C279.07 60.3297 281.561 57.6997 281.561 54.4497V1.9097C281.561 1.3797 281.991 0.949707 282.521 0.949707H290.051V0.959686Z" fill="white"/>
    <path d="M141.57 8.45947C141.93 8.04947 141.871 7.39948 141.431 7.05948L138.641 4.90948C138.251 4.60948 137.701 4.65947 137.361 5.01947C132.091 10.6195 126.181 15.2395 120.121 19.0395C119.971 19.1395 119.791 19.1895 119.601 19.1895H112.521C111.991 19.1895 111.561 18.7595 111.561 18.2295V12.3895C111.561 11.8595 111.991 11.4295 112.521 11.4295H128.421C128.941 11.4295 129.381 10.9995 129.381 10.4695V6.77948C129.381 6.24948 128.951 5.81949 128.421 5.81949H112.521C111.991 5.81949 111.561 5.38947 111.561 4.85947V2.91949C111.561 2.38949 111.131 1.95947 110.601 1.95947H100.481C99.9505 1.95947 99.5205 2.37949 99.5205 2.91949V4.85947C99.5205 5.38947 99.0906 5.81949 98.5606 5.81949H79.7806C79.2506 5.81949 78.8205 6.23948 78.8205 6.77948V10.4695C78.8205 10.9995 79.2506 11.4295 79.7806 11.4295H98.5606C99.0806 11.4295 99.5205 11.8495 99.5205 12.3895V18.2295C99.5205 18.7595 99.0906 19.1895 98.5606 19.1895H77.3705C76.8405 19.1895 76.4106 19.6095 76.4106 20.1495V23.8495C76.4106 24.3795 76.8405 24.8095 77.3705 24.8095H105.291C106.331 24.8095 106.621 26.2295 105.671 26.6595C98.5206 29.7795 91.6905 31.9395 85.9905 33.4095C85.3205 33.5895 84.6606 33.7495 84.0306 33.8995C78.2106 35.3095 73.7805 35.9695 71.7405 36.2395C71.1105 36.3195 70.7305 36.9795 70.9805 37.5595L72.2205 40.5395L74.6105 46.3295L75.1405 47.6095C75.3305 48.0595 75.8105 48.2995 76.2705 48.1695C76.8205 48.0195 77.6306 47.7895 78.6706 47.4795C79.4006 47.2595 80.2406 46.9995 81.1706 46.6795C81.6706 46.5195 82.1905 46.3395 82.7405 46.1595C83.3605 45.9495 84.0105 46.4095 84.0105 47.0695V65.1395C84.0105 65.6695 84.4405 66.0995 84.9705 66.0995H137.421C137.941 66.0995 138.381 65.6695 138.381 65.1395V34.3895C138.381 33.8595 137.951 33.4295 137.421 33.4295H114.181C113.221 33.4295 112.851 32.1595 113.681 31.6495C116.951 29.6495 120.261 27.4395 123.541 25.0195C123.711 24.8895 123.901 24.8295 124.111 24.8295H139.651C140.171 24.8295 140.611 24.3995 140.611 23.8695V20.1695C140.611 19.6395 140.181 19.2095 139.651 19.2095H133.311C132.441 19.2095 132.011 18.1295 132.661 17.5395C135.771 14.7395 138.76 11.7195 141.57 8.45947ZM125.95 59.4995C125.95 60.0295 125.521 60.4595 124.991 60.4595H97.0205C96.4905 60.4595 96.0606 60.0295 96.0606 59.4995V51.7795C96.0606 51.2495 96.4905 50.8195 97.0205 50.8195H125.001C125.521 50.8195 125.96 51.2395 125.96 51.7795V59.4995H125.95ZM125.001 39.0295C125.521 39.0295 125.96 39.4495 125.96 39.9895V44.2495C125.96 44.7795 125.531 45.2095 125.001 45.2095H97.0306C96.5006 45.2095 96.0705 44.7795 96.0705 44.2495V41.5295C96.0705 41.1495 96.2905 40.8095 96.6305 40.6595C97.7005 40.1795 98.7906 39.6695 99.9006 39.1395C100.031 39.0795 100.171 39.0495 100.311 39.0495H125.001V39.0295Z" fill="white"/>
    <path d="M162.34 88.9995C162.19 88.9795 162.051 88.9695 161.901 88.9795C161.961 88.9595 162.001 88.9595 162.061 88.9595C162.151 88.9595 162.24 88.9695 162.34 88.9995Z" fill="white"/>
</svg>
