<svg width="600" height="650" viewBox="0 0 600 650" fill="none" xmlns="http://www.w3.org/2000/svg">
	<g clip-path="url(#clip0_384_2008)">
		<path d="M286.461 567.16V567.63C286.461 568.21 286.431 568.79 286.371 569.36L286.461 567.16Z" fill="#9600FF"/>
		<path d="M312.101 569.15C312.051 568.65 312.031 568.14 312.031 567.63V567.33L312.101 569.15Z" fill="#9600FF"/>
		<path d="M279.699 164.01L291.719 171.05L283.699 179.07L268.839 170.37L253.979 179.07L245.969 171.05L257.989 164.01L245.969 156.97L253.979 148.95L268.839 157.65L283.699 148.95L291.719 156.97L279.699 164.01Z" fill="#9600FF"/>
		<path d="M340.488 164.01L352.508 171.05L344.488 179.07L329.638 170.37L314.778 179.07L306.758 171.05L318.778 164.01L306.758 156.97L314.778 148.95L329.638 157.65L344.488 148.95L352.508 156.97L340.488 164.01Z" fill="#9600FF"/>
		<path d="M371.628 183.2C372.938 183.52 374.308 183.69 375.718 183.69C385.318 183.69 393.098 175.91 393.098 166.31C393.098 156.71 385.318 148.93 375.718 148.93C375.368 148.93 375.028 148.94 374.688 148.96C370.508 112.53 346.658 84.5298 302.578 84.5298C258.508 84.5298 229.198 112.52 223.968 148.94C214.508 149.1 206.898 156.81 206.898 166.31C206.898 175.91 214.678 183.69 224.278 183.69C225.188 183.69 226.078 183.62 226.948 183.49C236.168 210.73 260.808 232.73 286.208 238.57V252.55C273.448 254.58 261.938 259.54 252.648 266.58V266.59H252.638C242.798 274.03 235.468 283.79 231.848 294.87L231.828 294.93L231.328 296.57L231.268 296.77L215.928 346.61C215.778 347.09 215.668 347.58 215.568 348.06C215.568 348.08 215.558 348.11 215.558 348.13L215.538 348.26C215.518 348.36 215.498 348.45 215.488 348.54C214.208 355.53 218.778 362.26 225.768 363.62L257.348 369.79L251.588 550.4H241.648C232.318 550.4 224.758 557.96 224.758 567.29V567.63C224.758 576.96 232.318 584.53 241.648 584.53H269.558C276.908 584.53 283.158 579.84 285.488 573.3C285.928 572.05 286.228 570.74 286.368 569.38V569.36L286.458 567.16L292.578 414.95H305.898L312.028 567.29V567.33L312.098 569.15C312.228 570.59 312.538 571.98 312.998 573.3C315.338 579.84 321.588 584.53 328.928 584.53H356.838C366.168 584.53 373.738 576.96 373.738 567.63V567.29C373.738 557.96 366.168 550.4 356.838 550.4H346.888L341.138 369.79L372.728 363.61C379.718 362.25 384.288 355.52 383.008 348.53C383.008 348.49 382.998 348.46 382.988 348.42V348.38L382.958 348.25L382.938 348.15C382.938 348.12 382.928 348.09 382.918 348.05C382.888 347.88 382.848 347.71 382.808 347.54C382.748 347.22 382.668 346.91 382.568 346.6L367.018 296.1L366.878 295.63C366.828 295.45 366.768 295.26 366.708 295.08C366.648 294.9 366.588 294.71 366.528 294.53C366.168 293.44 365.758 292.37 365.318 291.3C364.348 288.93 363.198 286.63 361.898 284.41C359.038 279.55 355.418 275.06 351.168 271.07C349.488 269.49 347.698 267.99 345.828 266.58C336.528 259.54 325.008 254.58 312.268 252.55V238.57C337.758 232.71 362.478 210.57 371.628 183.2ZM283.698 179.07L268.838 170.37L253.978 179.07L245.968 171.05L257.988 164.01L245.968 156.97L253.978 148.95L268.838 157.65L283.698 148.95L291.718 156.97L279.698 164.01L291.718 171.05L283.698 179.07ZM340.768 358.31C340.738 358.33 340.718 358.34 340.688 358.36L340.768 358.27V358.31ZM306.758 171.05L318.778 164.01L306.758 156.97L314.778 148.95L329.638 157.65L344.488 148.95L352.508 156.97L340.488 164.01L352.508 171.05L344.488 179.07L329.638 170.37L314.778 179.07L306.758 171.05Z" fill="#9600FF"/>
		<path d="M340.488 164.01L352.508 171.05L344.488 179.07L329.638 170.37L314.778 179.07L306.758 171.05L318.778 164.01L306.758 156.97L314.778 148.95L329.638 157.65L344.488 148.95L352.508 156.97L340.488 164.01Z" fill="#E0FF00"/>
		<path d="M279.699 164.01L291.719 171.05L283.699 179.07L268.839 170.37L253.979 179.07L245.969 171.05L257.989 164.01L245.969 156.97L253.979 148.95L268.839 157.65L283.699 148.95L291.719 156.97L279.699 164.01Z" fill="#E0FF00"/>
		<path d="M359.89 340.15L359.75 339.42L359.5 338.15L359.03 335.69L352.18 337.03L340.17 339.38L327.06 341.94C326.84 341.65 326.62 341.35 326.39 341.07C326.07 340.65 325.76 340.24 325.46 339.84C323.49 337.21 321.01 335.16 318.49 334.06C315.54 332.78 312.7 332.91 310.68 334.42C308.44 336.1 307.6 339.15 308.3 342.69C305.51 343.64 303.01 345.02 300.87 346.71C298.68 344.98 296.16 343.62 293.44 342.69C294.14 339.15 293.3 336.1 291.06 334.42C289.04 332.91 286.2 332.78 283.25 334.06C280.73 335.16 278.25 337.21 276.28 339.84C275.98 340.24 275.65 340.66 275.33 341.09C275.11 341.37 274.89 341.65 274.68 341.94L258.34 338.75L246.51 336.43L242.71 335.69L242.23 338.15L241.86 340.04L241.75 340.6L245.03 341.24L245.13 341.26L258.18 343.81L276.82 347.45L277.19 346.94L277.76 346.17C278.26 345.48 278.78 344.8 279.29 344.13C279.63 343.69 279.96 343.26 280.28 342.84C281.72 340.92 283.53 339.39 285.24 338.64C286.46 338.12 287.54 338.03 288.06 338.42C288.78 338.96 289 340.93 288.01 343.51L286.98 346.19L289.78 346.84C290.04 346.9 290.31 346.97 290.57 347.04C293.03 347.71 295.32 348.81 297.28 350.25C293.52 354.89 291.92 360.75 293.45 366.38C293.77 367.56 294.22 368.69 294.79 369.76C295.37 370.86 296.07 371.89 296.89 372.84C292.98 374.87 287.97 375.34 283.19 374.04C282.6 373.88 282.02 373.69 281.46 373.47C278.77 372.49 276.35 370.97 274.41 369.04L272.65 370.81V370.82L270.88 372.59C273.85 375.54 277.65 377.7 281.88 378.86C284.15 379.48 286.44 379.78 288.68 379.78C293.13 379.78 297.37 378.59 300.87 376.3C304.37 378.59 308.62 379.78 313.06 379.78C315.3 379.78 317.59 379.48 319.86 378.86C324.09 377.7 327.89 375.54 330.85 372.59L330.19 371.92L329.09 370.82L327.33 369.04C324.98 371.38 321.94 373.11 318.54 374.04C318.1 374.16 317.65 374.27 317.2 374.36C311.91 375.43 306.5 374.37 302.71 371.49C302.62 371.43 302.52 371.35 302.43 371.28C301.88 370.84 301.38 370.36 300.93 369.86C299.66 368.46 298.76 366.83 298.28 365.07C297 360.4 298.8 355.49 302.56 351.85C304.81 349.69 307.75 347.97 311.17 347.04C311.43 346.97 311.7 346.9 311.96 346.84L314.75 346.18L313.73 343.51C312.74 340.93 312.96 338.96 313.68 338.42C314.2 338.03 315.28 338.12 316.49 338.64C318.21 339.39 320.02 340.92 321.46 342.84C321.77 343.25 322.1 343.68 322.43 344.11C322.94 344.78 323.47 345.47 323.98 346.17L324.13 346.38L324.92 347.45L340.33 344.44L353.66 341.84L356.61 341.26L359.53 340.69L359.98 340.6L359.89 340.15Z" fill="#231815"/>
	</g>
	<defs>
		<clipPath id="clip0_384_2008">
			<rect width="600" height="650" fill="white"/>
		</clipPath>
	</defs>
</svg>
