<svg width="187" height="500" viewBox="0 0 187 500" fill="none" xmlns="http://www.w3.org/2000/svg">
    <path d="M80.1174 482.63V483.1C80.1174 483.68 80.0873 484.26 80.0273 484.83L80.1174 482.63Z" fill="#9600FF"/>
    <path d="M105.757 484.62C105.707 484.12 105.688 483.61 105.688 483.1V482.8L105.757 484.62Z" fill="#9600FF"/>
    <path d="M73.357 79.48L85.377 86.52L77.357 94.54L62.497 85.84L47.637 94.54L39.627 86.52L51.647 79.48L39.627 72.44L47.637 64.42L62.497 73.12L77.357 64.42L85.377 72.44L73.357 79.48Z" fill="#9600FF"/>
    <path d="M134.146 79.48L146.166 86.52L138.146 94.54L123.296 85.84L108.436 94.54L100.416 86.52L112.436 79.48L100.416 72.44L108.436 64.42L123.296 73.12L138.146 64.42L146.166 72.44L134.146 79.48Z" fill="#9600FF"/>
    <path d="M165.287 98.67C166.597 98.99 167.967 99.16 169.377 99.16C178.977 99.16 186.757 91.38 186.757 81.78C186.757 72.18 178.977 64.4 169.377 64.4C169.027 64.4 168.687 64.41 168.347 64.43C164.167 28 140.317 0 96.2366 0C52.1666 0 22.8566 27.99 17.6266 64.41C8.16659 64.57 0.556641 72.28 0.556641 81.78C0.556641 91.38 8.33665 99.16 17.9366 99.16C18.8466 99.16 19.7366 99.09 20.6066 98.96C29.8266 126.2 54.4666 148.2 79.8666 154.04V168.02C67.1066 170.05 55.5966 175.01 46.3066 182.05V182.06H46.2966C36.4566 189.5 29.1266 199.26 25.5066 210.34L25.4866 210.4L24.9866 212.04L24.9266 212.24L9.58661 262.08C9.43661 262.56 9.32662 263.05 9.22662 263.53C9.22662 263.55 9.21661 263.58 9.21661 263.6L9.19659 263.73C9.17659 263.83 9.15661 263.92 9.14661 264.01C7.86661 271 12.4366 277.73 19.4266 279.09L51.0066 285.26L45.2466 465.87H35.3066C25.9766 465.87 18.4166 473.43 18.4166 482.76V483.1C18.4166 492.43 25.9766 500 35.3066 500H63.2166C70.5666 500 76.8166 495.31 79.1466 488.77C79.5866 487.52 79.8866 486.21 80.0266 484.85V484.83L80.1166 482.63L86.2366 330.42H99.5566L105.687 482.76V482.8L105.757 484.62C105.887 486.06 106.197 487.45 106.657 488.77C108.997 495.31 115.247 500 122.587 500H150.497C159.827 500 167.397 492.43 167.397 483.1V482.76C167.397 473.43 159.827 465.87 150.497 465.87H140.547L134.797 285.26L166.387 279.08C173.377 277.72 177.947 270.99 176.667 264C176.667 263.96 176.657 263.93 176.647 263.89V263.85L176.617 263.72L176.597 263.62C176.597 263.59 176.587 263.56 176.577 263.52C176.547 263.35 176.507 263.18 176.467 263.01C176.407 262.69 176.327 262.38 176.227 262.07L160.677 211.57L160.537 211.1C160.487 210.92 160.427 210.73 160.367 210.55C160.307 210.37 160.247 210.18 160.187 210C159.827 208.91 159.417 207.84 158.977 206.77C158.007 204.4 156.857 202.1 155.557 199.88C152.697 195.02 149.077 190.53 144.827 186.54C143.147 184.96 141.357 183.46 139.487 182.05C130.187 175.01 118.667 170.05 105.927 168.02V154.04C131.417 148.18 156.137 126.04 165.287 98.67ZM77.3566 94.54L62.4966 85.84L47.6366 94.54L39.6266 86.52L51.6466 79.48L39.6266 72.44L47.6366 64.42L62.4966 73.12L77.3566 64.42L85.3766 72.44L73.3566 79.48L85.3766 86.52L77.3566 94.54ZM134.427 273.78C134.397 273.8 134.377 273.81 134.347 273.83L134.427 273.74V273.78ZM100.417 86.52L112.437 79.48L100.417 72.44L108.437 64.42L123.297 73.12L138.147 64.42L146.167 72.44L134.147 79.48L146.167 86.52L138.147 94.54L123.297 85.84L108.437 94.54L100.417 86.52Z" fill="#9600FF"/>
    <path d="M134.146 79.48L146.166 86.52L138.146 94.54L123.296 85.84L108.436 94.54L100.416 86.52L112.436 79.48L100.416 72.44L108.436 64.42L123.296 73.12L138.146 64.42L146.166 72.44L134.146 79.48Z" fill="#E0FF00"/>
    <path d="M73.357 79.48L85.377 86.52L77.357 94.54L62.497 85.84L47.637 94.54L39.627 86.52L51.647 79.48L39.627 72.44L47.637 64.42L62.497 73.12L77.357 64.42L85.377 72.44L73.357 79.48Z" fill="#E0FF00"/>
    <path d="M153.546 255.62L153.406 254.89L153.156 253.62L152.686 251.16L145.836 252.5L133.826 254.85L120.716 257.41C120.496 257.12 120.276 256.82 120.046 256.54C119.726 256.12 119.416 255.71 119.116 255.31C117.146 252.68 114.666 250.63 112.146 249.53C109.196 248.25 106.356 248.38 104.336 249.89C102.096 251.57 101.256 254.62 101.956 258.16C99.1662 259.11 96.6662 260.49 94.5262 262.18C92.3362 260.45 89.8163 259.09 87.0963 258.16C87.7963 254.62 86.9562 251.57 84.7162 249.89C82.6962 248.38 79.8563 248.25 76.9062 249.53C74.3863 250.63 71.9063 252.68 69.9363 255.31C69.6363 255.71 69.3063 256.13 68.9863 256.56C68.7663 256.84 68.5462 257.12 68.3362 257.41L51.9963 254.22L40.1663 251.9L36.3663 251.16L35.8862 253.62L35.5162 255.51L35.4062 256.07L38.6863 256.71L38.7863 256.73L51.8362 259.28L70.4763 262.92L70.8463 262.41L71.4163 261.64C71.9163 260.95 72.4362 260.27 72.9462 259.6C73.2862 259.16 73.6163 258.73 73.9363 258.31C75.3763 256.39 77.1862 254.86 78.8962 254.11C80.1162 253.59 81.1962 253.5 81.7162 253.89C82.4362 254.43 82.6563 256.4 81.6663 258.98L80.6362 261.66L83.4363 262.31C83.6963 262.37 83.9663 262.44 84.2263 262.51C86.6863 263.18 88.9763 264.28 90.9363 265.72C87.1763 270.36 85.5763 276.22 87.1063 281.85C87.4263 283.03 87.8762 284.16 88.4462 285.23C89.0262 286.33 89.7263 287.36 90.5463 288.31C86.6363 290.34 81.6263 290.81 76.8463 289.51C76.2563 289.35 75.6763 289.16 75.1163 288.94C72.4263 287.96 70.0062 286.44 68.0662 284.51L66.3063 286.28V286.29L64.5363 288.06C67.5063 291.01 71.3063 293.17 75.5363 294.33C77.8063 294.95 80.0962 295.25 82.3362 295.25C86.7862 295.25 91.0262 294.06 94.5262 291.77C98.0262 294.06 102.276 295.25 106.716 295.25C108.956 295.25 111.246 294.95 113.516 294.33C117.746 293.17 121.546 291.01 124.506 288.06L123.846 287.39L122.746 286.29L120.986 284.51C118.636 286.85 115.596 288.58 112.196 289.51C111.756 289.63 111.306 289.74 110.856 289.83C105.566 290.9 100.156 289.84 96.3663 286.96C96.2763 286.9 96.1762 286.82 96.0862 286.75C95.5362 286.31 95.0362 285.83 94.5862 285.33C93.3162 283.93 92.4163 282.3 91.9363 280.54C90.6563 275.87 92.4562 270.96 96.2162 267.32C98.4662 265.16 101.406 263.44 104.826 262.51C105.086 262.44 105.356 262.37 105.616 262.31L108.406 261.65L107.386 258.98C106.396 256.4 106.616 254.43 107.336 253.89C107.856 253.5 108.936 253.59 110.146 254.11C111.866 254.86 113.676 256.39 115.116 258.31C115.426 258.72 115.756 259.15 116.086 259.58C116.596 260.25 117.126 260.94 117.636 261.64L117.786 261.85L118.576 262.92L133.986 259.91L147.316 257.31L150.266 256.73L153.186 256.16L153.636 256.07L153.546 255.62Z" fill="#231815"/>
</svg>
