<svg width="1441" height="462" viewBox="0 0 1441 462" fill="none" xmlns="http://www.w3.org/2000/svg">
  <path d="M1079.65 86.0273C1074.12 37.4073 1042.33 0.00732422 983.529 0.00732422C918.529 0.00732422 877.619 45.7073 877.619 101.737C877.619 149.487 916.209 192.567 957.529 204.257V214.947C937.179 218.947 922.579 229.787 922.579 242.537C922.579 258.687 945.999 271.787 974.889 271.787C1003.78 271.787 1027.2 258.697 1027.2 242.537C1027.2 229.787 1012.6 218.957 992.249 214.947V206.157C1027.48 199.927 1062.48 169.817 1075.35 132.127C1075.84 132.157 1076.33 132.177 1076.82 132.177C1089.61 132.177 1099.99 121.807 1099.99 109.007C1099.99 97.1673 1091.11 87.4173 1079.65 86.0173V86.0273Z" fill="#9600FF"/>
  <path d="M807.08 135.296C822.076 130.533 831.253 117.289 827.577 105.714C823.901 94.1388 808.764 88.6165 793.767 93.3794C778.771 98.1423 769.594 111.387 773.27 122.962C776.946 134.537 792.084 140.059 807.08 135.296Z" fill="#9600FF"/>
  <path d="M1028.92 430.057V431.387L1028.91 430.057H1028.92Z" fill="#9600FF"/>
  <path d="M1028.92 431.387V461.967H983.329V431.387H950.349L947.829 461.967H902.089L904.599 431.387H904.399L922.579 242.537H1027.2L1028.91 430.057L1028.92 431.387Z" fill="#9600FF"/>
  <path d="M1102.06 327.718L1101.27 328.548C1094.87 335.348 1084.17 335.668 1077.37 329.268L992.259 249.118L1021.27 228.978L1101.34 303.818C1108.14 310.218 1108.46 320.918 1102.06 327.718Z" fill="#9600FF"/>
  <path d="M820.232 104.566C825.217 102.983 827.325 95.6144 824.941 88.1083C822.557 80.6022 816.584 75.8007 811.599 77.3839C806.614 78.9671 804.506 86.3354 806.89 93.8415C809.274 101.348 815.247 106.149 820.232 104.566Z" fill="#9600FF"/>
  <path d="M747.529 140.237L741.529 121.337L839.159 90.3271L855.999 95.7772L845.159 109.227L747.529 140.237Z" fill="black"/>
  <path d="M798.644 132.289C813.641 127.526 822.818 114.282 819.141 102.707C815.465 91.132 800.328 85.6097 785.332 90.3726C770.335 95.1355 761.158 108.38 764.835 119.955C768.511 131.53 783.648 137.052 798.644 132.289Z" fill="#9600FF"/>
  <path d="M1027.22 89.8775L1016.53 79.1875L996.729 90.7775L976.918 79.1875L966.229 89.8775L982.249 99.2575L966.229 108.637L976.918 119.327L996.729 107.728L1016.53 119.327L1027.22 108.637L1011.2 99.2575L1027.22 89.8775Z" fill="#E0FF00"/>
  <path d="M278.879 200.717L264.569 186.407L238.039 201.937L211.519 186.407L197.209 200.717L218.659 213.287L197.209 225.847L211.519 240.167L238.039 224.637L264.569 240.167L278.879 225.847L257.419 213.287L278.879 200.717Z" fill="#9600FF"/>
  <path d="M948.159 99.2174C948.159 110.497 934.069 119.637 916.679 119.637C899.289 119.637 885.199 110.497 885.199 99.2174C885.199 87.9374 899.289 78.7974 916.679 78.7974C934.069 78.7974 948.159 87.9374 948.159 99.2174Z" fill="white"/>
  <path d="M928.139 103.687C928.139 111.467 921.829 117.777 914.049 117.777C906.269 117.777 899.959 111.467 899.959 103.687C899.959 95.9072 906.269 89.5972 914.049 89.5972C921.829 89.5972 928.139 95.9072 928.139 103.687Z" fill="#9500FF"/>
  <path d="M839.059 213.948L808.819 105.667L775.009 114.577L805.319 228.977C807.289 238.957 816.089 246.487 826.649 246.487L942.819 256.287V221.328L839.069 213.958L839.059 213.948Z" fill="#9600FF"/>
  <path d="M988.388 291.219L985.815 326.084L1088.33 333.648L1090.9 298.783L988.388 291.219Z" fill="#9600FF"/>
  <path d="M981.811 288.416C970.911 287.612 961.423 295.796 960.618 306.696C959.814 317.596 967.998 327.085 978.898 327.889L984.643 328.313C995.543 329.117 1005.03 320.933 1005.84 310.033C1006.64 299.133 998.455 289.644 987.555 288.84L981.811 288.416Z" fill="#9600FF"/>
  <path d="M996.649 296.09C999.456 294.187 999.459 289.291 996.656 285.153C993.852 281.015 989.303 279.203 986.496 281.105C983.689 283.007 983.686 287.904 986.489 292.041C989.293 296.179 993.842 297.992 996.649 296.09Z" fill="#9600FF"/>
  <path d="M238.039 157.267C260.594 157.267 278.879 144.404 278.879 128.537C278.879 112.67 260.594 99.8071 238.039 99.8071C215.483 99.8071 197.199 112.67 197.199 128.537C197.199 144.404 215.483 157.267 238.039 157.267Z" fill="#9600FF"/>
  <path d="M238.039 145.907C251.675 145.907 262.729 138.13 262.729 128.537C262.729 118.944 251.675 111.167 238.039 111.167C224.403 111.167 213.349 118.944 213.349 128.537C213.349 138.13 224.403 145.907 238.039 145.907Z" fill="#E0FF00"/>
  <path d="M306.289 122.867H459.479" stroke="#9600FF" stroke-width="5" stroke-miterlimit="10"/>
  <path d="M306.289 140.237H609.609" stroke="#9600FF" stroke-width="5" stroke-miterlimit="10"/>
  <path d="M306.289 207.837H741.529" stroke="#9600FF" stroke-width="5" stroke-miterlimit="10"/>
  <path d="M306.289 227.567H660.409" stroke="#9600FF" stroke-width="5" stroke-miterlimit="10"/>
</svg>
