<svg width="1239" height="617" viewBox="0 0 1239 617" fill="none" xmlns="http://www.w3.org/2000/svg">
    <path d="M1004.73 86.9399C999.202 38.3199 967.412 0.919922 908.612 0.919922C843.612 0.919922 802.702 46.6199 802.702 102.65C802.702 150.4 841.292 193.48 882.612 205.17V215.86C862.262 219.86 847.662 230.7 847.662 243.45C847.662 259.6 871.082 272.7 899.972 272.7C928.862 272.7 952.282 259.61 952.282 243.45C952.282 230.7 937.682 219.87 917.332 215.86V207.07C952.562 200.84 987.562 170.73 1000.43 133.04C1000.92 133.07 1001.41 133.09 1001.9 133.09C1014.69 133.09 1025.07 122.72 1025.07 109.92C1025.07 98.0799 1016.19 88.3299 1004.73 86.9299V86.9399Z" fill="#9600FF"/>
    <path d="M861.012 392.41C861.012 392.41 812.552 453.92 686.242 437.41C567.892 421.95 462.722 368.51 374.892 368.08C174.032 367.11 127.852 517.38 125.172 526.74C125.172 526.75 125.172 526.76 125.162 526.77C125.082 527.05 125.042 527.2 125.042 527.2L129.752 528.88L146.012 534.68C146.842 534.97 147.622 535.32 148.362 535.73C150.192 536.72 151.762 538.02 153.082 539.59C161.822 549.89 159.982 571.39 150.862 587.38C147.312 593.6 142.972 599.22 137.642 603.83L137.612 603.86C136.292 604.99 134.912 606.06 133.472 607.07L133.432 607.1C118.022 617.82 95.4421 620.65 62.3421 607.64C-3.66792 581.68 -10.6879 534.41 11.0321 483.6C152.782 151.83 549.372 378.11 723.842 392.41C820.862 400.36 848.612 334.64 848.612 334.64L861.012 392.41Z" fill="white"/>
    <path d="M937.922 275.51C937.922 275.51 1023.79 208.28 1083.88 218.77L1100.56 262.88C1100.56 262.88 1005.61 262.88 952.292 320.45L937.922 275.51Z" fill="white"/>
    <path d="M1238.94 432.3L1222.08 501.18C1222.08 501.18 1004.73 520.51 920.472 411.6L957.432 376.99C957.432 376.99 969.632 385.02 990.752 395.32C992.282 396.07 993.862 396.83 995.492 397.6C1045.53 421.3 1138.89 454.26 1238.94 432.3Z" fill="white"/>
    <path d="M137.642 603.83L137.612 603.86L133.472 607.07L133.432 607.1C125.072 601.64 119.452 594.06 116.692 584.53C110.872 564.4 119.122 540.36 125.162 526.77C125.082 527.05 125.042 527.2 125.042 527.2L129.752 528.88C126.982 535.17 123.712 543.78 121.682 553.07C121.322 554.71 121.002 556.38 120.732 558.05C119.352 566.49 119.212 575.23 121.502 583.15C124.072 592.02 129.492 598.97 137.642 603.83Z" fill="#9600FF"/>
    <path d="M144.842 544.67C141.352 550.3 143.202 559.42 144.212 562.46L145.852 567.41L120.732 558.06L116.072 556.32L117.822 551.63L121.682 553.07L138.332 559.28C137.552 554.66 137.172 547.56 140.582 542.04C142.392 539.12 144.992 537.01 148.362 535.73C150.192 536.72 151.762 538.02 153.082 539.59C149.222 540.29 146.522 541.95 144.842 544.67Z" fill="#9600FF"/>
    <path d="M732.155 136.215C747.151 131.452 756.328 118.208 752.652 106.633C748.975 95.0577 733.838 89.5354 718.842 94.2984C703.846 99.0613 694.669 112.306 698.345 123.881C702.021 135.456 717.158 140.978 732.155 136.215Z" fill="#9600FF"/>
    <path d="M954.002 430.97V432.3L953.992 430.97H954.002Z" fill="#9600FF"/>
    <path d="M954.002 432.3V462.88H908.412V432.3H875.432L872.912 462.88H827.172L829.682 432.3H829.482L847.662 243.45H952.282L953.992 430.97L954.002 432.3Z" fill="#9600FF"/>
    <path d="M949.822 384.78L842.422 460.84L839.602 462.88H824.932C823.712 450.29 821.802 435.06 821.182 430.25L924.032 356.49L949.822 384.78Z" fill="white"/>
    <path d="M1027.14 328.64L1026.35 329.47C1019.95 336.27 1009.25 336.59 1002.45 330.19L917.342 250.04L946.352 229.9L1026.42 304.74C1033.22 311.14 1033.54 321.84 1027.14 328.64Z" fill="#9600FF"/>
    <path d="M832.002 361.62L826.892 315.41C826.892 315.41 929.462 266.11 953.992 234.82L984.312 260.75C984.312 260.75 903.482 344.77 831.992 361.62H832.002Z" fill="white"/>
    <path d="M745.3 105.494C750.285 103.911 752.394 96.5426 750.01 89.0365C747.626 81.5304 741.652 76.7289 736.667 78.3121C731.683 79.8953 729.574 87.2636 731.958 94.7697C734.342 102.276 740.316 107.077 745.3 105.494Z" fill="#9600FF"/>
    <path d="M672.612 141.16L666.612 122.26L764.242 91.25L781.082 96.69L770.242 110.14L672.612 141.16Z" fill="black"/>
    <path d="M723.719 133.198C738.716 128.435 747.892 115.191 744.216 103.616C740.54 92.0406 725.403 86.5184 710.406 91.2813C695.41 96.0442 686.233 109.289 689.909 120.864C693.586 132.439 708.723 137.961 723.719 133.198Z" fill="#9600FF"/>
    <path d="M952.302 90.7899L941.613 80.0999L921.812 91.6998L902.003 80.0999L891.312 90.7899L907.333 100.17L891.312 109.56L902.003 120.24L921.812 108.65L941.613 120.24L952.302 109.56L936.282 100.17L952.302 90.7899Z" fill="#E0FF00"/>
    <path d="M203.962 201.64L189.652 187.33L163.122 202.86L136.602 187.33L122.282 201.64L143.742 214.21L122.282 226.77L136.602 241.08L163.122 225.55L189.652 241.08L203.962 226.77L182.502 214.21L203.962 201.64Z" fill="#9600FF"/>
    <path d="M873.242 100.14C873.242 111.42 859.152 120.56 841.762 120.56C824.372 120.56 810.282 111.42 810.282 100.14C810.282 88.86 824.372 79.72 841.762 79.72C859.152 79.72 873.242 88.86 873.242 100.14Z" fill="white"/>
    <path d="M853.212 104.6C853.212 112.38 846.902 118.69 839.122 118.69C831.342 118.69 825.032 112.38 825.032 104.6C825.032 96.8198 831.342 90.5098 839.122 90.5098C846.902 90.5098 853.212 96.8198 853.212 104.6Z" fill="#9500FF"/>
    <path d="M764.132 214.87L733.892 106.59L700.082 115.5L730.392 229.9C732.362 239.88 741.162 247.41 751.722 247.41L867.892 257.21V222.25L764.142 214.88L764.132 214.87Z" fill="#9600FF"/>
    <path d="M998.632 380.17C998.632 380.17 989.702 411.93 954.002 425.58C949.752 402.07 939.372 382.74 921.812 363.85C887.532 326.97 818.292 271.41 798.942 161.56H868.442C868.442 161.56 890.592 220.97 904.162 240.15C931.652 278.99 956.352 303.03 969.652 323C987.152 349.28 998.642 380.17 998.642 380.17H998.632Z" fill="white"/>
    <path d="M913.46 292.125L910.888 326.99L1013.4 334.554L1015.97 299.689L913.46 292.125Z" fill="#9600FF"/>
    <path d="M906.903 289.323C896.003 288.518 886.514 296.703 885.71 307.603C884.906 318.503 893.09 327.991 903.99 328.795L909.735 329.219C920.635 330.024 930.123 321.839 930.927 310.939C931.731 300.039 923.547 290.551 912.647 289.747L906.903 289.323Z" fill="#9600FF"/>
    <path d="M921.729 297.015C924.536 295.113 924.539 290.217 921.736 286.079C918.932 281.941 914.383 280.129 911.576 282.031C908.769 283.933 908.766 288.829 911.57 292.967C914.373 297.105 918.922 298.917 921.729 297.015Z" fill="#9600FF"/>
    <path d="M163.122 158.19C185.678 158.19 203.962 145.327 203.962 129.46C203.962 113.593 185.678 100.73 163.122 100.73C140.567 100.73 122.282 113.593 122.282 129.46C122.282 145.327 140.567 158.19 163.122 158.19Z" fill="#9600FF"/>
    <path d="M163.122 146.83C176.758 146.83 187.812 139.053 187.812 129.46C187.812 119.867 176.758 112.09 163.122 112.09C149.486 112.09 138.432 119.867 138.432 129.46C138.432 139.053 149.486 146.83 163.122 146.83Z" fill="#E0FF00"/>
    <path d="M231.372 123.78H384.562" stroke="#9600FF" stroke-width="5" stroke-miterlimit="10"/>
    <path d="M231.372 141.16H534.692" stroke="#9600FF" stroke-width="5" stroke-miterlimit="10"/>
    <path d="M231.372 208.75H666.612" stroke="#9600FF" stroke-width="5" stroke-miterlimit="10"/>
    <path d="M231.372 228.49H585.492" stroke="#9600FF" stroke-width="5" stroke-miterlimit="10"/>
    <path d="M854.942 298.22C875.762 287.26 897.152 278.24 927.032 255.09" stroke="#9600FF" stroke-width="5" stroke-miterlimit="10"/>
    <path d="M912.842 358.18C912.842 358.18 931.202 374.89 942.662 398.05" stroke="#9600FF" stroke-width="5" stroke-miterlimit="10"/>
    <path d="M995.492 397.6C985.062 409.11 965.102 423.26 952.932 427.91L951.152 423.25C962.812 418.78 980.982 405.57 990.752 395.32C992.282 396.07 993.862 396.83 995.492 397.6Z" fill="#9600FF"/>
</svg>
