<svg width="1146" height="430" viewBox="0 0 1146 430" fill="none" xmlns="http://www.w3.org/2000/svg">
    <path d="M1145.38 29.1541H536.72V312.224H1145.38V29.1541Z" fill="white"/>
    <path d="M887.3 128.344H576.12V139.834H887.3V128.344Z" fill="#E0FF00"/>
    <path d="M927.11 391.224H847.74L798.38 216.304L840.01 150.194H934.83L977.14 216.304L927.11 391.224Z" fill="#E0FF00"/>
    <path d="M895.44 362.294L894.89 357.684L935.33 216.304L893.02 150.204H798.2L756.57 216.304L763.53 240.984L717.76 233.324L741.14 157.804L743.21 151.114L743.52 150.104L745.53 143.474C748.45 133.834 742.95 123.564 733.31 120.644L731.24 120.014C721.6 117.094 711.33 122.594 708.4 132.234L704.4 145.454C704.29 145.824 704.19 146.194 704.1 146.564L675.07 240.384C671.92 250.594 677.63 261.434 687.83 264.584L775.37 283.024L796.4 357.554H796.32L787.8 429.174H827.97L832.48 391.244H858.67L863.18 429.174H903.35L898.84 391.244L895.4 362.324L895.44 362.294Z" fill="#9600FF"/>
    <path d="M932.1 155.194L971.72 217.094L923.34 386.224H851.52L803.8 217.084L842.77 155.194H932.09M934.83 150.194H840.01L798.38 216.294L847.73 391.214H927.1L977.13 216.294L934.82 150.194H934.83Z" fill="#9600FF"/>
    <path d="M251.65 385.874V364.284C293.1 354.744 332.99 311.834 332.99 264.094C332.99 209.894 302.039 165.694 239.169 165.694C176.299 165.694 136.729 209.894 136.729 264.094C136.729 311.834 176.61 354.744 218.07 364.284V385.824C167.83 392.734 147.47 429.154 147.47 429.154H321.77C321.77 429.154 300.669 392.914 251.659 385.874H251.65Z" fill="#9600FF"/>
    <path d="M316.94 257.884C316.94 269.164 302.85 278.304 285.46 278.304C268.07 278.304 253.979 269.164 253.979 257.884C253.979 246.604 268.07 237.464 285.46 237.464C302.85 237.464 316.94 246.604 316.94 257.884Z" fill="white"/>
    <path d="M313.65 257.884C313.65 265.664 307.34 271.974 299.56 271.974C291.78 271.974 285.47 265.664 285.47 257.884C285.47 250.104 291.78 243.794 299.56 243.794C307.34 243.794 313.65 250.104 313.65 257.884Z" fill="#9500FF"/>
    <path d="M751.85 162.564L751.55 163.574L751.87 162.564H751.85Z" fill="#9600FF"/>
    <path d="M905.02 210.514L896.13 201.624L879.66 211.264L863.19 201.624L854.3 210.514L867.63 218.314L854.3 226.114L863.19 235.004L879.66 225.354L896.13 235.004L905.02 226.114L891.7 218.314L905.02 210.514Z" fill="#E0FF00"/>
    <path d="M839.16 218.284C839.16 227.664 827.44 235.264 812.98 235.264C798.52 235.264 786.8 227.664 786.8 218.284C786.8 208.904 798.52 201.304 812.98 201.304C827.44 201.304 839.16 208.904 839.16 218.284Z" fill="white"/>
    <path d="M827.84 218.314C827.84 226.514 821.19 233.174 812.98 233.174C804.77 233.174 798.12 226.524 798.12 218.314C798.12 210.104 804.77 203.454 812.98 203.454C821.19 203.454 827.84 210.104 827.84 218.314Z" fill="#9500FF"/>
    <path d="M853.9 312.554L859.73 312.474C860.12 312.474 860.51 312.474 860.91 312.494L853.9 312.544V312.554Z" fill="#9600FF"/>
    <path d="M876.373 261.632L798.345 267.65L805.731 363.425L883.759 357.408L876.373 261.632Z" fill="white"/>
    <path d="M907.38 256.824L935.33 216.304L969.71 327.604C971.82 338.074 965.04 348.274 954.57 350.394L858.29 369.794C857.93 369.894 857.55 369.984 857.18 370.064L843.65 372.874C833.78 374.914 824.04 368.534 821.99 358.664L821.56 356.544C819.51 346.684 825.89 336.944 835.76 334.894L842.54 333.484L843.58 333.274L850.45 331.884L927.95 316.284L907.38 256.834V256.824Z" fill="#9600FF"/>
    <path d="M547.49 150.194C547.49 201.524 505.88 243.134 454.55 243.134C430.93 243.134 409.36 234.324 392.97 219.804C373.74 202.774 361.62 177.904 361.62 150.204C361.62 98.8742 403.23 57.2642 454.56 57.2642C505.89 57.2642 547.5 98.8742 547.5 150.204L547.49 150.194Z" fill="#9600FF"/>
    <path d="M133.67 134.904C133.67 171.814 103.75 201.734 66.84 201.734C49.85 201.734 34.34 195.394 22.55 184.954C8.71999 172.714 0 154.824 0 134.904C0 97.9942 29.92 68.0742 66.83 68.0742C103.74 68.0742 133.66 97.9942 133.66 134.904H133.67Z" fill="#9600FF"/>
    <path d="M344.97 59.954C344.97 92.824 318.33 119.464 285.46 119.464C270.33 119.464 256.52 113.824 246.02 104.524C233.71 93.624 225.94 77.694 225.94 59.954C225.94 27.084 252.58 0.444092 285.45 0.444092C318.32 0.444092 344.96 27.084 344.96 59.954H344.97Z" fill="#9600FF"/>
    <path d="M379.34 240.034L395.43 219.804L425.81 229.924L379.34 240.034Z" fill="#9600FF"/>
    <path d="M265.25 135.694L271.47 114.964L298.24 113.404L265.25 135.694Z" fill="#9600FF"/>
    <path d="M122.9 204.224L107.79 183.244L76.96 191.914L122.9 204.224Z" fill="#9600FF"/>
    <path d="M918.13 75.264C918.13 112.174 948.05 142.094 984.96 142.094C1001.95 142.094 1017.46 135.754 1029.25 125.314C1043.08 113.074 1051.8 95.184 1051.8 75.264C1051.8 38.354 1021.88 8.43408 984.97 8.43408C948.06 8.43408 918.14 38.354 918.14 75.264H918.13Z" fill="#9600FF"/>
    <path d="M928.91 144.574L944.02 123.594L974.84 132.264L928.91 144.574Z" fill="#9600FF"/>
    <path d="M432.43 340.344L420.69 344.604C422.87 347.174 424.63 350.184 425.78 353.564C430.68 367.954 422.99 383.594 408.6 388.494C405.49 389.554 402.32 390.024 399.22 389.974L375.03 429.154H332.69L372.51 366.564C370.56 353.804 377.84 341.094 390.35 336.574V336.554L426.65 323.394C431.33 321.804 436.42 324.304 438.01 328.984C439.61 333.664 437.11 338.754 432.43 340.344Z" fill="#9600FF"/>
    <path d="M604.69 263.254L637.58 279.864L610.3 251.564L623.75 232.484L602.82 236.914L593.01 213.564L590.66 237.344L556.72 220.204L583.08 247.544L567.62 269.484L596.06 263.454L603.03 280.044L604.69 263.254Z" fill="#E0FF00"/>
    <path d="M1034.99 198.244L1016.74 207.464L1031.88 191.764L1024.42 181.174L1036.03 183.634L1041.47 170.684L1042.77 183.874L1061.6 174.364L1046.97 189.534L1055.55 201.704L1039.78 198.364L1035.91 207.564L1034.99 198.244Z" fill="#E0FF00"/>
    <path d="M743.45 90.844H576.12V102.334H743.45V90.844Z" fill="#E0FF00"/>
    <path d="M671.51 164.944H576.12V176.434H671.51V164.944Z" fill="#E0FF00"/>
    <path d="M984.97 119.234C1009.28 119.234 1028.99 99.5256 1028.99 75.2141C1028.99 50.9025 1009.28 31.1941 984.97 31.1941C960.659 31.1941 940.95 50.9025 940.95 75.2141C940.95 99.5256 960.659 119.234 984.97 119.234Z" stroke="white" stroke-width="5" stroke-miterlimit="10"/>
    <path d="M984.17 74.964C977.32 76.954 970.48 74.1341 968.89 68.6741C967.3 63.2141 971.55 57.0841 978.43 55.1841C982.32 54.1041 988.62 53.3541 993.76 60.3041" stroke="white" stroke-width="5" stroke-miterlimit="10"/>
    <path d="M984.16 74.9641C991.01 72.9741 997.85 75.7941 999.44 81.2541C1001.03 86.7141 996.78 92.8441 989.9 94.7441C986.01 95.8241 979.71 96.5741 974.57 89.6241" stroke="white" stroke-width="5" stroke-miterlimit="10"/>
    <path d="M977.1 49.3042L993.32 105.204" stroke="white" stroke-width="5" stroke-miterlimit="10"/>
    <path d="M67.6896 169.204C86.633 169.204 101.99 153.847 101.99 134.904C101.99 115.961 86.633 100.604 67.6896 100.604C48.7463 100.604 33.3896 115.961 33.3896 134.904C33.3896 153.847 48.7463 169.204 67.6896 169.204Z" stroke="white" stroke-width="5" stroke-miterlimit="10"/>
    <path d="M94.2104 113.214C107.42 111.404 116.51 112.034 117.5 115.434C119.15 121.104 97.5805 132.354 69.3405 140.544C41.0905 148.744 16.8605 150.784 15.2205 145.114C14.2205 141.654 21.8505 136.114 34.3705 130.464" stroke="white" stroke-width="5" stroke-miterlimit="10"/>
    <path d="M294.76 45.9541C298.073 45.9541 300.76 43.2678 300.76 39.9541C300.76 36.6404 298.073 33.9541 294.76 33.9541C291.446 33.9541 288.76 36.6404 288.76 39.9541C288.76 43.2678 291.446 45.9541 294.76 45.9541Z" fill="white"/>
    <path d="M287.18 67.3341L273.08 58.3242C273.08 58.3242 278.4 33.7542 282.88 29.8842C288.22 25.2642 305.63 22.9641 305.63 22.9641C305.63 22.9641 310.84 39.7241 308.89 46.5141C307.26 52.1941 287.18 67.3341 287.18 67.3341Z" stroke="white" stroke-width="5" stroke-miterlimit="10"/>
    <path d="M275.69 37.484L278.79 37.744L274.46 52.934L262.47 51.324L264.28 45.264C265.77 40.294 270.53 37.054 275.69 37.484Z" stroke="white" stroke-width="5" stroke-miterlimit="10"/>
    <path d="M304.5 56.5341L302.99 53.9941L291 64.3541L297.85 74.4741L302.5 70.1942C306.31 66.6842 307.15 60.9841 304.5 56.5241V56.5341Z" stroke="white" stroke-width="5" stroke-miterlimit="10"/>
    <path d="M270.61 68.0742L252.56 94.4642" stroke="white" stroke-width="5" stroke-miterlimit="10"/>
    <path d="M281.48 71.0142L270.74 86.7242" stroke="white" stroke-width="5" stroke-miterlimit="10"/>
    <path d="M460.76 128.484L455.82 107.794L435.18 112.724L440.12 133.414C423.02 142.364 413.48 162.054 418.17 181.684C423.71 204.874 447 219.184 470.19 213.654C493.38 208.114 507.69 184.824 502.16 161.634C497.47 142.004 480.07 128.744 460.77 128.484H460.76Z" stroke="white" stroke-width="5" stroke-miterlimit="10"/>
    <path d="M450.722 92.1926L433 96.4243C428.875 97.4094 426.328 101.55 427.313 105.673C428.297 109.796 432.44 112.34 436.565 111.355L454.287 107.123C458.413 106.138 460.959 101.997 459.975 97.874C458.99 93.7511 454.848 91.2074 450.722 92.1926Z" stroke="white" stroke-width="5" stroke-miterlimit="10"/>
    <path d="M490.6 164.864C494.61 181.674 484.23 198.564 467.42 202.574C450.6 206.584 433.72 196.204 429.71 179.394C429.19 177.234 428.92 175.084 428.86 172.954C428.74 168.424 429.6 164.014 431.29 159.994L490.27 163.614C490.39 164.014 490.5 164.434 490.6 164.854V164.864Z" fill="white"/>
</svg>
