<svg width="1158" height="579" viewBox="0 0 1158 579" fill="none" xmlns="http://www.w3.org/2000/svg">
    <path d="M1104.58 72.8299C1104.42 72.8099 1104.26 72.8199 1104.1 72.7999C1099.87 42.7499 1079.84 19.1599 1042.22 15.2199C995.4 10.3099 962.48 40.1299 958.24 80.4899C955.05 110.9 973.85 140.95 998.21 155.49L995.21 163.78C985.01 159.65 975.55 159.07 967.89 160.9C950.82 164.98 906.64 174.6 888.71 178.49L823.44 111.51L805.35 129.14L874.95 200.56C877.53 204 881.96 205.81 886.43 204.82L937.94 193.4L872.65 249.47L846.7 217.94C841.54 211.66 832.55 210.4 825.89 214.72L825.86 214.69L825.76 214.79C825.31 215.09 824.86 215.42 824.43 215.77C823.32 216.68 771.16 269.27 759.54 280.99H702.97V312.63H895.03C916.84 312.63 937.81 304.24 953.57 289.17C974.85 268.82 1002.88 240.6 1016.7 226.61L1053.72 287.39H991.38C987.93 284.16 983.55 282.09 978.35 282.09C964.55 282.09 953.06 296.69 953.06 308.76C953.06 310.08 953.18 311.38 953.41 312.64H1076.84C1080.32 312.64 1083.48 311.23 1085.77 308.94C1088.05 306.66 1089.45 303.55 1089.47 300.09V300.02C1089.47 298.1 1089.03 296.29 1088.26 294.66V294.64L1088.24 294.61C1087.56 292.98 1030.87 196.58 1030.87 196.58C1028.7 191.18 1024.68 185.38 1019.2 179.91L1024.83 164.35C1056.26 166.73 1092.96 140.94 1102.42 106.27C1111.08 106.49 1118.6 100.03 1119.52 91.2599C1120.49 82.0399 1113.8 73.7899 1104.58 72.8199V72.8299ZM804.3 281.01L833.55 251.76L857.62 281.01H804.3Z" fill="#9600FF"/>
    <path d="M819.069 139.98C828.944 139.98 836.949 131.975 836.949 122.1C836.949 112.225 828.944 104.22 819.069 104.22C809.195 104.22 801.189 112.225 801.189 122.1C801.189 131.975 809.195 139.98 819.069 139.98Z" fill="#9600FF"/>
    <path d="M826.25 459.12H757.47V540.12H826.25V459.12Z" fill="white"/>
    <path d="M785.52 471.16C777.35 471.03 770.53 477.71 770.47 485.88C770.42 494.16 776.99 500.88 785.19 500.92C793.35 500.96 800.15 494.23 800.18 486.07C800.21 478.09 793.52 471.29 785.52 471.16Z" fill="#9600FF"/>
    <path d="M868.56 415.11H900.58L932.33 466.44V505.38H904.62L911.9 477.93L868.57 415.1L868.56 415.11ZM832.81 486.11C829.43 484.13 826.27 482.28 823.24 480.5C827.42 476.17 831.54 471.9 835.76 467.52C840.13 470.03 844.38 472.42 848.56 474.91C849.87 475.69 850.87 475.85 852.27 474.99C856.39 472.46 860.63 470.13 865.02 467.6C869.07 471.97 873.14 476.36 877.23 480.78C874.71 482.25 871.54 484.09 868.11 486.08C871.5 488.06 874.63 489.87 878.13 491.92C876.07 493.89 874.19 495.66 872.34 497.46C870.27 499.46 868.19 501.45 866.21 503.53C865.38 504.39 864.76 504.48 863.72 503.86C859.79 501.5 855.78 499.31 851.85 496.96C850.8 496.33 850.05 496.4 849.03 496.99C844.71 499.55 840.33 502.02 835.82 504.61C831.68 500.27 827.6 495.97 823.41 491.55C826.28 489.87 829.38 488.08 832.81 486.09V486.11ZM757.6 484.12C758.22 478.97 761.08 475.28 764.89 472.42C771.76 467.28 779.55 465.7 787.74 466.16C793.22 466.46 798.51 467.79 803.29 470.79C805.15 471.97 806.96 473.38 808.5 475.01C814.86 481.72 814.73 490.85 808.24 497.44C803.27 502.49 797.14 504.73 790.49 505.67C788.79 505.91 787.06 505.98 785.83 506.08C777.77 505.87 770.59 504.26 764.4 499.28C759.74 495.52 756.8 490.72 757.6 484.13V484.12ZM918.25 578.73L927.78 545.51H952.39C963.48 545.51 972.46 536.52 972.46 525.44V449.51H986.89C997.97 449.51 1006.95 440.53 1006.95 429.45C1006.95 418.37 997.97 409.38 986.89 409.38H952.4C941.32 409.38 932.34 418.37 932.34 429.45V451.86L904.63 410.73C904.11 409.89 903.19 409.37 902.19 409.37H770.05L722.76 477.92L730.04 505.37H701.9V429.44C701.9 418.36 692.92 409.37 681.84 409.37H647.77C636.69 409.37 627.71 418.36 627.71 429.44C627.71 440.52 636.69 449.5 647.77 449.5H661.77V525.43C661.77 536.51 670.76 545.5 681.84 545.5H740.67L749.47 578.72H885.2L894 545.5H921.82L912.26 578.72H918.26L918.25 578.73Z" fill="#9600FF"/>
    <path d="M719.409 298.37V261.96C719.409 254.068 713.011 247.67 705.119 247.67H700.839C692.947 247.67 686.549 254.068 686.549 261.96V298.37C686.549 306.262 692.947 312.66 700.839 312.66H705.119C713.011 312.66 719.409 306.262 719.409 298.37Z" fill="#9600FF"/>
    <path d="M1157.27 318.71H536.68V401.85H1157.27V318.71Z" fill="#9600FF"/>
    <path d="M1066.9 83.26L1060.01 74.75L1044.87 81.61L1031.48 71.76L1022.97 78.65L1033.8 86.62L1021.55 92.17L1028.44 100.67L1043.59 93.82L1056.98 103.67L1065.48 96.78L1054.65 88.81L1066.9 83.26Z" fill="#E0FF00"/>
    <path d="M1009.25 84.0099C1008.4 92.1299 997.55 97.6499 985.03 96.3399C972.51 95.0299 963.05 87.3799 963.9 79.2499C964.75 71.1299 975.6 65.6099 988.12 66.9199C1000.64 68.2299 1010.1 75.8799 1009.25 84.0099Z" fill="white"/>
    <path d="M990.29 84.6999C989.7 90.3099 984.68 94.38 979.07 93.79C973.46 93.2 969.39 88.18 969.98 82.57C970.57 76.96 975.59 72.8899 981.2 73.4799C986.81 74.0699 990.88 79.0899 990.29 84.6999Z" fill="#9500FF"/>
    <path d="M969.93 45.78L1104.01 69.21L1110.26 33.68L1055 49.46L1041.96 0.22998L1013.37 42.14L976.18 10.24L969.93 45.78Z" fill="#E0FF00"/>
    <path d="M832.37 90.9099L825.96 89.1799L804.55 48.9199L871.68 69.2899L832.37 90.9099Z" fill="white"/>
    <path d="M832.243 91.0269L825.951 89.2061L808.916 148.071L815.208 149.892L832.243 91.0269Z" fill="white"/>
    <path d="M797.168 144.57L795.348 150.862L825.433 159.568L827.254 153.276L797.168 144.57Z" fill="white"/>
    <path d="M830.569 86.47L821.199 69.5L860.459 69.58L830.569 86.47Z" fill="#9600FF"/>
    <path d="M825.44 125.87C823.11 133.86 816.57 137.98 810.84 135.07C805.11 132.16 802.35 123.32 804.68 115.33C807.01 107.34 813.55 103.22 819.28 106.13C825.01 109.04 827.77 117.88 825.44 125.87Z" fill="#9600FF"/>
    <path d="M467.48 578.73H44.2095L0.0195312 329.35L343.11 268.55L380.79 286.56L418.88 304.51L467.48 578.73Z" fill="#9600FF"/>
    <path d="M363.66 397.634L294.685 409.858L305.35 470.041L374.326 457.816L363.66 397.634Z" stroke="white" stroke-width="5.82" stroke-miterlimit="10"/>
    <path d="M111.819 464.23C103.549 465.7 97.5093 470.9 98.3793 475.82L101.979 496.16C102.169 497.25 102.709 498.23 103.439 499.09C106.129 502.12 111.999 503.55 118.409 502.46L118.579 502.43C125.069 501.28 130.119 497.87 131.659 494.09C132.099 493.02 132.219 491.92 132.029 490.84L128.429 470.5C127.559 465.58 120.099 462.77 111.819 464.23ZM125.219 490.92C125.789 494.14 122.459 497.38 117.839 498.2L117.709 498.22C113.089 498.99 108.919 497.04 108.369 493.9L105.169 475.83C104.609 472.65 107.899 469.42 112.449 468.52L112.579 468.5C117.239 467.67 121.449 469.62 122.019 472.85L125.219 490.92Z" fill="white"/>
    <path d="M256.72 438.56C248.45 440.03 242.41 445.23 243.28 450.15L246.88 470.49C247.07 471.58 247.61 472.56 248.34 473.42C251.03 476.45 256.9 477.88 263.31 476.79L263.48 476.76C269.97 475.61 275.02 472.2 276.56 468.42C277 467.35 277.12 466.25 276.93 465.17L273.33 444.83C272.46 439.91 265 437.1 256.72 438.56ZM270.16 465.24C270.73 468.46 267.4 471.7 262.78 472.52L262.65 472.54C258.03 473.31 253.86 471.36 253.31 468.22L250.11 450.15C249.55 446.97 252.84 443.74 257.39 442.84L257.52 442.82C262.18 441.99 266.39 443.94 266.96 447.17L270.16 465.24Z" fill="white"/>
    <path d="M178.19 448.92L179.35 455.45C179.43 455.89 179.85 456.22 180.32 456.13L188.59 454.66C189.03 454.58 189.48 454.86 189.56 455.34L189.95 457.56C190.03 458 189.75 458.45 189.27 458.53L181 460C180.56 460.08 180.23 460.5 180.32 460.97L185.11 487.97C185.19 488.41 184.91 488.86 184.43 488.94L179.47 489.82C179.03 489.9 178.58 489.62 178.5 489.14L170.91 446.29C170.3 442.85 172.6 439.61 176 439.01L187.98 436.89C188.42 436.81 188.87 437.09 188.95 437.57L189.34 439.79C189.42 440.23 189.14 440.68 188.66 440.76L183.26 441.72C177.12 442.81 177.57 445.6 178.17 449" fill="white"/>
    <path d="M148.749 454.14L149.909 460.67C149.989 461.11 150.409 461.44 150.879 461.35L159.149 459.88C159.589 459.8 160.039 460.08 160.119 460.56L160.509 462.78C160.589 463.22 160.309 463.67 159.829 463.75L151.559 465.22C151.119 465.3 150.789 465.72 150.879 466.19L155.669 493.19C155.749 493.63 155.469 494.08 154.989 494.16L150.029 495.04C149.589 495.12 149.139 494.84 149.059 494.36L141.469 451.51C140.859 448.07 143.159 444.83 146.559 444.23L158.539 442.11C158.979 442.03 159.429 442.31 159.509 442.79L159.899 445.01C159.979 445.45 159.699 445.9 159.219 445.98L153.819 446.94C147.679 448.03 148.129 450.82 148.729 454.22" fill="white"/>
    <path d="M222.879 430.63L217.919 431.51C217.479 431.59 217.149 432.01 217.229 432.44L220.389 450.3C220.499 450.91 219.909 451.42 219.289 451.21C217.279 450.49 215.019 450.17 212.669 450.36L211.929 450.49L211.279 450.61C205.049 451.71 200.369 456.23 199.579 461.4C199.419 462.51 199.389 463.63 199.589 464.77L201.289 474.35C201.369 474.79 201.429 475.13 201.589 475.55C203.099 480.49 208.129 483.82 213.989 483.91C214.539 483.95 215.069 483.9 215.599 483.85C216.129 483.8 216.619 483.76 217.139 483.67C220.189 483.13 222.909 481.75 224.919 479.91C224.989 479.81 225.069 479.75 225.199 479.73C225.419 479.69 225.619 479.83 225.659 480.05L225.909 481.49L231.699 480.46C232.139 480.38 232.419 479.97 232.339 479.49L223.789 431.24C223.709 430.8 223.299 430.52 222.869 430.6M224.249 472.07C224.819 475.29 221.719 478.58 217.279 479.37C212.839 480.16 208.799 478.18 208.219 474.91L205.919 461.93C205.339 458.66 208.489 455.41 212.889 454.63C217.289 453.85 221.329 455.87 221.899 459.1L224.199 472.08H224.239L224.249 472.07Z" fill="white"/>
    <path d="M342.579 263.58L363.009 310.22L425.819 302.9" stroke="#E0FF00" stroke-width="5" stroke-miterlimit="10"/>
    <path d="M307.399 435.52L316.039 427.45C316.039 427.45 328.199 443.94 334.499 434.28C340.789 424.62 359.229 360.41 359.229 360.41L384.199 371.11C384.199 371.11 362.169 431.37 350.909 449.41C347.199 455.36 337.409 465.11 322.969 451.8C310.859 440.65 307.409 435.51 307.409 435.51L307.399 435.52Z" fill="#E0FF00"/>
</svg>
