<svg width="415" height="330" viewBox="0 0 415 330" fill="none" xmlns="http://www.w3.org/2000/svg">
    <path d="M414.16 329.556H250.06C243.06 295.436 226.4 254.376 211.68 222.216C201.37 225.306 190.45 226.966 179.13 226.966C116.51 226.966 65.7404 176.196 65.7404 113.566C65.7404 93.056 71.1803 73.826 80.7003 57.226H27.7803C12.7703 56.386 0.860352 43.946 0.860352 28.726C0.860352 13.506 12.7703 1.06601 27.7803 0.226013C28.3203 0.196013 28.8603 0.176025 29.4103 0.176025H179.13C180.64 0.176025 182.14 0.206001 183.63 0.276001C213.49 1.426 240.39 14.136 259.97 34.056C259.97 34.866 263.58 38.816 269.44 44.986C287.95 64.486 328.92 106.196 349.5 141.056C384.07 199.596 414.16 329.556 414.16 329.556Z" fill="#9600FF"/>
    <path d="M31.0105 57.2161C30.4805 57.2561 29.9505 57.2661 29.4105 57.2661C28.8705 57.2661 28.3405 57.2661 27.8105 57.2161H31.0105Z" fill="#9600FF"/>
    <path d="M27.7803 0.166016H29.4103C28.8603 0.166016 28.3203 0.186003 27.7803 0.216003V0.166016Z" fill="#9600FF"/>
</svg>
