<svg width="76" height="93" viewBox="0 0 76 93" fill="none" xmlns="http://www.w3.org/2000/svg">
    <path d="M42.1304 42.79C43.3704 42.77 44.4104 43.79 44.4204 45.03C44.4204 46.29 43.4304 47.31 42.1804 47.32C40.9404 47.32 39.9004 46.3 39.9004 45.06C39.9004 43.84 40.9104 42.81 42.1304 42.79Z" fill="white"/>
    <path d="M9.07016 70.28V79.89C9.07016 81.58 10.4402 82.95 12.1302 82.95C13.8202 82.95 15.1902 81.58 15.1902 79.89V75.35L26.0402 81.09C26.8102 81.5 27.7101 81.56 28.5201 81.26C29.3301 80.96 29.9801 80.33 30.3001 79.53L33.5402 71.45H43.3001L51.3701 74.41C51.1801 75.98 50.9202 78.13 50.6702 80.27C50.3902 82.69 50.1702 84.62 50.0302 86.02C49.7102 89.21 49.5702 90.53 51.2902 91.59C51.7802 91.89 52.3401 92.05 52.9001 92.05C53.0901 92.05 53.2902 92.03 53.4802 92C54.6102 91.93 60.0601 91.97 64.8701 92.05C66.5501 92.06 67.9502 90.73 67.9802 89.05C68.0102 87.36 66.6602 85.97 64.9802 85.94C60.9102 85.87 58.1301 85.84 56.2101 85.83C56.5501 82.65 57.1602 77.5 57.7502 72.75C57.9302 71.34 57.1101 69.99 55.7701 69.5L45.8601 65.86L48.9802 54.1H57.9402C59.6302 54.1 61.0002 52.73 61.0002 51.04V31.73H63.1302C64.8202 31.73 66.1902 30.36 66.1902 28.67C66.1902 26.98 64.8202 25.61 63.1302 25.61H57.9402C56.2502 25.61 54.8802 26.98 54.8802 28.67V47.98H50.5901L51.7002 43.8L44.5002 33.36H31.6302H30.0901H24.3701C24.2201 33.36 24.0802 33.44 24.0002 33.57L19.7802 40.4V28.68C19.7802 26.99 18.4102 25.62 16.7202 25.62H11.4702C9.78015 25.62 8.41016 26.99 8.41016 28.68C8.41016 30.37 9.78015 31.74 11.4702 31.74H13.6702V51.05C13.6702 52.74 15.0401 54.11 16.7301 54.11H20.4802L25.3502 71.11C25.4002 71.31 25.5702 71.45 25.7802 71.45H26.9802L25.9202 74.1L13.5901 67.58C12.6401 67.08 11.5002 67.11 10.5802 67.66C9.66015 68.21 9.10016 69.21 9.10016 70.28H9.07016ZM29.4702 34.25L22.8701 43.82L23.9802 48H19.7602V42.07L24.6002 34.25H29.4802H29.4702ZM38.6302 43.38C38.8602 43.13 39.1402 42.92 39.4202 42.74C40.1502 42.28 40.9502 42.08 41.7902 42.03C43.0402 41.96 44.2201 42.2 45.2701 42.99C45.8501 43.43 46.2902 43.99 46.3802 44.77C46.5002 45.77 46.0501 46.51 45.3401 47.08C44.4001 47.84 43.3001 48.08 42.0801 48.12C41.8901 48.1 41.6301 48.09 41.3701 48.06C40.3601 47.92 39.4202 47.58 38.6702 46.81C37.6802 45.81 37.6602 44.42 38.6302 43.39V43.38ZM28.9001 46.8C28.6201 46.53 28.3301 46.26 28.0201 45.96C28.5601 45.65 29.0301 45.37 29.5501 45.07C29.0301 44.77 28.5402 44.49 28.1602 44.26C28.7802 43.59 29.4001 42.92 30.0201 42.25C30.6901 42.63 31.3401 42.99 31.9601 43.37C32.1701 43.5 32.3301 43.48 32.5201 43.36C33.1601 42.98 33.8102 42.62 34.4702 42.23C35.1102 42.9 35.7402 43.55 36.3802 44.21C35.9202 44.48 35.4402 44.76 34.9202 45.06C35.4402 45.36 35.9102 45.64 36.3502 45.89C35.7102 46.56 35.0901 47.22 34.4601 47.88C33.7701 47.49 33.1102 47.11 32.4502 46.72C32.3002 46.63 32.1801 46.62 32.0201 46.72C31.4201 47.08 30.8101 47.41 30.2101 47.77C30.0501 47.87 29.9601 47.85 29.8301 47.72C29.5301 47.4 29.2101 47.1 28.9001 46.79V46.8ZM27.3001 70.58H26.1002L21.3601 54.12H25.6002L28.9001 66.59L27.3001 70.58Z" fill="white"/>
    <path d="M0.450333 25.6L75.3203 25.6V0.460037L0.450333 0.460037V25.6Z" fill="white"/>
</svg>
