<svg width="150" height="48" viewBox="0 0 150 48" xmlns="http://www.w3.org/2000/svg">
    <path d="M112.01 12.1202H103.26C103.08 12.1202 102.93 11.9702 102.93 11.7902V10.7802C102.93 10.6002 103.08 10.4502 103.26 10.4502H112.01C112.19 10.4502 112.34 10.6002 112.34 10.7802V11.7902C112.34 11.9702 112.19 12.1202 112.01 12.1202Z" fill="black"/>
    <path d="M141.22 26.1805H128.88C128.7 26.1805 128.55 26.0305 128.55 25.8505V24.8905C128.55 24.7105 128.7 24.5605 128.88 24.5605H141.22C141.4 24.5605 141.55 24.7105 141.55 24.8905V25.8505C141.55 26.0305 141.4 26.1805 141.22 26.1805Z" fill="black"/>
    <path d="M111.65 15.6705H103.62C103.44 15.6705 103.29 15.5205 103.29 15.3405V14.3305C103.29 14.1505 103.44 14.0005 103.62 14.0005H111.65C111.83 14.0005 111.98 14.1505 111.98 14.3305V15.3405C111.98 15.5205 111.83 15.6705 111.65 15.6705Z" fill="black"/>
    <path d="M125.67 11.1705V12.4405C125.67 12.6205 125.52 12.7705 125.34 12.7705H122.02C121.84 12.7705 121.69 12.9205 121.69 13.1005V26.2005C121.69 26.3805 121.54 26.5305 121.36 26.5305H117.88C117.7 26.5305 117.55 26.3805 117.55 26.2005V13.1005C117.55 12.9205 117.4 12.7705 117.22 12.7705H113.89C113.71 12.7705 113.56 12.6205 113.56 12.4405V11.1705C113.56 10.9905 113.71 10.8405 113.89 10.8405H117.22C117.4 10.8405 117.55 10.6905 117.55 10.5105V4.83049C117.55 4.65049 117.7 4.50049 117.88 4.50049H121.36C121.54 4.50049 121.69 4.65049 121.69 4.83049V10.5105C121.69 10.6905 121.84 10.8405 122.02 10.8405H125.34C125.52 10.8405 125.67 10.9905 125.67 11.1705Z" fill="black"/>
    <path d="M102.73 17.8603V26.1703C102.73 26.3503 102.88 26.5003 103.06 26.5003H112.83C113.01 26.5003 113.16 26.3503 113.16 26.1703V17.8603C113.16 17.6803 113.01 17.5303 112.83 17.5303H103.06C102.88 17.5303 102.73 17.6803 102.73 17.8603ZM108.98 24.8303H106.92C106.74 24.8303 106.59 24.6803 106.59 24.5003V19.5303C106.59 19.3503 106.74 19.2003 106.92 19.2003H108.98C109.16 19.2003 109.31 19.3503 109.31 19.5303V24.5003C109.31 24.6803 109.16 24.8303 108.98 24.8303Z" fill="black"/>
    <path d="M145.59 6.85051V21.6405C145.59 21.8205 145.44 21.9705 145.26 21.9705H143.59C143.41 21.9705 143.26 21.8205 143.26 21.6405V6.85051C143.26 6.67051 143.41 6.52051 143.59 6.52051H145.26C145.44 6.52051 145.59 6.67051 145.59 6.85051Z" fill="black"/>
    <path d="M130.03 17.8603V23.0303C130.03 23.2103 130.18 23.3603 130.36 23.3603H140.2C140.38 23.3603 140.53 23.2103 140.53 23.0303V17.8603C140.53 17.6803 140.38 17.5303 140.2 17.5303H130.36C130.18 17.5303 130.03 17.6803 130.03 17.8603ZM133.61 22.1303H133.05C132.87 22.1303 132.72 21.9803 132.72 21.8003V21.4403C132.72 21.2603 132.87 21.1103 133.05 21.1103H133.61C133.79 21.1103 133.94 21.2603 133.94 21.4403V21.8003C133.94 21.9803 133.79 22.1303 133.61 22.1303ZM133.61 19.8703H133.05C132.87 19.8703 132.72 19.7203 132.72 19.5403V19.0903C132.72 18.9103 132.87 18.7603 133.05 18.7603H133.61C133.79 18.7603 133.94 18.9103 133.94 19.0903V19.5403C133.94 19.7203 133.79 19.8703 133.61 19.8703ZM137.51 22.1303H136.95C136.77 22.1303 136.62 21.9803 136.62 21.8003V21.4403C136.62 21.2603 136.77 21.1103 136.95 21.1103H137.51C137.69 21.1103 137.84 21.2603 137.84 21.4403V21.8003C137.84 21.9803 137.69 22.1303 137.51 22.1303ZM137.51 19.8703H136.95C136.77 19.8703 136.62 19.7203 136.62 19.5403V19.0903C136.62 18.9103 136.77 18.7603 136.95 18.7603H137.51C137.69 18.7603 137.84 18.9103 137.84 19.0903V19.5403C137.84 19.7203 137.69 19.8703 137.51 19.8703Z" fill="black"/>
    <path d="M140.53 11.4804V9.69039C140.53 9.51039 140.68 9.36039 140.86 9.36039H141.49C141.67 9.36039 141.82 9.21039 141.82 9.03039V8.06039C141.82 7.88039 141.67 7.73039 141.49 7.73039H140.86C140.68 7.73039 140.53 7.58039 140.53 7.40039V5.61039C140.53 5.43039 140.38 5.28039 140.2 5.28039H136.74C136.56 5.28039 136.41 5.13039 136.41 4.95039V4.48039C136.41 4.30039 136.26 4.15039 136.08 4.15039H133.8C133.62 4.15039 133.47 4.30039 133.47 4.48039V4.95039C133.47 5.13039 133.32 5.28039 133.14 5.28039H130.35C130.17 5.28039 130.02 5.43039 130.02 5.61039V6.19039C130.02 6.37039 130.17 6.52039 130.35 6.52039H133.14C133.32 6.52039 133.47 6.67039 133.47 6.85039V7.41039C133.47 7.59039 133.32 7.74039 133.14 7.74039H128.58C128.4 7.74039 128.25 7.89039 128.25 8.07039V9.04039C128.25 9.22039 128.4 9.37039 128.58 9.37039H133.14C133.32 9.37039 133.47 9.52039 133.47 9.70039V10.2604C133.47 10.4404 133.32 10.5904 133.14 10.5904H130.35C130.17 10.5904 130.02 10.7404 130.02 10.9204V11.4904C130.02 11.6704 130.17 11.8204 130.35 11.8204H133.14C133.32 11.8204 133.47 11.9704 133.47 12.1504V12.3204C133.47 12.5004 133.32 12.6504 133.14 12.6504H130.35C130.17 12.6504 130.02 12.8004 130.02 12.9804V13.9404C130.02 14.1204 130.17 14.2704 130.35 14.2704H133.14C133.32 14.2704 133.47 14.4204 133.47 14.6004V14.6404C133.47 14.8204 133.32 14.9704 133.14 14.9704H128.95C128.77 14.9704 128.62 15.1204 128.62 15.3004V16.2704C128.62 16.4504 128.77 16.6004 128.95 16.6004H140.92C141.1 16.6004 141.25 16.4504 141.25 16.2704V15.3004C141.25 15.1204 141.1 14.9704 140.92 14.9704H136.73C136.55 14.9704 136.4 14.8204 136.4 14.6404V14.6004C136.4 14.4204 136.55 14.2704 136.73 14.2704H140.34C140.52 14.2704 140.67 14.1204 140.67 13.9404V12.9804C140.67 12.8004 140.52 12.6504 140.34 12.6504H136.73C136.55 12.6504 136.4 12.5004 136.4 12.3204V12.1504C136.4 11.9704 136.55 11.8204 136.73 11.8204H140.19C140.37 11.8204 140.52 11.6704 140.52 11.4904M136.74 6.52039H137.26C137.44 6.52039 137.59 6.67039 137.59 6.85039V7.41039C137.59 7.59039 137.44 7.74039 137.26 7.74039H136.74C136.56 7.74039 136.41 7.59039 136.41 7.41039V6.85039C136.41 6.67039 136.56 6.52039 136.74 6.52039ZM136.74 9.36039H137.26C137.44 9.36039 137.59 9.51039 137.59 9.69039V10.2504C137.59 10.4304 137.44 10.5804 137.26 10.5804H136.74C136.56 10.5804 136.41 10.4304 136.41 10.2504V9.69039C136.41 9.51039 136.56 9.36039 136.74 9.36039Z" fill="black"/>
    <path d="M73.2496 7.91029V9.18029C73.2496 9.36029 73.0996 9.51029 72.9196 9.51029H58.3096C58.1296 9.51029 57.9796 9.66029 57.9796 9.84029V22.2103C57.9796 23.3303 58.8396 24.2303 59.8996 24.2303H72.0696C72.2496 24.2303 72.3996 24.3803 72.3996 24.5603V25.8303C72.3996 26.0103 72.2496 26.1603 72.0696 26.1603H57.5896C57.3396 26.1603 57.0896 26.1303 56.8496 26.0903C55.1596 25.7503 53.8896 24.2603 53.8896 22.4703V9.84029C53.8896 9.66029 53.7396 9.51029 53.5596 9.51029H50.3696V7.58029H61.3896C61.6396 7.58029 61.7996 7.31029 61.6796 7.09029L60.6696 5.29029C60.5496 5.07029 60.6996 4.80029 60.9596 4.80029H64.6996C64.8196 4.80029 64.9296 4.86029 64.9796 4.97029L66.3596 7.42029C66.4196 7.52029 66.5296 7.59029 66.6496 7.59029H72.9296C73.1096 7.59029 73.2596 7.74029 73.2596 7.92029" fill="black"/>
    <path d="M113.39 7.26053V8.53053C113.39 8.71053 113.24 8.86053 113.06 8.86053H102.37C102.19 8.86053 102.04 8.71053 102.04 8.53053V7.26053C102.04 7.08053 102.19 6.93053 102.37 6.93053H105.37C105.61 6.93053 105.77 6.68053 105.67 6.46053L105.1 5.26053C105 5.04053 105.16 4.79053 105.4 4.79053H109.17C109.3 4.79053 109.41 4.86053 109.47 4.98053L110.31 6.74053C110.36 6.86053 110.48 6.93053 110.61 6.93053H113.07C113.25 6.93053 113.4 7.08053 113.4 7.26053" fill="black"/>
    <path d="M149.67 4.16039C149.85 4.16039 150 4.31039 150 4.49039V22.4804C150 23.2504 149.77 23.9604 149.37 24.5504C148.79 25.4104 147.84 26.0204 146.76 26.1504C146.61 26.1704 146.46 26.1804 146.31 26.1804H142.82C142.64 26.1804 142.49 26.0304 142.49 25.8504V24.8804C142.49 24.7004 142.64 24.5504 142.82 24.5504H144.84C145.9 24.5504 146.76 23.6504 146.76 22.5304V4.48039C146.76 4.30039 146.91 4.15039 147.09 4.15039H149.68L149.67 4.16039Z" fill="black"/>
    <path d="M98.6597 6.73023C98.7797 6.59023 98.7597 6.37023 98.6097 6.25023L97.6497 5.51023C97.5197 5.41023 97.3297 5.42023 97.2097 5.55023C95.3997 7.47023 93.3697 9.06023 91.2897 10.3702C91.2397 10.4002 91.1797 10.4202 91.1097 10.4202H88.6797C88.4997 10.4202 88.3497 10.2702 88.3497 10.0902V8.08023C88.3497 7.90023 88.4997 7.75023 88.6797 7.75023H94.1397C94.3197 7.75023 94.4697 7.60023 94.4697 7.42023V6.15023C94.4697 5.97023 94.3197 5.82023 94.1397 5.82023H88.6797C88.4997 5.82023 88.3497 5.67023 88.3497 5.49023V4.82023C88.3497 4.64023 88.1997 4.49023 88.0197 4.49023H84.5397C84.3597 4.49023 84.2097 4.64023 84.2097 4.82023V5.49023C84.2097 5.67023 84.0597 5.82023 83.8797 5.82023H77.4297C77.2497 5.82023 77.0997 5.97023 77.0997 6.15023V7.42023C77.0997 7.60023 77.2497 7.75023 77.4297 7.75023H83.8797C84.0597 7.75023 84.2097 7.90023 84.2097 8.08023V10.0902C84.2097 10.2702 84.0597 10.4202 83.8797 10.4202H76.5997C76.4197 10.4202 76.2697 10.5702 76.2697 10.7502V12.0202C76.2697 12.2002 76.4197 12.3502 76.5997 12.3502H86.1897C86.5497 12.3502 86.6497 12.8402 86.3197 12.9802C83.8597 14.0502 81.5197 14.7902 79.5597 15.3002C79.3297 15.3602 79.0997 15.4202 78.8897 15.4702C76.8897 15.9502 75.3697 16.1802 74.6697 16.2702C74.4497 16.3002 74.3197 16.5202 74.4097 16.7202L74.8297 17.7402L75.6497 19.7302L75.8297 20.1702C75.8897 20.3202 76.0597 20.4102 76.2197 20.3602C76.4097 20.3102 76.6897 20.2302 77.0497 20.1202C77.2997 20.0402 77.5897 19.9502 77.9097 19.8502C78.0797 19.7902 78.2597 19.7302 78.4497 19.6702C78.6597 19.6002 78.8897 19.7502 78.8897 19.9802V26.1902C78.8897 26.3702 79.0397 26.5202 79.2197 26.5202H97.2397C97.4197 26.5202 97.5697 26.3702 97.5697 26.1902V15.6302C97.5697 15.4502 97.4197 15.3002 97.2397 15.3002H89.2597C88.9297 15.3002 88.7997 14.8602 89.0897 14.6902C90.2097 14.0002 91.3497 13.2502 92.4797 12.4102C92.5397 12.3702 92.5997 12.3502 92.6697 12.3502H98.0097C98.1897 12.3502 98.3397 12.2002 98.3397 12.0202V10.7502C98.3397 10.5702 98.1897 10.4202 98.0097 10.4202H95.8297C95.5297 10.4202 95.3897 10.0502 95.6097 9.85023C96.6697 8.89024 97.6997 7.85023 98.6597 6.73023ZM93.2997 24.2702C93.2997 24.4502 93.1497 24.6002 92.9697 24.6002H83.3597C83.1797 24.6002 83.0297 24.4502 83.0297 24.2702V21.6202C83.0297 21.4402 83.1797 21.2902 83.3597 21.2902H92.9697C93.1497 21.2902 93.2997 21.4402 93.2997 21.6202V24.2702ZM92.9697 17.2402C93.1497 17.2402 93.2997 17.3902 93.2997 17.5702V19.0302C93.2997 19.2102 93.1497 19.3602 92.9697 19.3602H83.3597C83.1797 19.3602 83.0297 19.2102 83.0297 19.0302V18.0902C83.0297 17.9602 83.1097 17.8402 83.2197 17.7902C83.5897 17.6202 83.9597 17.4502 84.3397 17.2702C84.3797 17.2502 84.4297 17.2402 84.4797 17.2402H92.9597H92.9697Z" fill="black"/>
    <path d="M105.8 34.4004C105.75 34.4004 105.7 34.4004 105.65 34.4004C105.67 34.4004 105.68 34.4004 105.7 34.4004C105.73 34.4004 105.76 34.4004 105.8 34.4104" fill="black"/>
    <path d="M54.8597 36.98C52.9597 36.98 51.4097 37.9 51.4097 39.03V43.7C51.4097 43.95 51.4897 44.19 51.6197 44.41C52.0997 45.19 53.3497 45.74 54.8197 45.75H54.8597C56.3497 45.75 57.6097 45.19 58.0997 44.41C58.2397 44.19 58.3097 43.95 58.3097 43.7V39.03C58.3097 37.9 56.7597 36.98 54.8597 36.98ZM56.7897 43.45C56.7897 44.19 55.9197 44.78 54.8597 44.78H54.8297C53.7697 44.77 52.9197 44.17 52.9197 43.45V39.3C52.9197 38.57 53.7797 37.98 54.8297 37.96H54.8597C55.9297 37.96 56.7897 38.56 56.7897 39.3V43.45Z" fill="black"/>
    <path d="M88.1297 36.98C86.2297 36.98 84.6797 37.9 84.6797 39.03V43.7C84.6797 43.95 84.7597 44.19 84.8897 44.41C85.3697 45.19 86.6197 45.74 88.0897 45.75H88.1297C89.6197 45.75 90.8797 45.19 91.3697 44.41C91.5097 44.19 91.5797 43.95 91.5797 43.7V39.03C91.5797 37.9 90.0297 36.98 88.1297 36.98ZM90.0697 43.45C90.0697 44.19 89.1997 44.78 88.1397 44.78H88.1097C87.0497 44.77 86.1997 44.17 86.1997 43.45V39.3C86.1997 38.57 87.0597 37.98 88.1097 37.96H88.1397C89.2097 37.96 90.0697 38.56 90.0697 39.3V43.45Z" fill="black"/>
    <path d="M70.2397 36.1899V37.6899C70.2397 37.7899 70.3197 37.8799 70.4297 37.8799H72.3297C72.4297 37.8799 72.5197 37.9599 72.5197 38.0699V38.5799C72.5197 38.6799 72.4397 38.7699 72.3297 38.7699H70.4297C70.3297 38.7699 70.2397 38.8499 70.2397 38.9599V45.1599C70.2397 45.2599 70.1597 45.3499 70.0497 45.3499H68.9097C68.8097 45.3499 68.7197 45.2699 68.7197 45.1599V35.3199C68.7197 34.5299 69.3597 33.8999 70.1397 33.8999H72.8897C72.9897 33.8999 73.0797 33.9799 73.0797 34.0899V34.5999C73.0797 34.6999 72.9997 34.7899 72.8897 34.7899H71.6497C70.2397 34.7899 70.2297 35.4299 70.2297 36.2099" fill="black"/>
    <path d="M63.4797 36.1899V37.6899C63.4797 37.7899 63.5597 37.8799 63.6697 37.8799H65.5697C65.6697 37.8799 65.7597 37.9599 65.7597 38.0699V38.5799C65.7597 38.6799 65.6797 38.7699 65.5697 38.7699H63.6697C63.5697 38.7699 63.4797 38.8499 63.4797 38.9599V45.1599C63.4797 45.2599 63.3997 45.3499 63.2897 45.3499H62.1497C62.0497 45.3499 61.9597 45.2699 61.9597 45.1599V35.3199C61.9597 34.5299 62.5997 33.8999 63.3797 33.8999H66.1297C66.2297 33.8999 66.3197 33.9799 66.3197 34.0899V34.5999C66.3197 34.6999 66.2397 34.7899 66.1297 34.7899H64.8897C63.4797 34.7899 63.4697 35.4299 63.4697 36.2099" fill="black"/>
    <path d="M80.9096 33.8801H79.7696C79.6696 33.8801 79.5796 33.9601 79.5796 34.0601V38.1601C79.5796 38.3001 79.4296 38.3901 79.2996 38.3201C78.8796 38.0801 78.3896 37.9201 77.8596 37.8701C77.7996 37.8701 77.7496 37.8701 77.6896 37.8701C77.6396 37.8701 77.5896 37.8701 77.5396 37.8701C76.1096 37.8701 74.8896 38.6901 74.5096 39.8101C74.4296 40.0501 74.3796 40.3001 74.3796 40.5601V42.7601C74.3796 42.8601 74.3796 42.9401 74.3996 43.0401C74.5396 44.2001 75.5296 45.1401 76.8296 45.3901C76.9496 45.4201 77.0696 45.4301 77.1896 45.4401C77.3096 45.4501 77.4196 45.4601 77.5396 45.4601C78.2396 45.4601 78.8996 45.2601 79.4196 44.9301C79.4396 44.9101 79.4596 44.9001 79.4896 44.9001C79.5396 44.9001 79.5796 44.9401 79.5796 44.9901V45.3201H80.9096C81.0096 45.3201 81.0896 45.2401 81.0896 45.1301V34.0501C81.0896 33.9501 81.0096 33.8701 80.9096 33.8701M79.5796 43.1601C79.5796 43.9001 78.7596 44.5101 77.7396 44.5101C76.7196 44.5101 75.8996 43.9101 75.8996 43.1601V40.1801C75.8996 39.4301 76.7296 38.8301 77.7396 38.8301C78.7496 38.8301 79.5696 39.4401 79.5696 40.1801V43.1601H79.5796Z" fill="black"/>
    <path d="M31.3497 0.0302734H11.5697L0.699707 11.2803L10.0097 47.3603H32.8997L42.2097 11.2803L31.3397 0.0302734H31.3497ZM15.0497 28.2603C13.5197 28.2603 12.1197 27.8703 11.0997 27.2303C10.0097 26.5603 9.32971 25.6003 9.32971 24.5403C9.32971 24.0003 9.50971 23.4803 9.83971 23.0103C10.7397 21.7203 12.7397 20.8203 15.0597 20.8203C18.2197 20.8203 20.7897 22.4803 20.7897 24.5403C20.7897 26.6003 18.2197 28.2603 15.0597 28.2603H15.0497ZM34.6497 26.2603L32.7097 28.2003L29.1097 26.0903L25.5097 28.2003L23.5697 26.2603L26.4797 24.5503L23.5697 22.8403L25.5097 20.9003L29.1097 23.0103L32.7097 20.9003L34.6497 22.8403L31.7397 24.5503L34.6497 26.2603ZM9.31971 14.2303V7.99027L18.4597 12.3403L22.1197 4.34027L25.8597 12.3403L34.9197 7.99027V14.2303H9.31971Z" fill="black"/>
    <path d="M15.0498 21.9805C13.6298 21.9805 12.4897 23.1305 12.4897 24.5405C12.4897 25.9505 13.6398 27.1105 15.0498 27.1105C16.4598 27.1105 17.6097 25.9605 17.6097 24.5405C17.6097 23.1205 16.4598 21.9805 15.0498 21.9805Z" fill="black"/>
</svg>
