<svg width="601" height="650" viewBox="0 0 601 650" fill="none" xmlns="http://www.w3.org/2000/svg">
<path d="M191.27 36.749H107.56C103.158 36.749 99.5898 40.3173 99.5898 44.719V550.969C99.5898 555.371 103.158 558.939 107.56 558.939H191.27C195.671 558.939 199.24 555.371 199.24 550.969V44.719C199.24 40.3173 195.671 36.749 191.27 36.749Z" fill="white"/>
<path d="M290.93 36.749H207.22C202.819 36.749 199.25 40.3173 199.25 44.719V550.969C199.25 555.371 202.819 558.939 207.22 558.939H290.93C295.332 558.939 298.9 555.371 298.9 550.969V44.719C298.9 40.3173 295.332 36.749 290.93 36.749Z" fill="#9500FF"/>
<path d="M390.77 36.749H307.06C302.658 36.749 299.09 40.3173 299.09 44.719V550.969C299.09 555.371 302.658 558.939 307.06 558.939H390.77C395.171 558.939 398.74 555.371 398.74 550.969V44.719C398.74 40.3173 395.171 36.749 390.77 36.749Z" fill="white"/>
<path d="M490.42 36.749H406.71C402.309 36.749 398.74 40.3173 398.74 44.719V550.969C398.74 555.371 402.309 558.939 406.71 558.939H490.42C494.822 558.939 498.39 555.371 498.39 550.969V44.719C498.39 40.3173 494.822 36.749 490.42 36.749Z" fill="#9500FF"/>
<path d="M568.44 119.079L501.99 212.069H98.5603L32.0803 119.049L22.9902 128.149L82.9604 212.069H82.9902V615.399H517.56V212.099L577.53 128.179L568.44 119.079ZM300.26 376.529C233.04 376.529 178.54 353.579 178.54 325.259C178.54 296.939 233.03 273.989 300.26 273.989C367.49 273.989 421.98 296.939 421.98 325.259C421.98 353.579 367.49 376.529 300.26 376.529Z" fill="#E0FF00"/>
</svg>
