<svg width="600" height="651" viewBox="0 0 600 651" fill="none" xmlns="http://www.w3.org/2000/svg">
<path d="M66.1897 67.3994H533.84V176.039C533.84 192.079 520.82 205.099 504.78 205.099H95.2397C79.1997 205.099 66.1797 192.079 66.1797 176.039V67.3994H66.1897Z" fill="#E0FF00"/>
<path d="M504.779 205.1H95.2495C79.2001 205.1 66.1895 218.11 66.1895 234.16V313.73C66.1895 329.779 79.2001 342.79 95.2495 342.79H504.779C520.829 342.79 533.839 329.779 533.839 313.73V234.16C533.839 218.11 520.829 205.1 504.779 205.1Z" fill="#E0FF00"/>
<path d="M504.779 342.79H95.2495C79.2001 342.79 66.1895 355.8 66.1895 371.849V451.419C66.1895 467.469 79.2001 480.479 95.2495 480.479H504.779C520.829 480.479 533.839 467.469 533.839 451.419V371.849C533.839 355.8 520.829 342.79 504.779 342.79Z" fill="#E0FF00"/>
<path d="M504.779 480.479H95.2495C79.2001 480.479 66.1895 493.49 66.1895 509.54V589.109C66.1895 605.159 79.2001 618.169 95.2495 618.169H504.779C520.829 618.169 533.839 605.159 533.839 589.109V509.54C533.839 493.49 520.829 480.479 504.779 480.479Z" fill="#9500FF"/>
<path d="M533.839 22.3994H66.1895V67.3994H533.839V22.3994Z" fill="#9500FF"/>
<path d="M66.1897 407.369H533.84V451.429C533.84 467.469 520.82 480.489 504.78 480.489H95.2397C79.1997 480.489 66.1797 467.469 66.1797 451.429V407.369H66.1897Z" fill="#9500FF"/>
<path d="M417.639 141.339H182.369V248.649H417.639V141.339Z" fill="white"/>
<path d="M198.756 211.785H201.055L203.482 217.707H203.585L206.012 211.785H208.311V220.6H206.503V214.863H206.43L204.149 220.557H202.918L200.637 214.841H200.564V220.6H198.756V211.785ZM211.71 211.785V220.6H209.846V211.785H211.71ZM213.243 220.6V211.785H215.106V219.063H218.885V220.6H213.243ZM220.119 220.6V211.785H221.983V215.672H222.099L225.271 211.785H227.504L224.234 215.732L227.543 220.6H225.314L222.899 216.976L221.983 218.095V220.6H220.119Z" fill="#9500FF"/>
<path d="M417.639 141.339H182.369V248.649H417.639V141.339Z" stroke="#9500FF" stroke-width="7.71" stroke-miterlimit="10"/>
<path d="M455.399 462.79V462.799L455.379 462.79H455.399Z" fill="#E0FF00"/>
<path d="M491.199 482.049C488.069 480.009 484.619 479.479 482.549 480.559L455.399 462.809H455.379L296.049 462.799V454.669L307.739 450.279C303.849 445.539 297.329 443.789 291.589 445.939C289.759 446.629 288.129 447.659 286.769 448.949L280.709 424.859C280.429 423.749 278.849 423.749 278.579 424.859L272.139 450.389H266.229L259.879 425.139C259.599 424.029 258.029 424.029 257.749 425.139L251.939 448.239C250.299 445.819 247.939 443.889 245.079 442.819C239.339 440.669 232.819 442.419 228.939 447.159L242.909 452.409L209.029 469.299V499.049H263.639V548.689L263.019 599.369H267.919L289.529 560.289L299.369 599.369H303.929L314.359 557.899H404.599L415.029 599.369H419.579L429.419 560.269L451.039 599.369H455.939L455.369 552.939V466.769L480.699 483.309C480.549 485.619 482.419 488.569 485.559 490.629C489.499 493.199 493.959 493.369 495.499 490.989C497.049 488.619 495.109 484.609 491.169 482.029L491.199 482.049Z" fill="white"/>
<path d="M418.95 528.239C433.652 528.239 445.57 520.834 445.57 511.699C445.57 502.564 433.652 495.159 418.95 495.159C404.248 495.159 392.33 502.564 392.33 511.699C392.33 520.834 404.248 528.239 418.95 528.239Z" fill="#9500FF"/>
<path d="M393.099 462.79C396.919 466.27 399.159 470.47 399.159 475C399.159 486.97 383.539 496.679 364.269 496.679C344.999 496.679 329.379 486.97 329.379 475C329.379 470.47 331.619 466.26 335.439 462.79" fill="#9500FF"/>
<path d="M292.139 539.88C301.224 539.88 308.589 535.304 308.589 529.66C308.589 524.015 301.224 519.439 292.139 519.439C283.054 519.439 275.689 524.015 275.689 529.66C275.689 535.304 283.054 539.88 292.139 539.88Z" fill="#9500FF"/>
</svg>
