<?xml version="1.0" encoding="UTF-8"?>
<svg xmlns="http://www.w3.org/2000/svg" version="1.1" viewBox="0 0 979.13 863.6">
  <defs>
    <style>
      .cls-1, .cls-2, .cls-3, .cls-4 {
        stroke-width: 0px;
      }

      .cls-1, .cls-5 {
        fill: none;
      }

      .cls-2, .cls-6 {
        fill: #9500ff;
      }

      .cls-5 {
        stroke: #9500ff;
        stroke-miterlimit: 10;
        stroke-width: 7.71px;
      }

      .cls-3 {
        fill: #e0ff00;
      }

      .cls-4 {
        fill: #fff;
      }

      .cls-6 {
        font-family: SourceHanSansTW-Bold-B5pc-H, 'Source Han Sans TW';
        font-size: 73.08px;
        font-weight: 700;
        letter-spacing: .09em;
      }
    </style>
  </defs>
  <g id="_圖層_5" data-name="圖層 5">
    <g>
      <rect class="cls-2" x="261.57" y="126.99" width="467.65" height="45"/>
      <rect class="cls-1" y="0" width="979.13" height="863.6"/>
    </g>
  </g>
  <g id="_圖層_4" data-name="圖層 4">
    <g>
      <g>
        <path class="cls-3" d="M729.22,280.62v-108.64h-467.65v108.64c0,15.98,13.08,29.06,29.06,29.06-15.98,0-29.06,13.08-29.06,29.06v79.58c0,15.98,13.08,29.06,29.06,29.06-15.98,0-29.06,13.08-29.06,29.06v79.58c0,15.98,13.08,29.06,29.06,29.06h409.54c15.98,0,29.06-13.08,29.06-29.06v-79.58c0-15.98-13.08-29.06-29.06-29.06,15.98,0,29.06-13.08,29.06-29.06v-79.58c0-15.98-13.08-29.06-29.06-29.06,15.98,0,29.06-13.08,29.06-29.06Z"/>
        <path class="cls-2" d="M729.22,556.01v-44.06h-467.65v44.06c0,15.98,13.08,29.06,29.06,29.06-15.98,0-29.06,13.08-29.06,29.06v79.58c0,15.98,13.08,29.06,29.06,29.06h409.54c15.98,0,29.06-13.08,29.06-29.06v-79.58c0-15.98-13.08-29.06-29.06-29.06,15.98,0,29.06-13.08,29.06-29.06Z"/>
        <rect class="cls-4" x="377.76" y="245.92" width="235.27" height="107.31"/>
        <text class="cls-6" transform="translate(393.38 325.19) scale(1.02 1)"><tspan x="0" y="0">MILK</tspan></text>
        <rect class="cls-5" x="377.76" y="245.92" width="235.27" height="107.31"/>
        <g>
          <polygon class="cls-3" points="650.79 567.38 650.79 567.39 650.77 567.38 650.79 567.38"/>
          <path class="cls-4" d="M686.59,586.63c-3.13-2.04-6.58-2.57-8.65-1.49l-27.15-17.75h-.02s-159.33-.01-159.33-.01v-8.13l11.69-4.39c-3.89-4.74-10.41-6.49-16.15-4.34-1.83.69-3.46,1.72-4.82,3.01l-6.06-24.09c-.28-1.11-1.86-1.11-2.13,0l-6.44,25.53h-5.91l-6.35-25.25c-.28-1.11-1.85-1.11-2.13,0l-5.81,23.1c-1.64-2.42-4-4.35-6.86-5.42-5.74-2.15-12.26-.4-16.14,4.34l13.97,5.25-33.88,16.89v29.75h54.61v49.64l-.62,50.68h4.9l21.61-39.08,9.84,39.08h4.56l10.43-41.47h90.24l10.43,41.47h4.55l9.84-39.1,21.62,39.1h4.9l-.57-46.43v-86.17l25.33,16.54c-.15,2.31,1.72,5.26,4.86,7.32,3.94,2.57,8.4,2.74,9.94.36,1.55-2.37-.39-6.38-4.33-8.96Z"/>
          <ellipse class="cls-2" cx="614.34" cy="616.28" rx="26.62" ry="16.54"/>
          <path class="cls-2" d="M588.49,567.38c3.82,3.48,6.06,7.68,6.06,12.21,0,11.97-15.62,21.68-34.89,21.68s-34.89-9.71-34.89-21.68c0-4.53,2.24-8.74,6.06-12.21"/>
          <ellipse class="cls-2" cx="487.52" cy="634.24" rx="16.45" ry="10.22"/>
        </g>
      </g>
      <rect class="cls-1" y="0" width="979.13" height="863.6"/>
    </g>
  </g>
</svg>