<svg width="602" height="651" viewBox="0 0 602 651" fill="none" xmlns="http://www.w3.org/2000/svg">
<path d="M201.589 325.309H94.8694L16.8794 440.239V523.359L6.60938 539.779L25.0894 564.409H595.249V508.899H574.029V421.729L475.869 311.639H211.929V510.319H201.549L201.589 325.309Z" fill="#E0FF00"/>
<path d="M439.93 617.749C468.93 617.749 492.44 594.239 492.44 565.239C492.44 536.239 468.93 512.729 439.93 512.729C410.929 512.729 387.42 536.239 387.42 565.239C387.42 594.239 410.929 617.749 439.93 617.749Z" fill="#9500FF"/>
<path d="M439.93 579.669C447.899 579.669 454.36 573.209 454.36 565.239C454.36 557.27 447.899 550.809 439.93 550.809C431.961 550.809 425.5 557.27 425.5 565.239C425.5 573.209 431.961 579.669 439.93 579.669Z" fill="#E0FF00"/>
<path d="M157.36 616.919C186.36 616.919 209.87 593.41 209.87 564.409C209.87 535.409 186.36 511.899 157.36 511.899C128.359 511.899 104.85 535.409 104.85 564.409C104.85 593.41 128.359 616.919 157.36 616.919Z" fill="#9500FF"/>
<path d="M157.36 578.839C165.329 578.839 171.79 572.379 171.79 564.41C171.79 556.44 165.329 549.979 157.36 549.979C149.39 549.979 142.93 556.44 142.93 564.41C142.93 572.379 149.39 578.839 157.36 578.839Z" fill="#E0FF00"/>
<path d="M94.77 342.199L28 440.609H94.77V342.199Z" fill="white"/>
<path d="M16.8787 523.849H40.3086L40.3086 487.789H16.8787L16.8787 523.849Z" fill="#9500FF"/>
</svg>
