<?xml version="1.0" encoding="UTF-8"?>
<svg xmlns="http://www.w3.org/2000/svg" version="1.1" viewBox="0 0 979.13 863.6">
  <defs>
    <style>
      .cls-1 {
        fill: none;
      }

      .cls-1, .cls-2, .cls-3, .cls-4, .cls-5 {
        stroke-width: 0px;
      }

      .cls-2 {
        fill: #9600ff;
      }

      .cls-3 {
        fill: #a35efc;
      }

      .cls-4 {
        fill: #e0ff00;
      }

      .cls-5 {
        fill: #fff;
      }
    </style>
  </defs>
  <g id="_圖層_3" data-name="圖層 3">
    <g>
      <g>
        <path class="cls-3" d="M290.12,212.17c86.85,71.1,139.32,245.94-100.61,543.47l286-.56s129.78-407.8-36.91-597.72l-148.48,54.8Z"/>
        <g>
          <ellipse class="cls-4" cx="284.24" cy="212.17" rx="48.27" ry="54.8"/>
          <path class="cls-4" d="M235.96,212.17s-4.03-72.18,82.81-90.61c94.69-20.1,211.54,65.03,204.85,305.85,0,0-55.09-311.41-192.57-226.66"/>
        </g>
      </g>
      <rect class="cls-1" width="979.13" height="863.6"/>
    </g>
  </g>
  <g id="_圖層_4" data-name="圖層 4">
    <g>
      <g>
        <path class="cls-2" d="M676.61,755.49c66-144.39,65.04-428.54-58.98-566.06h-124.21l-30.73,95.32c51.14,54.15,42.32,236.49-146.25,470.74"/>
        <g>
          <ellipse class="cls-5" cx="431" cy="255.69" rx="58.36" ry="66.26"/>
          <path class="cls-5" d="M372.64,255.69s-4.87-87.27,100.12-109.56c114.48-24.31,255.5,77.36,247.41,368.52,0,0-5.85-376.29-232.57-272.77"/>
        </g>
      </g>
      <rect class="cls-1" width="979.13" height="863.6"/>
    </g>
  </g>
  <g id="_圖層_5" data-name="圖層 5">
    <g>
      <g>
        <path class="cls-3" d="M657.73,440.43c45.3,13,47.35,186.89-89.04,315.21l173.96-.46s110.01-239.11-9.09-347.88c-7.76-7.09,0,0,0,0l-76.28,5.34,2.15,28.83"/>
        <g>
          <ellipse class="cls-4" cx="633.77" cy="423.58" rx="30.11" ry="34.19"/>
          <path class="cls-4" d="M607.61,406.7s11.34-33.35,62.03-27.9c50.69,5.44,152.75,61.44,109.6,261.32,0,0,31.05-247.12-115.36-216.53"/>
        </g>
      </g>
      <rect class="cls-1" width="979.13" height="863.6"/>
    </g>
  </g>
</svg>