<svg width="601" height="651" viewBox="0 0 601 651" fill="none" xmlns="http://www.w3.org/2000/svg">
<path d="M102.178 106.629C189.028 177.729 241.498 352.569 1.56836 650.099L287.568 649.539C287.568 649.539 413.178 232.049 250.658 51.8188L102.178 106.619V106.629Z" fill="#A35EFC"/>
<path d="M96.2992 161.429C122.958 161.429 144.569 136.894 144.569 106.629C144.569 76.3639 122.958 51.8291 96.2992 51.8291C69.6404 51.8291 48.0293 76.3639 48.0293 106.629C48.0293 136.894 69.6404 161.429 96.2992 161.429Z" fill="#E0FF00"/>
<path d="M48.0291 106.629C48.0291 106.629 43.999 34.4491 130.839 16.0191C225.529 -4.08091 342.379 81.0491 335.689 321.869C335.689 321.869 280.599 10.459 143.119 95.209" fill="#E0FF00"/>
<path d="M492.299 650.099C518.209 504.179 557.339 221.559 433.319 84.0391H309.109L278.379 179.359C329.519 233.509 320.699 415.849 132.129 650.099" fill="#9600FF"/>
<path d="M246.688 216.559C278.919 216.559 305.048 186.893 305.048 150.299C305.048 113.705 278.919 84.0391 246.688 84.0391C214.457 84.0391 188.328 113.705 188.328 150.299C188.328 186.893 214.457 216.559 246.688 216.559Z" fill="white"/>
<path d="M188.328 150.299C188.328 150.299 183.458 63.0291 288.448 40.7391C402.928 16.4291 544.208 119.359 536.128 410.529C536.128 410.529 530.018 32.9691 303.298 136.489" fill="white"/>
<path d="M458.749 334.889C504.049 347.889 506.099 521.779 369.709 650.099L543.669 649.639C543.669 649.639 653.679 410.529 534.579 301.759L458.299 307.099L460.449 335.929" fill="#A35EFC"/>
<path d="M434.79 352.229C451.419 352.229 464.9 336.922 464.9 318.039C464.9 299.157 451.419 283.849 434.79 283.849C418.16 283.849 404.68 299.157 404.68 318.039C404.68 336.922 418.16 352.229 434.79 352.229Z" fill="#E0FF00"/>
<path d="M408.619 301.159C408.619 301.159 419.959 267.809 470.649 273.259C521.339 278.699 623.399 334.699 580.249 534.579C580.249 534.579 611.299 287.459 464.889 318.049" fill="#E0FF00"/>
</svg>
