<svg width="242" height="582" viewBox="0 0 242 582" fill="none" xmlns="http://www.w3.org/2000/svg">
    <path d="M230.575 55.6899C227.015 57.0299 223.755 58.63 220.775 60.45C210.885 66.45 204.075 74.77 199.395 83.29C189.515 101.25 189.075 120.08 189.075 120.08H52.8652C52.8652 120.08 52.8352 118.92 52.6452 116.89C52.0452 110.62 49.8652 96.07 41.9752 82.27C37.3252 74.11 30.6752 66.2199 21.1752 60.4399C18.1952 58.6299 14.9352 57.0299 11.3652 55.6899C14.4952 53.9899 17.8352 52.5701 21.3052 51.4301C27.8852 49.2501 34.9452 48.08 41.9752 47.96C45.5652 47.88 49.1452 48.0899 52.6452 48.5699C59.2952 49.4699 65.6752 51.36 71.3252 54.27C75.2952 56.31 78.9052 58.85 81.9952 61.9C82.0752 61.97 82.1452 62.04 82.2152 62.11C82.6552 50.89 91.5452 39.6201 100.675 30.9301C104.375 27.4101 108.115 24.3099 111.345 21.8099C112.435 20.9699 113.465 20.2 114.415 19.5C118.215 16.71 120.775 15.1 120.775 15.1C120.775 15.1 123.445 16.76 127.375 19.62C128.205 20.23 129.095 20.89 130.025 21.6C133.235 24.05 136.975 27.0899 140.695 30.5699C150.055 39.2999 159.275 50.73 159.725 62.11H159.735V62.1C162.825 59.01 166.435 56.44 170.405 54.38C175.945 51.49 182.195 49.59 188.715 48.65C192.215 48.14 195.805 47.9 199.395 47.95C206.615 48.02 213.875 49.1901 220.645 51.4301C224.115 52.5701 227.445 53.9899 230.575 55.6899Z" fill="#E0FF00"/>
    <path d="M131.825 10.86C131.825 13.04 131.175 15.08 130.065 16.78C130.055 16.8 130.035 16.82 130.025 16.84C129.315 17.92 128.415 18.86 127.375 19.62C125.585 20.93 123.365 21.71 120.965 21.71C118.505 21.71 116.235 20.89 114.415 19.5C111.805 17.53 110.115 14.39 110.115 10.86C110.115 4.85999 114.975 0 120.965 0C126.965 0 131.825 4.85999 131.825 10.86Z" fill="#9600FF"/>
    <path d="M11.3561 66.66C17.3539 66.66 22.2161 61.7979 22.2161 55.8C22.2161 49.8022 17.3539 44.9399 11.3561 44.9399C5.35827 44.9399 0.496094 49.8022 0.496094 55.8C0.496094 61.7979 5.35827 66.66 11.3561 66.66Z" fill="#9600FF"/>
    <path d="M230.577 66.66C236.575 66.66 241.437 61.7979 241.437 55.8C241.437 49.8022 236.575 44.9399 230.577 44.9399C224.579 44.9399 219.717 49.8022 219.717 55.8C219.717 61.7979 224.579 66.66 230.577 66.66Z" fill="#9600FF"/>
    <path d="M118.986 201.22C126.331 201.22 132.286 195.265 132.286 187.92C132.286 180.575 126.331 174.62 118.986 174.62C111.64 174.62 105.686 180.575 105.686 187.92C105.686 195.265 111.64 201.22 118.986 201.22Z" fill="#E0FF00"/>
    <path d="M111.346 21.8099V120.08H100.676V30.9301C104.376 27.4101 108.116 24.3099 111.346 21.8099Z" fill="#9600FF"/>
    <path d="M81.9962 61.9V120.08H71.3262V54.27C75.2962 56.31 78.9062 58.85 81.9962 61.9Z" fill="#9600FF"/>
    <path d="M52.6465 48.57V116.89C52.0465 110.62 49.8666 96.07 41.9766 82.27V47.96C45.5666 47.88 49.1465 48.09 52.6465 48.57Z" fill="#9600FF"/>
    <path d="M199.397 47.95V83.29C189.517 101.25 189.077 120.08 189.077 120.08H188.717V48.65C192.217 48.14 195.807 47.9 199.397 47.95Z" fill="#9600FF"/>
    <path d="M170.406 54.38V120.08H159.736V62.1C162.826 59.01 166.436 56.44 170.406 54.38Z" fill="#9600FF"/>
    <path d="M130.065 16.78C130.055 16.8 130.035 16.82 130.025 16.84V16.78H130.065Z" fill="#9600FF"/>
    <path d="M140.695 30.5699V120.08H130.025V21.6C133.235 24.05 136.975 27.0899 140.695 30.5699Z" fill="#9600FF"/>
    <path d="M107.955 541.8V581.17C107.955 581.17 62.095 581.17 39.165 581.17C16.235 581.17 -1.42498 556.4 18.225 536.76C18.225 536.76 22.685 563.82 67.295 542.72" fill="#9600FF"/>
    <path d="M132.166 541.8V581.17C132.166 581.17 178.026 581.17 200.956 581.17C223.886 581.17 241.546 556.4 221.896 536.76C221.896 536.76 217.436 563.82 172.826 542.72" fill="#9600FF"/>
    <path d="M191.925 371.88C188.265 372.65 184.435 372.73 180.755 372.41C174.725 371.9 169.105 370.35 165.345 369.08C162.415 368.1 160.615 367.3 160.615 367.3L158.925 358.16L155.105 337.49L147.835 338.58C147.835 338.58 147.825 338.57 147.815 338.55C147.795 338.52 147.775 338.49 147.755 338.46C147.625 338.25 147.495 338.06 147.355 337.87C146.545 336.7 144.735 334.32 142.325 332.44C138.775 329.85 135.165 329.35 132.595 330.41C130.825 331.21 129.855 332.56 129.366 333.97C128.776 335.83 128.945 337.91 129.075 339.33H129.065C129.015 339.35 127.225 339.93 125.075 341.09C124.485 341.41 123.866 341.77 123.246 342.18C122.596 342.64 122.035 343.06 121.645 343.35C121.255 343.06 120.695 342.64 120.045 342.18C117.185 340.3 114.285 339.35 114.225 339.33C114.215 339.33 114.215 339.33 114.215 339.33C114.345 337.91 114.515 335.83 113.925 333.97C113.925 333.96 113.925 333.96 113.915 333.95C113.425 332.55 112.455 331.21 110.695 330.41C108.125 329.35 104.515 329.85 100.965 332.44C98.5455 334.32 96.7455 336.7 95.9255 337.87C95.7755 338.09 95.6255 338.31 95.4755 338.55C95.4655 338.57 95.4555 338.58 95.4555 338.58C95.4555 338.58 95.4555 338.58 95.4455 338.58L92.9354 338.2L88.1854 337.49L82.6755 367.3C82.6755 367.3 82.3555 367.44 81.7655 367.69C80.4955 368.2 77.9455 369.17 74.6555 370.11C70.5655 371.28 65.3254 372.4 59.9354 372.56C56.1754 372.68 52.3355 372.33 48.7655 371.2C36.6255 367.38 27.4855 354.61 34.5255 320.73C38.1055 303.51 43.0055 290.47 48.7655 280.61C52.2155 274.7 55.9654 269.94 59.9354 266.09C66.7554 259.48 74.1955 255.58 81.7655 253.28C85.4755 252.16 89.2154 251.42 92.9354 250.95C100.175 250.01 107.315 250.05 113.915 250.11C115.535 250.12 117.125 250.13 118.675 250.13L121.645 254.12L124.616 250.13H125.075C132.065 250.12 139.815 249.86 147.755 250.65C151.465 251.02 155.205 251.61 158.925 252.56C166.436 254.48 173.875 257.84 180.755 263.73C184.695 267.08 188.445 271.26 191.925 276.46C198.815 286.73 204.656 300.98 208.766 320.73C216.306 356.99 205.305 369.07 191.925 371.88Z" fill="#E0FF00"/>
    <path d="M190.226 509.19C190.226 512.75 189.816 516.28 188.896 519.8C188.896 519.82 188.886 519.83 188.886 519.85C187.506 525.92 184.936 531.84 180.756 537.57C180.586 537.81 180.416 538.04 180.236 538.28C174.706 545.63 166.936 549.83 158.926 551.51C155.186 552.3 151.396 552.55 147.756 552.3C145.026 552.12 142.386 551.67 139.906 550.98C139.886 550.98 139.876 550.97 139.856 550.96C137.596 550.43 135.506 549.62 133.656 548.53C133.646 548.53 133.636 548.53 133.636 548.52C132.416 547.88 131.286 547.17 130.246 546.39C128.076 544.76 126.396 540.78 125.076 535.28C120.216 515 120.346 474.01 119.496 453.57C118.636 474.01 118.766 515 113.916 535.28C112.596 540.78 110.916 544.76 108.746 546.39C107.716 547.16 106.596 547.87 105.396 548.5C105.386 548.5 105.386 548.51 105.376 548.51C105.366 548.51 105.366 548.52 105.356 548.52C105.346 548.52 105.346 548.52 105.336 548.53C103.476 549.63 101.366 550.45 99.0856 550.98C99.0656 550.98 99.0456 550.99 99.0256 550.99C97.0856 551.53 95.0356 551.92 92.9356 552.15C89.3156 552.55 85.5256 552.46 81.7656 551.83C73.7056 550.49 65.7756 546.68 59.9356 539.75C59.5256 539.27 59.1356 538.78 58.7556 538.28C54.2856 532.35 51.5656 526.21 50.1256 519.92C50.1256 519.91 50.1157 519.9 50.1157 519.89C50.1157 519.88 50.1057 519.86 50.1057 519.85C49.1757 516.31 48.7656 512.75 48.7656 509.17C48.7656 508.92 48.7756 508.68 48.7756 508.43V508.17C48.5656 490.86 55.3656 472.7 59.9356 454.87C60.9456 450.96 61.8356 447.07 62.5256 443.2C68.2556 411.1 74.6556 370.11 74.6556 370.11C74.6556 370.11 77.3956 371.38 81.7656 371.83C82.5556 371.91 83.3956 371.96 84.2756 371.98H84.3156C84.3256 371.98 84.3256 371.98 84.3356 371.98C84.3456 371.98 84.3457 371.98 84.3557 371.98C86.1057 372.01 88.0556 371.88 90.1256 371.5H90.1356C91.0456 371.33 91.9756 371.12 92.9356 370.84C93.0556 370.81 93.1856 370.77 93.3156 370.73C95.5356 372.22 100.326 375.68 106.896 376.37H106.906C109.696 376.48 112.016 376.3 113.916 375.97C118.956 375.12 121.126 373.25 121.646 372.94C122.516 373.38 123.656 374.02 125.076 374.63C126.936 375.42 129.276 376.17 132.096 376.37H132.116C136.286 376.67 141.486 375.8 147.756 372.16C148.116 371.95 148.486 371.73 148.856 371.5C149.066 371.38 149.276 371.25 149.486 371.11C151.116 371.46 152.716 371.81 154.586 371.98C154.596 371.98 154.596 371.98 154.606 371.98H154.636C156.216 371.96 157.656 371.88 158.926 371.78C162.346 371.5 164.486 371.05 164.486 371.05C164.486 371.05 170.736 411.1 176.466 443.2C177.526 449.16 179.076 455.18 180.756 461.23C185.136 477 190.396 492.91 190.216 508.17C190.226 508.26 190.216 508.34 190.216 508.43C190.216 508.68 190.226 508.93 190.226 509.19Z" fill="#E0FF00"/>
    <path d="M125.076 374.63V535.28C120.216 515 120.346 474.01 119.496 453.57C118.636 474.01 118.766 515 113.916 535.28V375.97C118.956 375.12 121.126 373.25 121.646 372.94C122.516 373.38 123.656 374.02 125.076 374.63Z" fill="#9600FF"/>
    <path d="M125.076 250.13V341.09C124.486 341.41 123.866 341.77 123.246 342.18C122.596 342.64 122.036 343.06 121.646 343.35C121.256 343.06 120.696 342.64 120.046 342.18C117.186 340.3 114.286 339.35 114.226 339.33C114.216 339.33 114.216 339.33 114.216 339.33C114.346 337.91 114.516 335.83 113.926 333.97C113.926 333.96 113.926 333.96 113.916 333.95V250.11C115.536 250.12 117.126 250.13 118.676 250.13L121.646 254.12L124.616 250.13H125.076Z" fill="#9600FF"/>
    <path d="M92.9356 370.84V552.15C89.3156 552.55 85.5256 552.46 81.7656 551.83V371.83C82.5556 371.91 83.3956 371.96 84.2756 371.98H84.3156C84.3256 371.98 84.3256 371.98 84.3356 371.98C84.3456 371.98 84.3457 371.98 84.3557 371.98C86.1057 372.01 88.0556 371.88 90.1256 371.5H90.1356C91.0456 371.33 91.9756 371.12 92.9356 370.84Z" fill="#9600FF"/>
    <path d="M92.9356 250.95V338.2L88.1856 337.49L82.6757 367.3C82.6757 367.3 82.3556 367.44 81.7656 367.69V253.28C85.4756 252.16 89.2156 251.42 92.9356 250.95Z" fill="#9600FF"/>
    <path d="M59.9356 266.09V372.56C56.1756 372.68 52.3356 372.33 48.7656 371.2V280.61C52.2156 274.7 55.9656 269.94 59.9356 266.09Z" fill="#9600FF"/>
    <path d="M59.9356 454.87V539.75C59.5256 539.27 59.1356 538.78 58.7556 538.28C54.2856 532.35 51.5656 526.21 50.1256 519.92C50.1256 519.91 50.1157 519.9 50.1157 519.89C50.1157 519.88 50.1057 519.86 50.1057 519.85C49.1757 516.31 48.7656 512.75 48.7656 509.17C48.7656 508.92 48.7756 508.68 48.7756 508.43V508.17C48.5656 490.86 55.3656 472.7 59.9356 454.87Z" fill="#9600FF"/>
    <path d="M190.226 509.19C190.226 512.75 189.816 516.28 188.896 519.8C188.896 519.82 188.886 519.83 188.886 519.85C187.506 525.92 184.936 531.84 180.756 537.57V461.23C185.136 477 190.396 492.91 190.216 508.17C190.226 508.26 190.216 508.34 190.216 508.43C190.216 508.68 190.226 508.93 190.226 509.19Z" fill="#9600FF"/>
    <path d="M191.926 276.46V371.88C188.266 372.65 184.436 372.73 180.756 372.41V263.73C184.696 267.08 188.446 271.26 191.926 276.46Z" fill="#9600FF"/>
    <path d="M158.926 252.56V358.16L155.106 337.49L147.836 338.58C147.836 338.58 147.826 338.57 147.816 338.55C147.796 338.52 147.776 338.49 147.756 338.46V250.65C151.466 251.02 155.206 251.61 158.926 252.56Z" fill="#9600FF"/>
    <path d="M158.926 371.78V551.51C155.186 552.3 151.396 552.55 147.756 552.3V372.16C148.116 371.95 148.486 371.73 148.856 371.5C149.066 371.38 149.276 371.25 149.486 371.11C151.116 371.46 152.716 371.81 154.586 371.98C154.596 371.98 154.596 371.98 154.606 371.98H154.636C156.216 371.96 157.656 371.88 158.926 371.78Z" fill="#9600FF"/>
    <path d="M18.0154 544.94C23.3505 544.94 27.6755 540.615 27.6755 535.28C27.6755 529.945 23.3505 525.62 18.0154 525.62C12.6804 525.62 8.35547 529.945 8.35547 535.28C8.35547 540.615 12.6804 544.94 18.0154 544.94Z" fill="#E0FF00"/>
    <path d="M222.545 544.94C227.88 544.94 232.205 540.615 232.205 535.28C232.205 529.945 227.88 525.62 222.545 525.62C217.21 525.62 212.885 529.945 212.885 535.28C212.885 540.615 217.21 544.94 222.545 544.94Z" fill="#E0FF00"/>
    <path d="M96.7954 344.73C96.8154 343.19 94.9654 341.79 92.0754 340.87C94.9854 340.03 96.8754 338.69 96.9054 337.15C96.9454 334.5 91.4655 332.27 84.6754 332.17C77.8854 332.07 72.3455 334.14 72.3055 336.8C72.2855 338.34 74.1354 339.74 77.0254 340.66C74.1154 341.5 72.2254 342.84 72.1954 344.38C72.1654 345.92 74.0254 347.32 76.9154 348.24C74.0054 349.08 72.1154 350.42 72.0854 351.96C72.0654 353.5 73.9155 354.9 76.8055 355.82C73.8955 356.66 72.0054 358 71.9754 359.54C71.9454 361.08 73.8054 362.48 76.6954 363.4C73.7854 364.24 71.8955 365.58 71.8655 367.12C71.8255 369.77 77.3054 372 84.0954 372.1C90.8854 372.2 96.4254 370.13 96.4654 367.47C96.4854 365.93 94.6355 364.53 91.7455 363.61C94.6555 362.77 96.5454 361.43 96.5754 359.89C96.6054 358.35 94.7454 356.95 91.8554 356.03C94.7654 355.19 96.6554 353.85 96.6854 352.31C96.7054 350.77 94.8554 349.37 91.9654 348.45C94.8854 347.61 96.7754 346.27 96.7954 344.73Z" fill="white"/>
    <path d="M169.106 344.73C169.126 343.19 167.276 341.79 164.386 340.87C167.296 340.03 169.186 338.69 169.216 337.15C169.256 334.5 163.776 332.27 156.986 332.17C150.196 332.07 144.656 334.14 144.616 336.8C144.596 338.34 146.446 339.74 149.336 340.66C146.426 341.5 144.536 342.84 144.506 344.38C144.476 345.92 146.336 347.32 149.226 348.24C146.316 349.08 144.426 350.42 144.396 351.96C144.376 353.5 146.226 354.9 149.116 355.82C146.206 356.66 144.316 358 144.286 359.54C144.256 361.08 146.116 362.48 149.006 363.4C146.096 364.24 144.206 365.58 144.176 367.12C144.136 369.77 149.616 372 156.406 372.1C163.196 372.2 168.736 370.13 168.776 367.47C168.796 365.93 166.946 364.53 164.056 363.61C166.966 362.77 168.856 361.43 168.886 359.89C168.916 358.35 167.056 356.95 164.166 356.03C167.076 355.19 168.966 353.85 168.996 352.31C169.016 350.77 167.166 349.37 164.276 348.45C167.186 347.61 169.076 346.27 169.106 344.73Z" fill="white"/>
    <path d="M155.367 216.65C151.637 216.65 148.317 220.31 146.197 225.99C144.067 220.31 140.757 216.65 137.027 216.65C133.297 216.65 129.977 220.31 127.857 225.99C125.727 220.31 122.417 216.65 118.687 216.65C114.957 216.65 111.637 220.31 109.517 225.99C107.387 220.31 104.077 216.65 100.347 216.65C96.6167 216.65 93.2968 220.31 91.1768 225.99C89.0468 220.31 85.7367 216.65 82.0067 216.65C75.5867 216.65 70.3867 227.46 70.3867 240.8C70.3867 254.14 75.5867 264.95 82.0067 264.95C85.7367 264.95 89.0568 261.29 91.1768 255.61C93.3068 261.29 96.6167 264.95 100.347 264.95C104.077 264.95 107.397 261.29 109.517 255.61C111.647 261.29 114.957 264.95 118.687 264.95C122.417 264.95 125.737 261.29 127.857 255.61C129.987 261.29 133.297 264.95 137.027 264.95C140.757 264.95 144.077 261.29 146.197 255.61C148.327 261.29 151.637 264.95 155.367 264.95C161.787 264.95 166.987 254.14 166.987 240.8C166.987 227.47 161.777 216.65 155.367 216.65Z" fill="white"/>
</svg>
