<svg width="600" height="650" viewBox="0 0 600 650" fill="none" xmlns="http://www.w3.org/2000/svg">
	<g clip-path="url(#clip0_384_1779)">
		<path d="M409.612 60.5099C406.052 61.8499 402.792 63.4499 399.812 65.2699C389.922 71.2699 383.112 79.5899 378.432 88.1099C368.552 106.07 368.112 124.9 368.112 124.9H231.902C231.902 124.9 231.872 123.74 231.682 121.71C231.082 115.44 228.902 100.89 221.012 87.0899C216.362 78.9299 209.712 71.0399 200.212 65.2599C197.232 63.4499 193.972 61.8499 190.402 60.5099C193.532 58.8099 196.872 57.3899 200.342 56.2499C206.922 54.0699 213.982 52.8999 221.012 52.7799C224.602 52.6999 228.182 52.9099 231.682 53.3899C238.332 54.2899 244.712 56.1799 250.362 59.0899C254.332 61.1299 257.942 63.6699 261.032 66.7199C261.112 66.7899 261.182 66.8599 261.252 66.9299C261.692 55.7099 270.582 44.4399 279.712 35.7499C283.412 32.2299 287.152 29.1299 290.382 26.6299C291.472 25.7899 292.502 25.0199 293.452 24.3199C297.252 21.5299 299.812 19.9199 299.812 19.9199C299.812 19.9199 302.482 21.5799 306.412 24.4399C307.242 25.0499 308.132 25.7099 309.062 26.4199C312.272 28.8699 316.012 31.9099 319.732 35.3899C329.092 44.1199 338.312 55.5499 338.762 66.9299H338.772V66.9199C341.862 63.8299 345.472 61.2599 349.442 59.1999C354.982 56.3099 361.232 54.4099 367.752 53.4699C371.252 52.9599 374.842 52.7199 378.432 52.7699C385.652 52.8399 392.912 54.0099 399.682 56.2499C403.152 57.3899 406.482 58.8099 409.612 60.5099Z" fill="#E0FF00"/>
		<path d="M310.862 15.6798C310.862 17.8598 310.212 19.8998 309.102 21.5998C309.092 21.6198 309.072 21.6398 309.062 21.6598C308.352 22.7398 307.452 23.6798 306.412 24.4398C304.622 25.7498 302.402 26.5298 300.002 26.5298C297.542 26.5298 295.272 25.7098 293.452 24.3198C290.842 22.3498 289.152 19.2098 289.152 15.6798C289.152 9.67982 294.012 4.81982 300.002 4.81982C306.002 4.81982 310.862 9.67982 310.862 15.6798Z" fill="#9600FF"/>
		<path d="M190.391 71.4798C196.389 71.4798 201.251 66.6176 201.251 60.6198C201.251 54.622 196.389 49.7598 190.391 49.7598C184.393 49.7598 179.531 54.622 179.531 60.6198C179.531 66.6176 184.393 71.4798 190.391 71.4798Z" fill="#9600FF"/>
		<path d="M409.61 71.4798C415.608 71.4798 420.47 66.6176 420.47 60.6198C420.47 54.622 415.608 49.7598 409.61 49.7598C403.612 49.7598 398.75 54.622 398.75 60.6198C398.75 66.6176 403.612 71.4798 409.61 71.4798Z" fill="#9600FF"/>
		<path d="M298.023 206.04C305.368 206.04 311.323 200.085 311.323 192.74C311.323 185.395 305.368 179.44 298.023 179.44C290.677 179.44 284.723 185.395 284.723 192.74C284.723 200.085 290.677 206.04 298.023 206.04Z" fill="#E0FF00"/>
		<path d="M290.381 26.6299V124.9H279.711V35.7499C283.411 32.2299 287.151 29.1299 290.381 26.6299Z" fill="#9600FF"/>
		<path d="M261.029 66.7198V124.9H250.359V59.0898C254.329 61.1298 257.939 63.6698 261.029 66.7198Z" fill="#9600FF"/>
		<path d="M231.682 53.3898V121.71C231.082 115.44 228.902 100.89 221.012 87.0898V52.7798C224.602 52.6998 228.182 52.9098 231.682 53.3898Z" fill="#9600FF"/>
		<path d="M378.43 52.7697V88.1097C368.55 106.07 368.11 124.9 368.11 124.9H367.75V53.4697C371.25 52.9597 374.84 52.7197 378.43 52.7697Z" fill="#9600FF"/>
		<path d="M349.44 59.1997V124.9H338.77V66.9197C341.86 63.8297 345.47 61.2597 349.44 59.1997Z" fill="#9600FF"/>
		<path d="M309.103 21.5996C309.093 21.6196 309.072 21.6396 309.062 21.6596V21.5996H309.103Z" fill="#9600FF"/>
		<path d="M319.733 35.3899V124.9H309.062V26.4199C312.273 28.8699 316.013 31.9099 319.733 35.3899Z" fill="#9600FF"/>
		<path d="M286.992 546.62V585.99C286.992 585.99 241.132 585.99 218.202 585.99C195.272 585.99 177.612 561.22 197.262 541.58C197.262 541.58 201.722 568.64 246.332 547.54" fill="#9600FF"/>
		<path d="M311.199 546.62V585.99C311.199 585.99 357.059 585.99 379.989 585.99C402.919 585.99 420.579 561.22 400.929 541.58C400.929 541.58 396.469 568.64 351.859 547.54" fill="#9600FF"/>
		<path d="M370.961 376.7C367.301 377.47 363.471 377.55 359.791 377.23C353.761 376.72 348.141 375.17 344.381 373.9C341.451 372.92 339.651 372.12 339.651 372.12L337.961 362.98L334.141 342.31L326.871 343.4C326.871 343.4 326.861 343.39 326.851 343.37C326.831 343.34 326.811 343.31 326.791 343.28C326.661 343.07 326.531 342.88 326.391 342.69C325.581 341.52 323.771 339.14 321.361 337.26C317.811 334.67 314.201 334.17 311.631 335.23C309.861 336.03 308.891 337.38 308.401 338.79C307.811 340.65 307.981 342.73 308.111 344.15H308.101C308.051 344.17 306.261 344.75 304.111 345.91C303.521 346.23 302.901 346.59 302.281 347C301.631 347.46 301.071 347.88 300.681 348.17C300.291 347.88 299.731 347.46 299.081 347C296.221 345.12 293.321 344.17 293.261 344.15C293.251 344.15 293.251 344.15 293.251 344.15C293.381 342.73 293.551 340.65 292.961 338.79C292.961 338.78 292.961 338.78 292.951 338.77C292.461 337.37 291.491 336.03 289.731 335.23C287.161 334.17 283.551 334.67 280.001 337.26C277.581 339.14 275.781 341.52 274.961 342.69C274.811 342.91 274.661 343.13 274.511 343.37C274.501 343.39 274.491 343.4 274.491 343.4C274.491 343.4 274.491 343.4 274.481 343.4L271.971 343.02L267.221 342.31L261.711 372.12C261.711 372.12 261.391 372.26 260.801 372.51C259.531 373.02 256.981 373.99 253.691 374.93C249.601 376.1 244.361 377.22 238.971 377.38C235.211 377.5 231.371 377.15 227.801 376.02C215.661 372.2 206.521 359.43 213.561 325.55C217.141 308.33 222.041 295.29 227.801 285.43C231.251 279.52 235.001 274.76 238.971 270.91C245.791 264.3 253.231 260.4 260.801 258.1C264.511 256.98 268.251 256.24 271.971 255.77C279.211 254.83 286.351 254.87 292.951 254.93C294.571 254.94 296.161 254.95 297.711 254.95L300.681 258.94L303.651 254.95H304.111C311.101 254.94 318.851 254.68 326.791 255.47C330.501 255.84 334.241 256.43 337.961 257.38C345.471 259.3 352.911 262.66 359.791 268.55C363.731 271.9 367.481 276.08 370.961 281.28C377.851 291.55 383.691 305.8 387.801 325.55C395.341 361.81 384.341 373.89 370.961 376.7Z" fill="#E0FF00"/>
		<path d="M369.261 514.01C369.261 517.57 368.851 521.1 367.931 524.62C367.931 524.64 367.921 524.65 367.921 524.67C366.541 530.74 363.971 536.66 359.791 542.39C359.621 542.63 359.451 542.86 359.271 543.1C353.741 550.45 345.971 554.65 337.961 556.33C334.221 557.12 330.431 557.37 326.791 557.12C324.061 556.94 321.421 556.49 318.941 555.8C318.921 555.8 318.911 555.79 318.891 555.78C316.631 555.25 314.541 554.44 312.691 553.35C312.681 553.35 312.671 553.35 312.671 553.34C311.451 552.7 310.321 551.99 309.281 551.21C307.111 549.58 305.431 545.6 304.111 540.1C299.251 519.82 299.381 478.83 298.531 458.39C297.671 478.83 297.801 519.82 292.951 540.1C291.631 545.6 289.951 549.58 287.781 551.21C286.751 551.98 285.631 552.69 284.431 553.32C284.421 553.32 284.421 553.33 284.411 553.33C284.401 553.33 284.401 553.34 284.391 553.34C284.381 553.34 284.381 553.34 284.371 553.35C282.511 554.45 280.401 555.27 278.121 555.8C278.101 555.8 278.081 555.81 278.061 555.81C276.121 556.35 274.071 556.74 271.971 556.97C268.351 557.37 264.561 557.28 260.801 556.65C252.741 555.31 244.811 551.5 238.971 544.57C238.561 544.09 238.171 543.6 237.791 543.1C233.321 537.17 230.601 531.03 229.161 524.74C229.161 524.73 229.151 524.72 229.151 524.71C229.151 524.7 229.141 524.68 229.141 524.67C228.211 521.13 227.801 517.57 227.801 513.99C227.801 513.74 227.811 513.5 227.811 513.25V512.99C227.601 495.68 234.401 477.52 238.971 459.69C239.981 455.78 240.871 451.89 241.561 448.02C247.291 415.92 253.691 374.93 253.691 374.93C253.691 374.93 256.431 376.2 260.801 376.65C261.591 376.73 262.431 376.78 263.311 376.8H263.351C263.361 376.8 263.361 376.8 263.371 376.8C263.381 376.8 263.381 376.8 263.391 376.8C265.141 376.83 267.091 376.7 269.161 376.32H269.171C270.081 376.15 271.011 375.94 271.971 375.66C272.091 375.63 272.221 375.59 272.351 375.55C274.571 377.04 279.361 380.5 285.931 381.19H285.941C288.731 381.3 291.051 381.12 292.951 380.79C297.991 379.94 300.161 378.07 300.681 377.76C301.551 378.2 302.691 378.84 304.111 379.45C305.971 380.24 308.311 380.99 311.131 381.19H311.151C315.321 381.49 320.521 380.62 326.791 376.98C327.151 376.77 327.521 376.55 327.891 376.32C328.101 376.2 328.311 376.07 328.521 375.93C330.151 376.28 331.751 376.63 333.621 376.8C333.631 376.8 333.631 376.8 333.641 376.8H333.671C335.251 376.78 336.691 376.7 337.961 376.6C341.381 376.32 343.521 375.87 343.521 375.87C343.521 375.87 349.771 415.92 355.501 448.02C356.561 453.98 358.111 460 359.791 466.05C364.171 481.82 369.431 497.73 369.251 512.99C369.261 513.08 369.251 513.16 369.251 513.25C369.251 513.5 369.261 513.75 369.261 514.01Z" fill="#E0FF00"/>
		<path d="M304.109 379.45V540.1C299.249 519.82 299.379 478.83 298.529 458.39C297.669 478.83 297.799 519.82 292.949 540.1V380.79C297.989 379.94 300.159 378.07 300.679 377.76C301.549 378.2 302.689 378.84 304.109 379.45Z" fill="#9600FF"/>
		<path d="M304.109 254.95V345.91C303.519 346.23 302.899 346.59 302.279 347C301.629 347.46 301.069 347.88 300.679 348.17C300.289 347.88 299.729 347.46 299.079 347C296.219 345.12 293.319 344.17 293.259 344.15C293.249 344.15 293.249 344.15 293.249 344.15C293.379 342.73 293.549 340.65 292.959 338.79C292.959 338.78 292.959 338.78 292.949 338.77V254.93C294.569 254.94 296.159 254.95 297.709 254.95L300.679 258.94L303.649 254.95H304.109Z" fill="#9600FF"/>
		<path d="M271.971 375.66V556.97C268.351 557.37 264.561 557.28 260.801 556.65V376.65C261.591 376.73 262.431 376.78 263.311 376.8H263.351C263.361 376.8 263.361 376.8 263.371 376.8C263.381 376.8 263.381 376.8 263.391 376.8C265.141 376.83 267.091 376.7 269.161 376.32H269.171C270.081 376.15 271.011 375.94 271.971 375.66Z" fill="#9600FF"/>
		<path d="M271.971 255.77V343.02L267.221 342.31L261.711 372.12C261.711 372.12 261.391 372.26 260.801 372.51V258.1C264.511 256.98 268.251 256.24 271.971 255.77Z" fill="#9600FF"/>
		<path d="M238.971 270.91V377.38C235.211 377.5 231.371 377.15 227.801 376.02V285.43C231.251 279.52 235.001 274.76 238.971 270.91Z" fill="#9600FF"/>
		<path d="M238.971 459.69V544.57C238.561 544.09 238.171 543.6 237.791 543.1C233.321 537.17 230.601 531.03 229.161 524.74C229.161 524.73 229.151 524.72 229.151 524.71C229.151 524.7 229.141 524.68 229.141 524.67C228.211 521.13 227.801 517.57 227.801 513.99C227.801 513.74 227.811 513.5 227.811 513.25V512.99C227.601 495.68 234.401 477.52 238.971 459.69Z" fill="#9600FF"/>
		<path d="M369.259 514.01C369.259 517.57 368.849 521.1 367.929 524.62C367.929 524.64 367.919 524.65 367.919 524.67C366.539 530.74 363.969 536.66 359.789 542.39V466.05C364.169 481.82 369.429 497.73 369.249 512.99C369.259 513.08 369.249 513.16 369.249 513.25C369.249 513.5 369.259 513.75 369.259 514.01Z" fill="#9600FF"/>
		<path d="M370.959 281.28V376.7C367.299 377.47 363.469 377.55 359.789 377.23V268.55C363.729 271.9 367.479 276.08 370.959 281.28Z" fill="#9600FF"/>
		<path d="M337.959 257.38V362.98L334.139 342.31L326.869 343.4C326.869 343.4 326.859 343.39 326.849 343.37C326.829 343.34 326.809 343.31 326.789 343.28V255.47C330.499 255.84 334.239 256.43 337.959 257.38Z" fill="#9600FF"/>
		<path d="M337.959 376.6V556.33C334.219 557.12 330.429 557.37 326.789 557.12V376.98C327.149 376.77 327.519 376.55 327.889 376.32C328.099 376.2 328.309 376.07 328.519 375.93C330.149 376.28 331.749 376.63 333.619 376.8C333.629 376.8 333.629 376.8 333.639 376.8H333.669C335.249 376.78 336.689 376.7 337.959 376.6Z" fill="#9600FF"/>
		<path d="M197.051 549.76C202.386 549.76 206.711 545.435 206.711 540.1C206.711 534.765 202.386 530.44 197.051 530.44C191.716 530.44 187.391 534.765 187.391 540.1C187.391 545.435 191.716 549.76 197.051 549.76Z" fill="#E0FF00"/>
		<path d="M401.582 549.76C406.917 549.76 411.242 545.435 411.242 540.1C411.242 534.765 406.917 530.44 401.582 530.44C396.247 530.44 391.922 534.765 391.922 540.1C391.922 545.435 396.247 549.76 401.582 549.76Z" fill="#E0FF00"/>
		<path d="M275.829 349.55C275.849 348.01 273.999 346.61 271.109 345.69C274.019 344.85 275.909 343.51 275.939 341.97C275.979 339.32 270.499 337.09 263.709 336.99C256.919 336.89 251.379 338.96 251.339 341.62C251.319 343.16 253.169 344.56 256.059 345.48C253.149 346.32 251.259 347.66 251.229 349.2C251.199 350.74 253.059 352.14 255.949 353.06C253.039 353.9 251.149 355.24 251.119 356.78C251.099 358.32 252.949 359.72 255.839 360.64C252.929 361.48 251.039 362.82 251.009 364.36C250.989 365.9 252.839 367.3 255.729 368.22C252.819 369.06 250.929 370.4 250.899 371.94C250.859 374.59 256.339 376.82 263.129 376.92C269.919 377.02 275.459 374.95 275.499 372.29C275.519 370.75 273.669 369.35 270.779 368.43C273.689 367.59 275.579 366.25 275.609 364.71C275.639 363.17 273.779 361.77 270.889 360.85C273.799 360.01 275.689 358.67 275.719 357.13C275.739 355.59 273.889 354.19 270.999 353.27C273.919 352.43 275.809 351.09 275.829 349.55Z" fill="white"/>
		<path d="M348.137 349.55C348.157 348.01 346.307 346.61 343.417 345.69C346.327 344.85 348.217 343.51 348.247 341.97C348.287 339.32 342.807 337.09 336.017 336.99C329.227 336.89 323.687 338.96 323.647 341.62C323.627 343.16 325.477 344.56 328.367 345.48C325.457 346.32 323.567 347.66 323.537 349.2C323.507 350.74 325.367 352.14 328.257 353.06C325.347 353.9 323.457 355.24 323.427 356.78C323.407 358.32 325.257 359.72 328.147 360.64C325.237 361.48 323.347 362.82 323.317 364.36C323.297 365.9 325.147 367.3 328.037 368.22C325.127 369.06 323.237 370.4 323.207 371.94C323.167 374.59 328.647 376.82 335.437 376.92C342.227 377.02 347.767 374.95 347.807 372.29C347.827 370.75 345.977 369.35 343.087 368.43C345.997 367.59 347.887 366.25 347.917 364.71C347.947 363.17 346.087 361.77 343.197 360.85C346.107 360.01 347.997 358.67 348.027 357.13C348.047 355.59 346.197 354.19 343.307 353.27C346.217 352.43 348.107 351.09 348.137 349.55Z" fill="white"/>
		<path d="M334.402 221.47C330.672 221.47 327.352 225.13 325.232 230.81C323.102 225.13 319.792 221.47 316.062 221.47C312.332 221.47 309.012 225.13 306.892 230.81C304.762 225.13 301.452 221.47 297.722 221.47C293.992 221.47 290.672 225.13 288.552 230.81C286.422 225.13 283.112 221.47 279.382 221.47C275.652 221.47 272.332 225.13 270.212 230.81C268.082 225.13 264.772 221.47 261.042 221.47C254.622 221.47 249.422 232.28 249.422 245.62C249.422 258.96 254.622 269.77 261.042 269.77C264.772 269.77 268.092 266.11 270.212 260.43C272.342 266.11 275.652 269.77 279.382 269.77C283.112 269.77 286.432 266.11 288.552 260.43C290.682 266.11 293.992 269.77 297.722 269.77C301.452 269.77 304.772 266.11 306.892 260.43C309.022 266.11 312.332 269.77 316.062 269.77C319.792 269.77 323.112 266.11 325.232 260.43C327.362 266.11 330.672 269.77 334.402 269.77C340.822 269.77 346.022 258.96 346.022 245.62C346.022 232.29 340.812 221.47 334.402 221.47Z" fill="white"/>
	</g>
	<defs>
		<clipPath id="clip0_384_1779">
			<rect width="600" height="650" fill="white"/>
		</clipPath>
	</defs>
</svg>
