<svg width="190" height="511" viewBox="0 0 190 511" fill="none" xmlns="http://www.w3.org/2000/svg">
    <path d="M128.717 149.51C128.717 149.51 151.337 165.1 150.727 185.59H176.107C176.107 185.59 179.167 162.66 152.417 135.14" fill="white"/>
    <path d="M51.0554 377.28C51.0554 377.28 52.2754 395.32 4.27539 406.02L11.3054 438.43C11.3054 438.43 42.1854 429.56 67.2554 411.83" fill="white"/>
    <mask id="mask0_327_4208" style="mask-type:luminance" maskUnits="userSpaceOnUse" x="0" y="0" width="190" height="511">
        <path d="M139.856 159.66C144.246 157.53 148.426 155.1 152.356 152.39C173.206 138.09 187.216 116.18 189.246 91.2898C189.406 89.2198 189.496 87.1298 189.496 85.0198C189.496 82.3398 189.356 79.6898 189.076 77.0798C187.686 63.5498 182.746 50.9498 175.086 40.0198C168.176 30.1398 159.056 21.6298 148.346 15.0398C133.136 5.6698 114.716 0.199951 94.8761 0.199951C79.3461 0.199951 64.6861 3.54976 51.7561 9.49976C36.5461 16.4898 23.7161 27.07 14.6761 39.99C7.75609 49.85 3.05609 61.0901 1.17609 73.1301C1.16609 73.2101 1.14611 73.2899 1.13611 73.3699C0.546108 77.1699 0.246094 81.0598 0.246094 85.0198C0.246094 100.78 5.04612 115.54 13.3961 128.18C21.6261 140.64 33.3161 151.05 47.2861 158.35V190.13C44.8861 192.25 42.4961 194.55 40.1261 197.01C37.6461 199.58 35.1861 202.32 32.7861 205.19C24.2261 215.45 16.3761 227.4 10.5661 239.35C10.5261 239.43 10.4861 239.51 10.4461 239.59C4.37611 252.1 0.546074 264.6 0.476074 275.16C0.386074 285.32 3.76612 293.68 11.9561 298.51C14.7461 300.17 18.1061 301.42 22.0761 302.19C24.5461 302.67 27.2561 302.96 30.2061 303.05H48.2961L48.1061 326.82L48.0861 328.38L48.0761 330.05L47.7961 363.21L47.7561 368.6L47.6961 376.54L47.4961 400.51L47.3961 412.42L47.3861 413.78L47.2961 425.81L47.1361 444.39L47.0261 457.77L46.9561 466.77V466.9C46.9161 472.4 42.4361 476.84 36.9361 476.84C33.1261 476.84 29.6061 478.1 26.7761 480.25C22.6861 483.32 20.0461 488.22 20.0461 493.73V494.07C20.0461 503.4 27.6161 510.97 36.9461 510.97H152.126C153.446 510.97 154.736 510.82 155.966 510.52C155.966 510.52 155.976 510.53 155.986 510.52C163.456 508.78 169.026 502.07 169.026 494.07V493.73C169.026 484.74 162.016 477.41 153.166 476.87H153.156C152.816 476.85 152.476 476.84 152.136 476.84H142.176L141.986 454L141.876 440.62L141.676 414.89L141.566 401.51L141.386 379.53L141.276 366.2L141.116 345.63L141.096 342.72L140.866 314.89L140.766 303.05H158.766C194.166 301.97 193.696 272.02 179.426 241.44C178.456 239.38 177.436 237.32 176.356 235.26C176.346 235.25 176.346 235.23 176.336 235.22C172.656 228.23 168.346 221.33 163.656 214.82C160.906 211.01 158.026 207.34 155.076 203.87C154.886 203.65 154.696 203.43 154.506 203.21C149.746 197.68 144.776 192.71 139.856 188.55V159.66ZM32.7261 105.26C25.5961 99.78 13.9661 88.31 9.55609 83.97C9.55609 83.97 57.7261 86.1501 107.346 69.6501C108.146 70.1101 108.946 70.57 109.746 71.01C135.306 85.16 160.876 89.5999 177.686 90.8499C172.486 95.8799 165.846 101.07 157.396 105.93C100.546 123.53 41.3461 108.01 33.4061 105.77C33.1761 105.6 32.9461 105.43 32.7261 105.26Z" fill="white"/>
    </mask>
    <g mask="url(#mask0_327_4208)">
        <path d="M139.856 159.66C144.246 157.53 148.426 155.1 152.356 152.39C173.206 138.09 187.216 116.18 189.246 91.2898C189.406 89.2198 189.496 87.1298 189.496 85.0198C189.496 82.3398 189.356 79.6898 189.076 77.0798C187.686 63.5498 182.746 50.9498 175.086 40.0198C168.176 30.1398 159.056 21.6298 148.346 15.0398C133.136 5.6698 114.716 0.199951 94.8761 0.199951C79.3461 0.199951 64.6861 3.54976 51.7561 9.49976C36.5461 16.4898 23.7161 27.07 14.6761 39.99C7.75609 49.85 3.05609 61.0901 1.17609 73.1301C1.16609 73.2101 1.14611 73.2899 1.13611 73.3699C0.546108 77.1699 0.246094 81.0598 0.246094 85.0198C0.246094 100.78 5.04612 115.54 13.3961 128.18C21.6261 140.64 33.3161 151.05 47.2861 158.35V190.13C44.8861 192.25 42.4961 194.55 40.1261 197.01C37.6461 199.58 35.1861 202.32 32.7861 205.19C24.2261 215.45 16.3761 227.4 10.5661 239.35C10.5261 239.43 10.4861 239.51 10.4461 239.59C4.37611 252.1 0.546074 264.6 0.476074 275.16C0.386074 285.32 3.76612 293.68 11.9561 298.51C14.7461 300.17 18.1061 301.42 22.0761 302.19C24.5461 302.67 27.2561 302.96 30.2061 303.05H48.2961L48.1061 326.82L48.0861 328.38L48.0761 330.05L47.7961 363.21L47.7561 368.6L47.6961 376.54L47.4961 400.51L47.3961 412.42L47.3861 413.78L47.2961 425.81L47.1361 444.39L47.0261 457.77L46.9561 466.77V466.9C46.9161 472.4 42.4361 476.84 36.9361 476.84C33.1261 476.84 29.6061 478.1 26.7761 480.25C22.6861 483.32 20.0461 488.22 20.0461 493.73V494.07C20.0461 503.4 27.6161 510.97 36.9461 510.97H152.126C153.446 510.97 154.736 510.82 155.966 510.52C155.966 510.52 155.976 510.53 155.986 510.52C163.456 508.78 169.026 502.07 169.026 494.07V493.73C169.026 484.74 162.016 477.41 153.166 476.87H153.156C152.816 476.85 152.476 476.84 152.136 476.84H142.176L141.986 454L141.876 440.62L141.676 414.89L141.566 401.51L141.386 379.53L141.276 366.2L141.116 345.63L141.096 342.72L140.866 314.89L140.766 303.05H158.766C194.166 301.97 193.696 272.02 179.426 241.44C178.456 239.38 177.436 237.32 176.356 235.26C176.346 235.25 176.346 235.23 176.336 235.22C172.656 228.23 168.346 221.33 163.656 214.82C160.906 211.01 158.026 207.34 155.076 203.87C154.886 203.65 154.696 203.43 154.506 203.21C149.746 197.68 144.776 192.71 139.856 188.55V159.66ZM32.7261 105.26C25.5961 99.78 13.9661 88.31 9.55609 83.97C9.55609 83.97 57.7261 86.1501 107.346 69.6501C108.146 70.1101 108.946 70.57 109.746 71.01C135.306 85.16 160.876 89.5999 177.686 90.8499C172.486 95.8799 165.846 101.07 157.396 105.93C100.546 123.53 41.3461 108.01 33.4061 105.77C33.1761 105.6 32.9461 105.43 32.7261 105.26Z" fill="white"/>
        <path d="M165.645 154.4C161.105 153.79 156.675 153.12 152.355 152.39C138.715 150.1 126.205 147.27 114.745 144.05C98.4154 139.47 84.2153 134.1 71.9153 128.41C56.0853 121.08 43.4054 113.21 33.4054 105.77C26.3554 100.53 20.6354 95.4998 16.0854 91.0198C5.43539 80.5498 -4.72461 65.05 -4.72461 65.05" stroke="#9600FF" stroke-width="4" stroke-miterlimit="10"/>
        <path d="M4.52539 38.22C7.95539 38.9 11.3354 39.49 14.6754 39.99C60.6754 46.92 98.4954 37.3897 123.175 27.4397C134.485 22.8797 143.035 18.2398 148.345 15.0398C152.475 12.5698 154.645 10.97 154.645 10.97C154.645 10.97 220.025 12.3098 175.085 40.0198C171.435 42.2698 167.065 44.69 161.865 47.3C144.465 56.04 126.735 65.1 109.745 71.01C108.985 71.27 108.235 71.53 107.485 71.78" stroke="#9600FF" stroke-width="4" stroke-miterlimit="10"/>
        <path d="M51.0059 8.86987C51.0059 8.86987 66.8759 23.86 123.326 27.45" stroke="#9600FF" stroke-width="4" stroke-miterlimit="10"/>
        <path d="M71.2363 128.46C71.4663 128.44 71.6963 128.43 71.9263 128.41C111.746 125.69 138.926 116.58 157.406 105.93C165.856 101.07 172.496 95.8799 177.696 90.8499C182.726 85.9799 186.406 81.2498 189.086 77.0798C194.716 68.3398 195.956 62.0398 195.956 62.0398" stroke="#9600FF" stroke-width="4" stroke-miterlimit="10"/>
        <path d="M103.617 195.3C131.027 185.48 147.087 167.32 147.087 167.32" stroke="#9600FF" stroke-width="4" stroke-miterlimit="10"/>
        <path d="M178.957 235.22C178.957 235.22 64.857 236.61 16.457 193.54" stroke="#9600FF" stroke-width="4" stroke-miterlimit="10"/>
        <path d="M9.04688 239.09C9.04688 239.09 82.8969 252.21 134.007 232.19" stroke="#9600FF" stroke-width="4" stroke-miterlimit="10"/>
        <path d="M162.216 203.32C162.216 203.32 88.196 205.43 38.166 161.74" stroke="#9600FF" stroke-width="4" stroke-miterlimit="10"/>
        <path d="M181.857 237.87C181.857 237.87 148.897 299.65 -0.363281 275.03" stroke="#9600FF" stroke-width="4" stroke-miterlimit="10"/>
        <path d="M206.775 313.91C205.855 313.91 148.385 315.75 110.775 276.46" stroke="#9600FF" stroke-width="4" stroke-miterlimit="10"/>
        <path d="M160.146 347.01C132.936 343.34 71.1763 320.42 68.7363 280.82" stroke="#9600FF" stroke-width="4" stroke-miterlimit="10"/>
        <path d="M84.6772 312.14C84.6772 312.14 76.3872 323.78 46.1172 330.51" stroke="#9600FF" stroke-width="4" stroke-miterlimit="10"/>
        <path d="M56.3462 281.86C56.3462 281.86 43.6662 305.61 -18.0938 307.88" stroke="#9600FF" stroke-width="4" stroke-miterlimit="10"/>
        <path d="M152.506 362.7C152.506 362.7 100.266 384.71 28.0957 356.59" stroke="#9600FF" stroke-width="4" stroke-miterlimit="10"/>
        <path d="M56.3457 365.45C56.3457 365.45 75.7357 397.24 145.766 401.83" stroke="#9600FF" stroke-width="4" stroke-miterlimit="10"/>
        <path d="M152.507 441.58C152.507 441.58 79.4368 439.75 30.2168 383.65" stroke="#9600FF" stroke-width="4" stroke-miterlimit="10"/>
        <path d="M41.2168 444.94C41.2168 444.94 69.2767 443.72 97.2867 429.35" stroke="#9600FF" stroke-width="4" stroke-miterlimit="10"/>
        <path d="M58.9356 409.24C45.9956 413.19 31.8556 416.26 16.7656 417.73" stroke="#9600FF" stroke-width="4" stroke-miterlimit="10"/>
        <path d="M139.856 366.55C139.856 366.55 124.556 379.89 98.7363 393.07" stroke="#9600FF" stroke-width="4" stroke-miterlimit="10"/>
        <path d="M39.0762 463.5C128.346 502.94 213.646 458.3 213.646 458.3" stroke="#9600FF" stroke-width="4" stroke-miterlimit="10"/>
        <path d="M23.1855 477.56C23.1855 477.56 76.6855 522.81 184.616 507.83" stroke="#9600FF" stroke-width="4" stroke-miterlimit="10"/>
    </g>
</svg>
