<svg width="187" height="501" viewBox="0 0 187 501" fill="none" xmlns="http://www.w3.org/2000/svg">
    <path d="M72.4874 192.515H58.3574V206.645H72.4874V192.515Z" fill="#E0FF00"/>
    <path d="M100.747 220.775H86.6172V234.905H100.747V220.775Z" fill="white"/>
    <path d="M129.017 234.905H114.887V249.035H129.017V234.905Z" fill="white"/>
    <path d="M72.4874 234.905H58.3574V249.035H72.4874V234.905Z" fill="white"/>
    <path d="M143.026 249.035H128.896V263.165H143.026V249.035Z" fill="white"/>
    <path d="M86.6163 206.645H72.4863V220.775H86.6163V206.645Z" fill="#E2FF70"/>
    <path d="M114.886 206.645H100.756V220.775H114.886V206.645Z" fill="#ECFFC2"/>
    <path d="M114.886 234.905H100.756V249.035H114.886V234.905Z" fill="#ECFFC2"/>
    <path d="M72.4874 206.645H58.3574V220.775H72.4874V206.645Z" fill="#ECFFC2"/>
    <path d="M129.017 206.645H114.887V220.775H129.017V206.645Z" fill="#E2FF70"/>
    <path d="M143.146 192.515H129.016V206.645H143.146V192.515Z" fill="#E2FF70"/>
    <path d="M58.3566 220.775H44.2266V234.905H58.3566V220.775Z" fill="#E0FF00"/>
    <path d="M86.6163 234.905H72.4863V249.035H86.6163V234.905Z" fill="#E0FF00"/>
    <path d="M86.6163 220.775H72.4863V234.905H86.6163V220.775Z" fill="white"/>
    <path d="M114.886 220.775H100.756V234.905H114.886V220.775Z" fill="#E0FF00"/>
    <path d="M136.077 300.055H121.947V314.185H136.077V300.055Z" fill="#E0FF00"/>
    <path d="M129.017 220.775H114.887V234.905H129.017V220.775Z" fill="#E6FF33"/>
    <path d="M72.4874 220.775H58.3574V234.905H72.4874V220.775Z" fill="#E6FF33"/>
    <path d="M143.146 234.905H129.016V249.035H143.146V234.905Z" fill="#E0FF00"/>
    <path d="M93.6866 300.055H79.5566V314.185H93.6866V300.055Z" fill="#E6FF33"/>
    <path d="M107.818 300.055H93.6875V314.185H107.818V300.055Z" fill="#ECFFC2"/>
    <path d="M79.5558 314.185H65.4258V328.315H79.5558V314.185Z" fill="white"/>
    <path d="M93.6866 314.185H79.5566V328.315H93.6866V314.185Z" fill="#ECFFC2"/>
    <path d="M107.818 314.185H93.6875V328.315H107.818V314.185Z" fill="#E0FF00"/>
    <path d="M121.946 314.185H107.816V328.315H121.946V314.185Z" fill="white"/>
    <path d="M136.077 314.185H121.947V328.315H136.077V314.185Z" fill="#ECFFC2"/>
    <path d="M65.4269 328.315H51.2969V342.445H65.4269V328.315Z" fill="#E0FF00"/>
    <path d="M93.6866 328.315H79.5566V342.445H93.6866V328.315Z" fill="white"/>
    <path d="M107.818 328.315H93.6875V342.445H107.818V328.315Z" fill="#ECFFC2"/>
    <path d="M121.946 328.315H107.816V342.445H121.946V328.315Z" fill="#E0FF00"/>
    <path d="M79.5558 342.445H65.4258V356.575H79.5558V342.445Z" fill="white"/>
    <path d="M107.818 342.445H93.6875V356.575H107.818V342.445Z" fill="#E0FF00"/>
</svg>
