<svg width="254" height="501" viewBox="0 0 254 501" fill="none" xmlns="http://www.w3.org/2000/svg">
    <path d="M170.755 150.555C160.545 163.635 141.965 166.195 141.965 166.195C141.965 166.195 139.925 147.545 150.135 134.465C160.345 121.385 178.925 118.825 178.925 118.825C178.925 118.825 180.955 137.475 170.755 150.555Z" fill="#E0FF00"/>
    <path d="M174.716 168.355C159.166 174.135 142.006 166.565 142.006 166.565C142.006 166.565 150.056 149.615 165.606 143.835C181.156 138.055 198.316 145.625 198.316 145.625C198.316 145.625 190.266 162.575 174.716 168.355Z" fill="#E0FF00"/>
    <path d="M249.096 311.585C248.176 295.535 253.686 256.285 233.506 247.705C213.326 239.125 199.566 195.105 192.686 186.845C185.806 178.595 158.296 160.705 146.826 164.375C110.136 176.115 105.556 157.955 92.2558 159.785C78.9558 161.625 62.4458 193.725 51.4358 212.075C40.4358 230.415 28.0558 276.735 13.8358 289.115C-0.384197 301.495 8.33581 362.495 23.4658 376.705C38.5958 390.925 83.0858 388.175 109.226 393.675C135.366 399.175 176.176 395.055 183.516 386.335C190.856 377.625 215.156 360.195 225.246 358.825C235.336 357.445 250.016 327.635 249.096 311.585ZM157.226 289.205C152.296 293.325 140.736 299.735 127.886 292.375C117.416 298.415 105.396 295.565 98.4558 289.185L84.9458 285.345L86.7758 255.105L101.686 258.015V258.025L101.696 258.015C101.696 258.015 107.956 248.625 115.216 249.265C122.626 250.605 120.456 258.765 120.456 258.765C120.456 258.765 125.506 260.695 127.886 262.785C128.666 262.195 132.336 259.605 135.316 258.765C135.316 258.765 134.036 252.225 138.496 249.995C142.956 247.755 148.686 250.765 154.076 258.015L168.996 255.105L170.816 285.345L157.226 289.205Z" fill="#E0FF00"/>
    <path d="M67.0163 239.975C58.1463 283.085 77.7163 319.465 98.8163 319.155" stroke="#9600FF" stroke-width="4" stroke-miterlimit="10"/>
    <path d="M194.265 279.575C189.375 319.475 187.335 359.825 122.625 359.825" stroke="#9600FF" stroke-width="4" stroke-miterlimit="10"/>
    <path d="M146.826 172.935C146.826 172.935 163.026 168.655 165.166 147.865" stroke="#9600FF" stroke-width="4" stroke-miterlimit="10"/>
</svg>
