<svg width="259" height="513" viewBox="0 0 259 513" fill="none" xmlns="http://www.w3.org/2000/svg">
    <path d="M175.86 232.325C175.86 224.785 144.58 220.535 130.59 220.265V220.255C130.37 220.255 130.13 220.255 129.9 220.265C129.67 220.265 129.43 220.255 129.21 220.255V220.265C115.22 220.535 83.9297 224.785 83.9297 232.325C83.9297 240.125 86.2197 267.025 86.2197 267.025L103.88 270.125C103.88 270.125 107.61 263.645 113.45 261.925C119.3 260.205 123.71 263.645 122.51 271.035C122.51 271.035 127.02 272.235 129.95 275.045C132.87 272.235 137.5 270.915 137.5 270.915C136.3 263.525 140.49 260.195 146.34 261.915C152.19 263.635 155.91 270.115 155.91 270.115L173.57 267.015C173.57 267.025 175.86 240.115 175.86 232.325Z" fill="white"/>
    <path d="M75.7694 33.165C78.0094 36.295 81.6794 38.3351 85.8294 38.3351C89.2894 38.3351 92.4194 36.915 94.6594 34.625C97.5194 37.945 101.749 40.045 106.469 40.045C110.409 40.045 113.989 38.595 116.729 36.185C119.739 39.645 124.179 41.825 129.129 41.825C133.569 41.825 137.589 40.075 140.549 37.215C143.079 39.005 146.159 40.045 149.489 40.045C154.209 40.045 158.439 37.945 161.299 34.625C163.539 36.915 166.669 38.3351 170.129 38.3351C175.419 38.3351 179.939 35.015 181.699 30.345C194.319 41.965 201.669 58.465 203.819 77.195C204.159 77.175 204.499 77.165 204.849 77.165C208.539 77.165 211.969 78.315 214.779 80.285C214.689 77.805 214.649 75.395 214.649 73.035C212.449 57.065 207.239 44.455 200.279 34.545C193.329 24.655 184.649 17.455 175.509 12.295C159.269 3.13504 141.569 0.405029 129.559 0.405029C116.369 0.405029 95.5894 2.47504 77.7594 13.885C67.7194 20.315 58.6094 29.705 52.3294 43.355C48.5394 51.595 45.7794 61.395 44.4694 73.035C44.4694 75.215 44.4294 77.435 44.3594 79.715C46.9094 78.145 49.8994 77.2251 53.0994 77.175C55.5894 59.915 63.4594 44.555 75.7694 33.165Z" fill="white"/>
    <path d="M169.9 286.505L169.82 286.595C169.85 286.575 169.87 286.565 169.9 286.545V286.505Z" fill="white"/>
    <path d="M257.289 275.055C251.099 257.425 224.949 172.905 216.979 106.995C213.849 110.045 209.569 111.925 204.849 111.925C203.439 111.925 202.069 111.755 200.759 111.435C191.609 138.805 166.889 160.945 141.399 166.805V180.785C154.139 182.815 165.659 187.775 174.959 194.815C176.829 196.225 178.619 197.725 180.299 199.305C184.549 203.295 188.169 207.785 191.029 212.645C192.329 214.865 193.479 217.165 194.449 219.535C194.889 220.605 195.299 221.675 195.659 222.765C195.719 222.945 195.779 223.135 195.839 223.315C195.899 223.495 195.959 223.685 196.009 223.865L196.149 224.335L211.699 274.835C211.799 275.145 211.879 275.455 211.939 275.775C211.979 275.945 212.019 276.115 212.049 276.285C212.059 276.325 212.069 276.355 212.069 276.385L212.089 276.485L212.119 276.615V276.655C212.129 276.695 212.139 276.725 212.139 276.765C213.419 283.755 208.849 290.485 201.859 291.845L173.349 297.425C173.519 297.765 173.689 298.085 173.869 298.405C173.679 298.315 173.499 298.215 173.309 298.115L159.759 300.675C159.759 300.675 153.719 307.325 143.889 308.015C135.319 308.615 130.959 305.465 129.989 304.655V304.465C129.989 304.465 129.949 304.505 129.879 304.565C129.819 304.505 129.769 304.465 129.769 304.465V304.655C128.799 305.465 124.449 308.615 115.869 308.015C106.039 307.325 99.9993 300.675 99.9993 300.675L86.4493 298.115C85.9493 298.355 85.4593 298.625 84.9693 298.895C85.1693 298.555 85.3593 298.215 85.5493 297.845L56.7893 292.225L54.8793 291.855C47.8893 290.495 43.3194 283.765 44.5994 276.775C44.6094 276.685 44.6293 276.595 44.6493 276.495L44.6693 276.365C44.6693 276.345 44.6793 276.315 44.6793 276.295C44.7793 275.815 44.8893 275.325 45.0393 274.845L60.3793 225.005L60.4393 224.805L60.9393 223.165L60.9593 223.105C64.5793 212.025 71.9093 202.265 81.7493 194.825H81.7593V194.815C91.0493 187.775 102.559 182.815 115.319 180.785V166.805C89.9193 160.965 65.2793 138.965 56.0593 111.725C55.1893 111.855 54.2993 111.925 53.3893 111.925C49.0493 111.925 45.0793 110.345 42.0393 107.705C33.9693 173.505 7.98932 257.495 1.81932 275.055C-5.52068 295.915 20.4593 300.795 27.2793 288.305C28.1993 302.795 51.0993 306.925 56.6093 293.165C58.3993 301.565 67.1693 308.515 75.2993 306.795C34.4693 351.025 17.5693 512.765 17.5693 512.765H129.769H129.979H242.179C242.179 512.765 225.319 351.375 184.579 306.935C192.469 308.065 200.739 301.295 202.479 293.165C207.989 306.925 230.889 302.795 231.809 288.305C238.649 300.795 264.639 295.915 257.289 275.055Z" fill="white"/>
</svg>
