<?xml version="1.0" encoding="UTF-8"?>
<svg id="_圖層_1" data-name="圖層 1" xmlns="http://www.w3.org/2000/svg" version="1.1" viewBox="0 0 672 929">
  <defs>
    <style>
      .cls-1 {
        font-family: SourceHanSansTW-Bold-B5pc-H, 'Source Han Sans TW';
        font-size: 123.05px;
        font-weight: 700;
        letter-spacing: .09em;
      }

      .cls-1, .cls-2 {
        fill: #9500ff;
      }

      .cls-2, .cls-3 {
        stroke-width: 0px;
      }

      .cls-3 {
        fill: #e0ff00;
      }
    </style>
  </defs>
  <rect class="cls-2" x=".81" y="0" width="671" height="932"/>
  <rect class="cls-3" x="73.67" y="373.95" width="598.14" height="530.69"/>
  <polygon class="cls-3" points="671.81 373.95 73.67 373.95 150.58 216.57 671.81 216.57 671.81 373.95"/>
  <text class="cls-1" transform="translate(464.22 851.3) scale(1.25 1)"><tspan x="0" y="0">聞</tspan></text>
  <path class="cls-2" d="M423.17,795.05l-38.85,67.09-38.85-67.09c-7.37-12.73.8-29.33,15.47-30.33.49-.03.99-.05,1.49-.05,12,0,21.89,9.88,21.89,21.88,0-12,9.88-21.88,21.88-21.88.5,0,1,.02,1.49.05,14.68,1.01,22.85,17.6,15.47,30.33Z"/>
  <path class="cls-2" d="M309.75,799.52l-29.39,50.76-29.39-50.76c-5.58-9.63.6-22.19,11.71-22.95.37-.03.75-.04,1.13-.04,9.08,0,16.56,7.48,16.56,16.56,0-9.08,7.48-16.56,16.56-16.56.38,0,.75.01,1.13.04,11.1.76,17.28,13.32,11.71,22.95Z"/>
  <path class="cls-2" d="M216.56,803.78l-20.37,35.18-20.37-35.18c-3.87-6.68.42-15.38,8.11-15.9.26-.02.52-.03.78-.03,6.29,0,11.47,5.18,11.47,11.47,0-6.29,5.18-11.47,11.47-11.47.26,0,.52,0,.78.03,7.7.53,11.98,9.23,8.11,15.9Z"/>
  <g>
    <path class="cls-3" d="M35.97,55.97h26.75v10.7H1.25v-10.7h29.6c-3.84-4.1-10.1-9.22-15.79-13.09l12.38-6.83c6.97,3.98,14.37,9.79,18.21,13.89l-9.68,6.03ZM57.88,137.47H23.59v4.9H7.8v-39.39h50.08v34.49ZM57.17,82.15H8.23v-10.25h48.95v10.25ZM8.23,87.28h48.95v10.25H8.23v-10.25ZM23.59,113.8v12.75h18.21v-12.75h-18.21ZM118.07,107.2c-4.55-6.6-14.8-16.51-23.62-24.82v60.44h-17.36V38.1h17.36v37.22l7.83-5.58c9.82,8.42,23.19,20.03,29.17,27.32l-13.38,10.13Z"/>
    <path class="cls-3" d="M266.34,68.83c-7.26,16.39-16.93,29.71-29.31,40.75,14.66,9.11,32.58,15.71,53.79,19.69-3.84,2.96-8.82,8.88-11.38,12.63-22.34-4.78-40.69-12.29-55.63-22.31-15.65,10.25-34.72,17.76-57.63,22.99-1.85-3.19-6.83-9.56-10.24-12.64,22.2-4.44,40.55-10.93,55.35-20.15-12.81-11.27-22.62-24.93-30.31-40.98h-22.34v-13.2h60.05c-1.57-4.67-4.7-11.04-7.97-16.05l18.07-4.21c3.7,5.24,7.97,12.52,9.67,17.19l-12.24,3.07h61.9v13.2h-21.77ZM198.47,68.83c6.12,11.95,14.66,22.54,25.61,31.53,9.82-8.65,17.64-19.01,23.19-31.53h-48.8Z"/>
  </g>
</svg>