<?xml version="1.0" encoding="UTF-8"?>
<svg id="_圖層_1" data-name="圖層 1" xmlns="http://www.w3.org/2000/svg" version="1.1" viewBox="0 0 672 929">
  <defs>
    <style>
      .cls-1 {
        fill: #9500ff;
      }

      .cls-1, .cls-2 {
        stroke-width: 0px;
      }

      .cls-3 {
        fill: none;
        stroke: #9500ff;
        stroke-miterlimit: 10;
        stroke-width: 25.62px;
      }

      .cls-2 {
        fill: #e0ff00;
      }
    </style>
  </defs>
  <rect class="cls-1" x="-.12" y=".22" width="675.62" height="928.78"/>
  <path class="cls-2" d="M675.49,192.87l-264.54,168.45c-17.56-11.3-35.89-22.15-52.41-32.6-76-47.73-159.54-51.32-186.69-8.2-17.77,28.29-6.63,69.76,24.5,108.34-1.1,6.59-1.66,9.91-2.77,16.5l-138.74,88.34C-.46,568.94-16.74,642.32,18.47,697.62l112.33,176.41c35.22,55.3,108.6,71.59,163.9,36.37l289.45-184.31,8.45-5.38,82.89-52.78V192.87Z"/>
  <line class="cls-3" x1="11.08" y1="703.09" x2="251.33" y2="551.24"/>
  <line class="cls-3" x1="66.72" y1="791.13" x2="306.98" y2="639.28"/>
  <line class="cls-3" x1="125.12" y1="883.52" x2="365.38" y2="731.67"/>
  <g>
    <path class="cls-2" d="M54.75,115.11c-5.29,1.23-10.42,2.6-15.88,3.83v32.93c0,7.51-1.54,11.48-6.83,14.07-4.95,2.6-12.47,3.14-23.4,3.01-.34-3.96-2.73-10.66-5.12-15.03,6.15.27,11.96.27,14,.14,2.05,0,2.73-.55,2.73-2.32v-28.56l-16.23,3.83L-.42,111.42c5.81-1.09,12.81-2.6,20.67-4.24v-24.05H2.31v-15.03h17.93v-25.69h18.62v25.69h15.2v15.03h-15.2v20.09l13.15-3.01,2.73,14.89ZM142.87,125.49c-3.59,7.92-8.2,14.62-14.18,20.22,11.27,3.96,21.69,8.06,29.38,11.89l-13.15,11.89c-7.69-4.1-18.96-8.75-31.43-13.39-12.98,6.42-29.89,10.66-51.92,13.8-1.37-4.65-5.29-10.38-8.88-13.8,16.05-1.5,28.86-3.96,39.28-7.52-9.91-3.28-19.81-6.15-28.86-8.61,3.93-4.1,8.37-9.15,12.64-14.48h-19.98v-13.67h29.89c2.73-4.24,5.12-8.33,7.17-12.3h-35.18v-13.8h24.42c-1.71-4.1-5.29-9.84-8.54-14.07l12.81-3.55h-24.77v-13.66h37.23c-1.54-3.42-3.59-6.83-5.47-9.7l22.54-3.14c2.9,3.83,5.98,8.61,8.2,12.84h30.91v13.66h-27.33l15.54,3.69c-3.42,4.92-6.83,9.7-9.91,13.94h24.94v13.8h-61.83l15.54,2.6c-1.71,3.14-3.59,6.42-5.64,9.7h21.18c.85-2.6,1.54-5.33,2.05-8.2l19.3,2.46c-.17,1.91-.68,3.83-1.2,5.74h13.15v13.67h-17.93ZM91.47,68.1c3.93,4.37,7.69,10.11,9.22,14.07l-12.3,3.55h25.96c3.25-4.92,7.17-12.16,9.56-17.63h-32.45ZM96.93,125.49c-2.22,2.87-4.44,5.6-6.66,8.2,6.32,1.78,12.81,3.69,19.47,5.74,4.95-3.83,8.88-8.47,11.96-13.94h-24.76Z"/>
    <path class="cls-2" d="M243.99,78.35c-4.1,5.6-8.88,11.34-14.18,16.81v74.61h-19.47v-56.71c-5.12,4.24-10.25,7.92-15.37,11.2-1.54-3.69-6.66-12.84-9.56-16.81,14.86-8.47,31.43-21.86,40.99-35.12l17.59,6.01ZM241.08,48.83c-10.93,12.57-28.18,25.96-44.06,34.16-1.88-3.69-6.83-10.25-9.91-13.8,13.15-6.42,28.01-17.63,35.01-26.65l18.96,6.29ZM325.11,110.05h20.84v14.76h-20.84v28.15c0,8.06-2.05,12.02-9.22,14.35-6.83,2.32-16.57,2.6-29.89,2.46-.85-4.51-3.76-10.79-6.32-15.17,8.54.41,18.27.41,21.01.27,2.9,0,3.59-.55,3.59-2.32v-27.74h-68.15v-14.76h68.15v-7.79h20.84v7.79ZM346.63,57.99v14.89h-45.6v11.07h38.09v14.76h-96.16v-14.76h37.23v-11.07h-43.04v-14.89h43.04v-15.03h20.84v15.03h45.6ZM262.77,126.31c7.17,6.7,16.91,16.26,21.35,22.27l-17.76,8.06c-4.1-6.29-13.15-16.26-20.32-23.37l16.74-6.97Z"/>
  </g>
</svg>