<?xml version="1.0" encoding="UTF-8"?>
<svg id="_圖層_1" data-name="圖層 1" xmlns="http://www.w3.org/2000/svg" version="1.1" viewBox="0 0 672 929">
  <defs>
    <style>
      .cls-1 {
        fill: #9500ff;
      }

      .cls-1, .cls-2 {
        stroke-width: 0px;
      }

      .cls-2 {
        fill: #e0ff00;
      }
    </style>
  </defs>
  <rect class="cls-1" x=".44" y="-.41" width="675.52" height="929.41"/>
  <rect class="cls-2" x=".44" y="194.28" width="623.55" height="734.72"/>
  <rect class="cls-1" x="184.17" y="328.45" width="275.98" height="18.13"/>
  <rect class="cls-1" x="184.17" y="358.67" width="381.41" height="18.13"/>
  <rect class="cls-1" x="52.2" y="284.18" width="92.62" height="92.62"/>
  <rect class="cls-1" x="182.06" y="533.24" width="275.98" height="18.13"/>
  <rect class="cls-1" x="182.06" y="563.46" width="381.41" height="18.13"/>
  <rect class="cls-1" x="49.84" y="488.97" width="92.62" height="92.62"/>
  <rect class="cls-1" x="182.06" y="592.26" width="275.98" height="18.13"/>
  <g>
    <path class="cls-2" d="M38.84,90.42c-2.27-3.14-6.4-7.76-10.32-11.89-2.58,8.84-7.54,17.18-16.83,23.21-1.75-2.06-5.57-5.37-8.36-7.02,11.35-6.69,14.97-18,16-28.41H4.78v-8.92h14.97v-10.41H6.33v-8.67h13.42v-11.81h11.46v11.81h12.9v8.67h-12.9v10.41h14.55v8.92h-14.97l-.21,1.98c4.34,3.55,14.25,12.63,16.52,14.95l-8.26,7.18ZM88.91,92.65c1.65,0,2.06-1.07,2.27-9.75,2.27,1.4,7.02,2.89,10.12,3.55-1.03,11.73-3.82,14.7-11.15,14.7h-6.81c-9.08,0-11.05-2.73-11.05-10.82v-14.37h-5.26c-1.75,12.14-6.4,21.39-24.57,26.92-1.24-2.31-4.33-5.7-6.61-7.35,15.07-4.05,18.27-10.82,19.61-19.57h-6.61V28.57h45.83v47.4h-11.04v14.2c0,2.23.21,2.48,1.75,2.48h3.51ZM60.21,42.11h22.61v-4.87h-22.61v4.87ZM60.21,54.74h22.61v-4.87h-22.61v4.87ZM60.21,67.3h22.61v-4.87h-22.61v4.87Z"/>
    <path class="cls-2" d="M170.04,38.06h5.47v5.95h-5.47v8.26h-18.99v2.48h20.13v5.37h-20.13v2.48h23.95v6.28h-57.5v-6.28h22.61v-2.48h-18.17v-5.37h18.17v-2.48h-17.96v-5.29h17.96v-2.97h-23.23v-5.95h23.23v-2.64h-17.65v-5.29h17.65v-4.46h10.94v4.46h18.99v7.93ZM116.88,93.31c14.66-.33,37.26-.91,58.43-1.65l-.31,7.35c-20.65.74-42.63,1.49-57.29,1.9l-.83-7.6ZM170.56,71.18v18.91h-48.31v-18.91h48.31ZM131.75,78.44h9.5v-2.73h-9.5v2.73ZM131.75,85.46h9.5v-2.64h-9.5v2.64ZM151.05,38.06h8.67v-2.64h-8.67v2.64ZM159.72,44.01h-8.67v2.97h8.67v-2.97ZM160.55,75.72h-9.08v2.73h9.08v-2.73ZM160.55,82.82h-9.08v2.64h9.08v-2.64ZM189.55,82.16h-11.15v-46.49h11.15v46.49ZM209.48,27.33v64.08c0,5.2-1.34,7.85-5.06,9.33-3.72,1.57-9.29,1.98-17.45,1.9-.41-2.64-2.06-6.85-3.72-9.66,5.47.17,10.53.17,12.28.17,1.65,0,2.27-.41,2.27-1.73V27.33h11.67Z"/>
    <path class="cls-2" d="M248.29,65.48c-4.03-2.81-12.49-6.69-19.1-8.92l6.4-7.51c6.5,1.98,15.28,5.45,19.51,8.26l-6.81,8.18ZM259.55,75.8c-5.47,8.59-11.97,18-18.06,26.01l-10.43-6.61c5.47-6.19,13.32-16.43,19.51-26.01l8.98,6.61ZM251.8,43.43c-3.72-3.05-11.87-7.18-18.37-9.66l6.81-7.18c6.3,2.23,14.76,5.86,18.79,9l-7.23,7.84ZM267.6,65.4h11.05v8.01c0,9.17-1.65,20.73-15.28,29.07-1.75-1.98-5.88-5.12-8.67-6.44,11.56-6.77,12.9-15.77,12.9-22.96v-7.68ZM315.7,65.73c-1.14-1.4-2.68-3.3-4.44-5.29-38.3,2.15-43.87,2.56-47.69,3.72-.62-1.9-2.48-6.61-3.82-9,2.58-.58,4.75-2.31,7.84-5.2,1.24-.99,3.2-2.97,5.57-5.62h-13.52v-8.75h20.75c2.37-3.3,4.85-6.77,6.92-10.32l11.87,3.72c-1.45,2.23-3.1,4.38-4.85,6.61h29.32v8.75h-14.25c5.37,5.2,12.59,12.06,16.31,16.35l-10.01,5.04ZM286.8,44.34c-3.1,3.39-6.3,6.52-9.5,9.5l26.74-1.16c-1.75-1.73-3.41-3.47-4.96-4.96l7.23-3.39h-19.51ZM284.94,66.14h10.74v33.03h-10.74v-33.03ZM319.11,93.39c1.45,0,3.61-.17,4.96-.5.21,2.31.52,5.37.93,7.43-1.55.5-3.72.58-5.78.58h-5.16c-9.7,0-11.56-3.3-11.56-11.15v-24.36h11.25v24.44c0,2.64.1,3.55,1.45,3.55h3.92Z"/>
    <path class="cls-2" d="M375.68,78.86c-1.24-2.15-3.72-5.37-6.19-8.34v32.21h-11.87v-29.65c-3.3,6.36-7.23,12.22-11.25,16.35-1.14-2.81-3.72-6.85-5.68-9.33,5.78-5.37,11.46-14.12,15.28-22.13h-13.11v-9.17h14.76v-9.5c-4.33.66-8.57,1.16-12.59,1.57-.62-2.15-2.06-5.53-3.41-7.51,11.67-1.57,24.46-3.96,32.62-6.85l8.26,7.51c-3.92,1.24-8.36,2.31-13.01,3.3v11.48h11.05v9.17h-11.05v2.39c2.79,1.82,11.25,9,13.21,10.82l-7.02,7.68ZM437.1,92.4v8.59h-58.01v-8.59h23.43v-7.6h-18.27v-8.26h18.27v-6.69c-6.19.41-12.28.66-18.06.83-.41-2.15-1.75-5.45-2.89-7.43,16.1-.74,34.68-2.23,46.04-4.62l7.43,7.43c-5.99,1.16-12.9,2.06-20.23,2.81v7.68h18.27v8.26h-18.27v7.6h22.3ZM432.76,57.63h-47.9v-28.41h47.9v28.41ZM420.79,37.48h-24.57v11.89h24.57v-11.89Z"/>
  </g>
</svg>