<?xml version="1.0" encoding="UTF-8"?>
<svg id="_圖層_1" data-name="圖層 1" xmlns="http://www.w3.org/2000/svg" version="1.1" viewBox="0 0 672 929">
  <defs>
    <style>
      .cls-1 {
        fill: #9500ff;
      }

      .cls-1, .cls-2 {
        stroke-width: 0px;
      }

      .cls-3 {
        fill: none;
        stroke: #e0ff00;
        stroke-miterlimit: 10;
        stroke-width: 6.9px;
      }

      .cls-2 {
        fill: #e0ff00;
      }
    </style>
  </defs>
  <rect class="cls-1" x="-.01" y="-.31" width="670.63" height="932.31"/>
  <rect class="cls-2" x="-.01" y="494.47" width="670.63" height="375.15"/>
  <path class="cls-2" d="M71.77,239.18h527.06c39.62,0,71.78,32.16,71.78,71.78v150.68H-.01v-150.68C-.01,271.34,32.15,239.18,71.77,239.18Z"/>
  <path class="cls-1" d="M151.63,239.18h375.16c39.62,0,71.78,32.16,71.78,71.78v150.68H79.85v-150.68c0-39.62,32.16-71.78,71.78-71.78Z"/>
  <path class="cls-2" d="M175.8,239.18h326.83c39.62,0,71.78,32.16,71.78,71.78v150.68H104.01v-150.68c0-39.62,32.16-71.78,71.78-71.78Z"/>
  <polygon class="cls-1" points="391.01 608.46 282.73 608.46 228.59 702.24 282.73 796.01 391.01 796.01 445.15 702.24 391.01 608.46"/>
  <polygon class="cls-1" points="156.89 641.58 86.84 641.58 51.82 702.24 86.84 762.9 156.89 762.9 191.91 702.24 156.89 641.58"/>
  <polygon class="cls-1" points="586.89 641.58 516.85 641.58 481.83 702.24 516.85 762.9 586.89 762.9 621.91 702.24 586.89 641.58"/>
  <polygon class="cls-1" points="370.32 412.94 300.28 412.94 265.26 473.6 300.28 534.26 370.32 534.26 405.34 473.6 370.32 412.94"/>
  <polygon class="cls-2" points="140.81 669.43 102.92 669.43 83.98 702.24 102.92 735.05 140.81 735.05 159.75 702.24 140.81 669.43"/>
  <polygon class="cls-2" points="570.81 669.43 532.93 669.43 513.99 702.24 532.93 735.05 570.81 735.05 589.75 702.24 570.81 669.43"/>
  <polygon class="cls-2" points="371.89 641.58 301.85 641.58 266.82 702.24 301.85 762.9 371.89 762.9 406.91 702.24 371.89 641.58"/>
  <line class="cls-3" x1="86.84" y1="641.58" x2="104.52" y2="672.2"/>
  <line class="cls-3" x1="136.38" y1="674.67" x2="162.38" y2="637.44"/>
  <line class="cls-3" x1="33.28" y1="702.24" x2="632.62" y2="702.24"/>
  <line class="cls-3" x1="282.73" y1="796.01" x2="306.98" y2="753.68"/>
  <line class="cls-3" x1="394.03" y1="802.51" x2="365.72" y2="751.55"/>
  <line class="cls-3" x1="513.99" y1="633.14" x2="539.68" y2="681.28"/>
  <line class="cls-3" x1="565.16" y1="676.93" x2="593.03" y2="633.93"/>
  <rect class="cls-2" x="-.01" y="810.88" width="51.83" height="99.12"/>
  <rect class="cls-2" x="621.91" y="821.07" width="48.7" height="88.93"/>
  <g>
    <path class="cls-2" d="M124.83,43.83c-5.94,9.28-14.77,19.89-23.2,27.84,7.87,6.41,17.67,11.6,29,14.91-3.59,2.43-8.28,7.4-10.49,10.83-1.79-.66-3.59-1.33-5.25-1.99v10.61h-41.56v30.82h-16.85v-30.82H16.58v-10.83c-2.35,1-4.69,1.88-7.04,2.76-2.07-3.2-6.35-8.07-9.67-10.38,13.39-4.09,26.1-10.94,36.04-19.77-4.14-2.54-9.67-5.86-14.64-8.51-3.31,2.32-7.04,4.53-11.18,6.63-2.07-2.76-6.9-7.07-10.08-8.73,14.22-6.52,23.89-15.47,29-23.42l15.6,2.21c-1.1,1.55-2.21,3.2-3.45,4.75h15.33l2.76-.44,10.49,3.76-.83,2.21,9.39-1.77.14-5.74h32.72l3.18-.77,10.49,5.85ZM27.21,74.54c-6.77,1.1-13.12,1.99-19.61,2.87l-2.35-8.95c5.8-.55,12.84-1.44,20.99-2.21l.97,8.29ZM47.93,112.77c-8.56,7.18-20.71,15.8-30.1,21.1-2.76-2.32-8.7-6.96-12.43-9.06,9.39-4.31,20.44-11.16,27.48-17.01l15.05,4.97ZM112.13,94.21c-8.15-3.65-15.46-8.4-21.54-14.03v6.19h-49.16v-5.19c-6.9,5.19-14.36,9.39-22.51,13.04h93.2ZM29.98,52.56c4.7,2.32,9.67,4.86,13.67,7.18,2.35-2.76,4.42-5.63,6.21-8.73h-18.09l-1.79,1.55ZM85.07,74.66c-6.9-7.62-12.56-16.68-16.84-26.62-4.42,10.27-11.05,19.11-18.92,26.62h35.76ZM95.7,107.8c8.56,5.85,21.13,14.47,27.34,19.88l-14.5,7.07c-5.52-5.3-17.54-14.47-26.37-20.88l13.53-6.08ZM83.41,49.47c2.49,4.64,5.52,8.95,8.98,13.04,3.59-4.09,7.32-8.62,10.22-13.04h-19.19Z"/>
    <path class="cls-2" d="M157.02,87.36h52.47v49.16h-16.43v-4.97h-20.57v5.52h-15.46v-49.71ZM172.48,99.95v19h20.57v-19h-20.57ZM256.84,78.19h-80.91v-39.99h80.91v39.99ZM240.14,50.79h-48.33v14.91h48.33v-14.91ZM275.49,87.36v49.27h-16.57v-5.08h-21.95v5.52h-15.74v-49.71h54.26ZM258.92,118.96v-19h-21.95v19h21.95Z"/>
  </g>
</svg>