<?xml version="1.0" encoding="UTF-8"?>
<svg id="_圖層_1" data-name="圖層 1" xmlns="http://www.w3.org/2000/svg" version="1.1" viewBox="0 0 672 929">
  <defs>
    <style>
      .cls-1 {
        fill: #9500ff;
      }

      .cls-1, .cls-2 {
        stroke-width: 0px;
      }

      .cls-2 {
        fill: #e0ff00;
      }
    </style>
  </defs>
  <rect class="cls-1" x="-.1" y=".16" width="671.77" height="928.84"/>
  <circle class="cls-2" cx="335.79" cy="576.24" r="336.76"/>
  <circle class="cls-1" cx="335.79" cy="576.24" r="119.96"/>
  <circle class="cls-2" cx="335.79" cy="576.24" r="36.29"/>
  <rect class="cls-2" x="556.82" y=".16" width="22.24" height="343.33"/>
  <polygon class="cls-1" points="463.9 459.02 441.89 437.01 556.8 322.1 579.06 343.49 463.9 459.02"/>
  <rect class="cls-1" x="425.45" y="421.07" width="51.05" height="57.14" rx="12.08" ry="12.08" transform="translate(450.03 -187.19) rotate(45)"/>
  <g>
    <path class="cls-2" d="M76.11,42.06v7.09H1.14v-7.09h18.3c-.75-2.27-2.01-4.88-3.34-6.95l8.11-1.27H5.82v-7.02h28.16c-.67-1.67-1.67-3.41-2.59-4.81l10.36-1.34c1.42,1.8,2.67,4.15,3.51,6.15h26.91v7.02h-17.3l7.69,1.34c-1.42,2.47-2.84,4.81-4.18,6.89h17.72ZM11.51,53.23h55.07v30.69h-10.45v-2.27H21.54v2.34h-10.03v-30.76ZM21.54,59.85v4.41h34.6v-4.41H21.54ZM56.13,75.09v-4.81H21.54v4.81h34.6ZM26.05,33.84c2.01,2.54,3.68,5.82,4.26,8.22h17.22c1.34-2.47,2.84-5.62,3.76-8.22h-25.24Z"/>
    <path class="cls-2" d="M121.91,69.08c-5.85,5.75-15.63,10.63-25.57,12.84-1.5-1.94-4.43-5.01-6.52-6.55,9.28-1.47,18.97-4.81,24.07-8.76l8.02,2.47ZM111.05,55.64c-.08-.8-.25-1.74-.42-2.74-12.37,1.34-14.71,1.8-16.13,2.34-.42-1.14-1.67-4.21-2.59-5.75,1.75-.33,3.34-1.6,5.43-3.54.84-.8,2.67-2.61,4.76-4.95-4.93.54-6.44.87-7.35,1.27-.42-1.27-1.67-4.15-2.59-5.75,1.25-.2,2.34-1.2,3.51-2.61,1.17-1.4,4.85-6.62,6.69-11.7l7.69,2.14c-2.09,3.88-4.93,8.02-7.86,11.43l4.35-.27c1.34-1.87,2.76-3.81,3.84-5.75l7.02,3.08c-3.93,5.48-9.19,11.03-14.46,15.71l6.6-.53c-.33-1.54-.75-3.01-1.17-4.35l6.27-1.14c1.34,3.74,2.51,8.63,3.01,11.9l-6.6,1.2ZM135.03,64.66v18.99h-9.94v-18.99h-33.09v-6.55h33.09v-3.21h9.94v3.21h32.34v6.55h-32.34ZM141.64,27.22v26.21h-23.48v-26.21h6.69c.67-2.14,1.25-4.48,1.42-6.29l9.03,1.2-2.67,5.08h9.03ZM132.86,33.04h-6.27v4.48h6.27v-4.48ZM132.86,42.93h-6.27v4.68h6.27v-4.68ZM145.15,65.87c7.27,2.94,17.38,7.62,22.4,10.83l-6.35,5.68c-4.6-3.28-14.46-8.29-21.9-11.57l5.85-4.95ZM164.7,43.27c1.42,3.61,2.84,8.49,3.51,11.57l-6.69,1.47c-.08-.8-.25-1.67-.42-2.61-12.45,1.07-14.88,1.47-16.38,2.07-.42-1.27-1.67-4.35-2.59-6.02,1.75-.33,3.43-1.61,5.52-3.48.92-.8,2.76-2.67,5.1-5.15-5.85.67-7.44,1-8.52,1.47-.42-1.34-1.67-4.28-2.59-5.88,1.17-.27,2.34-1.27,3.51-2.67,1.09-1.4,4.85-6.75,6.77-11.9l8.02,1.81c-2.09,4.15-5.1,8.36-7.94,11.83l5.52-.4c1.25-1.67,2.51-3.48,3.59-5.28l7.19,3.28c-4.26,5.48-9.53,11.17-14.96,15.78l6.52-.47c-.42-1.47-.84-2.88-1.25-4.15l6.1-1.27Z"/>
    <path class="cls-2" d="M195.05,53.56c-3.09-1.87-9.61-5.01-14.12-7.15l5.01-6.08c4.18,1.87,10.86,4.68,14.12,6.55l-5.01,6.69ZM183.01,78.37c3.84-5.15,9.36-13.64,13.54-21.33l7.1,4.41c-3.76,7.09-8.44,14.84-12.7,21.26l-7.94-4.35ZM197.81,36.11c-2.67-2.14-8.44-5.68-12.37-8.16l5.68-5.48c4.01,2.21,9.86,5.35,12.79,7.42l-6.1,6.22ZM260.07,41.93v5.68h-58.33v-5.68h24.24v-3.14h-19.47v-5.28h19.47v-2.94h-21.81v-5.68h21.81v-3.48h9.95v3.48h22.31v5.68h-22.31v2.94h20.22v5.28h-20.22v3.14h24.15ZM253.72,76.03c0,3.68-1.09,5.42-4.18,6.55-3.09,1.07-7.52,1.14-13.37,1.14-.42-2.07-1.75-4.88-2.92-6.75,3.34.13,7.44.13,8.61.07,1.17-.07,1.59-.27,1.59-1.07v-2.74h-25.91c-1.09,3.95-3.01,7.82-6.18,10.77-1.5-1.61-5.6-4.68-7.61-5.68,4.76-4.55,5.18-10.9,5.18-16.05v-11.9h44.79v25.68ZM243.44,67.94v-3.48h-24.65c-.08,1.14-.17,2.27-.33,3.48h24.99ZM218.78,55.91v3.48h24.65v-3.48h-24.65Z"/>
    <path class="cls-2" d="M349.41,75.36h-32.51v8.49h-10.2v-8.49h-31.76v-6.82h31.76v-3.48h-23.82v-25.07h59.25v25.07h-25.24v3.48h32.51v6.82ZM309.72,37.38h-29.83v-13.37h29.83v13.37ZM300.44,28.76h-11.7v3.88h11.7v-3.88ZM292.58,49.69h14.12v-3.54h-14.12v3.54ZM306.71,58.98v-3.61h-14.12v3.61h14.12ZM344.82,37.38h-30v-13.37h30v13.37ZM331.95,46.14h-15.04v3.54h15.04v-3.54ZM331.95,55.37h-15.04v3.61h15.04v-3.61ZM335.54,28.76h-11.95v3.88h11.95v-3.88Z"/>
  </g>
</svg>