<?xml version="1.0" encoding="UTF-8"?>
<svg id="_圖層_1" data-name="圖層 1" xmlns="http://www.w3.org/2000/svg" version="1.1" viewBox="0 0 672 929">
  <defs>
    <style>
      .cls-1 {
        fill: #9500ff;
      }

      .cls-1, .cls-2 {
        stroke-width: 0px;
      }

      .cls-2 {
        fill: #e0ff00;
      }
    </style>
  </defs>
  <rect class="cls-1" x=".94" y="-.15" width="671.06" height="932.15"/>
  <rect class="cls-2" x=".42" y="745.39" width="671.58" height="186.61"/>
  <path class="cls-2" d="M189.38,192.41h289.76c59.5,0,107.81,48.31,107.81,107.81v512.34H81.57V300.22c0-59.5,48.31-107.81,107.81-107.81Z"/>
  <rect class="cls-1" x=".42" y="812.56" width="671.58" height="82.07"/>
  <rect class="cls-1" x="147.34" y="295.93" width="206.7" height="27.87"/>
  <rect class="cls-1" x="147.34" y="342.37" width="285.66" height="27.87"/>
  <g>
    <path class="cls-2" d="M128.54,114.89c8.89,4.82,20.47,8.89,32.53,11.04-3.81,2.67-9.04,8-11.42,11.55-9.04-2.29-17.77-5.58-25.39-9.9v6.6h-29.99v7.11h53.32v11.42H23.97v-11.42h52.05v-7.11h-29.83v-6.73c-7.3,3.94-16.03,7.36-26.02,10.41-1.9-3.55-6.82-8.63-10.31-11.04,12.69-3.3,22.69-7.36,30.62-11.93H13.34v-11.81h41.89c1.43-1.65,2.7-3.3,3.65-4.95h-28.09v-35.92h109.8v35.92h-62.04c-1.11,1.65-2.06,3.3-3.17,4.95h82.04v11.81h-28.88ZM48.73,56.37H15.09v-11.81h33.64v-6.85h17.3v6.85h17.45v11.81h-17.45v3.81h-17.3v-3.81ZM50.15,76.04h70.45v-5.33H50.15v5.33ZM50.15,89.63h70.45v-5.46H50.15v5.46ZM117.75,123.52c-3.97-2.67-7.46-5.46-10.47-8.63h-42.68c-3.49,3.05-7.3,5.84-11.58,8.63h23.01v-8.38h18.25v8.38h23.48ZM103.15,56.37h-15.07v-11.81h15.07v-6.85h17.45v6.85h35.23v11.81h-35.23v3.81h-17.45v-3.81Z"/>
    <path class="cls-2" d="M234.85,104.22l4.29,13.46c-16.5,6.47-34.27,13.33-48.71,18.53l-7.62-15.23c5.87-1.65,12.85-3.68,20.63-6.22v-33.64h-17.14v-14.34h17.14v-27.55h17.45v27.55h14.76v14.34h-14.76v27.8l13.96-4.7ZM305.62,140.27c8.57,0,10.16-2.92,11.58-15.87,4.12,2.28,11.27,4.7,16.5,5.46-2.54,17.77-7.93,23.86-26.5,23.86h-33.8c-21.42,0-27.61-4.7-27.61-22.09v-32.75l-8.57,2.92-6.98-13.33,15.55-5.33v-33.38h18.09v27.16l13.17-4.44v-35.04h17.61v28.94l17.3-5.97,14.28,3.68-.63,2.29c-.95,17.64-3.17,40.75-6.98,55.98l-15.39-3.43c1.75-10.28,3.01-26.4,3.65-41.38l-12.22,4.32v44.81h-17.61v-38.72l-13.17,4.57v39.22c0,7.36,1.43,8.5,11.11,8.5h30.62Z"/>
  </g>
</svg>