<?xml version="1.0" encoding="UTF-8"?>
<svg id="_圖層_1" data-name="圖層 1" xmlns="http://www.w3.org/2000/svg" version="1.1" viewBox="0 0 672 929">
  <defs>
    <style>
      .cls-1 {
        fill: #9500ff;
      }

      .cls-1, .cls-2 {
        stroke-width: 0px;
      }

      .cls-2 {
        fill: #e0ff00;
      }
    </style>
  </defs>
  <rect class="cls-1" x=".15" width="672.24" height="929"/>
  <path class="cls-2" d="M142.75,628.5c-67.85,49.29-183.79-110.28-115.94-159.58,67.85-49.29,183.79,110.28,115.94,159.58Z"/>
  <path class="cls-2" d="M144.17,821.74c-71.57,52-193.88-116.34-122.31-168.34,71.57-52,193.88,116.34,122.31,168.34Z"/>
  <path class="cls-2" d="M179.75,866.37c45.74,33.23,123.91-74.35,78.17-107.59-45.74-33.23-123.91,74.35-78.17,107.59Z"/>
  <rect class="cls-2" x="146.86" y="410.57" width="42.24" height="518.43"/>
  <rect class="cls-2" x="389.23" y="267.6" width="42.69" height="661.4"/>
  <rect class="cls-2" x="450.53" y="780.21" width="64.51" height="148.79"/>
  <path class="cls-2" d="M248.81,179.05h0s0,0,0,0c82.33,0,116.56,105.35,49.95,153.74h0s0,0,0,0c25.44,78.3-64.18,143.41-130.78,95.02h0s0,0,0,0c-66.61,48.39-156.22-16.72-130.78-95.02h0s0,0,0,0C-29.41,284.4,4.82,179.05,87.15,179.05h0c25.44-78.3,136.21-78.3,161.66,0Z"/>
  <path class="cls-2" d="M555.84,484.17h0s0,0,0,0c111.34,0,157.64,142.48,67.56,207.93h0s0,0,0,0c34.41,105.89-86.79,193.95-176.87,128.51h0s0,0,0,0c-90.08,65.45-211.28-22.61-176.87-128.51h0s0,0,0,0c-90.08-65.45-43.78-207.93,67.56-207.93h0c34.41-105.9,184.22-105.9,218.63,0Z"/>
  <path class="cls-2" d="M338.16,207.18h0s0,0,0,0c-24.15-74.33,60.92-136.14,124.15-90.2h0s0,0,0,0c63.23-45.94,148.3,15.87,124.15,90.2h0s0,0,0,0c63.23,45.94,30.73,145.94-47.42,145.94h0s0,0,0,0c-89.54,0-174.97-73.37-200.88-145.94Z"/>
  <circle class="cls-1" cx="169.45" cy="290.3" r="34.74"/>
  <circle class="cls-1" cx="416.29" cy="663.88" r="27.07"/>
  <circle class="cls-1" cx="450.3" cy="605.38" r="27.07"/>
  <circle class="cls-1" cx="484.76" cy="663.88" r="27.07"/>
  <g>
    <path class="cls-2" d="M26.56,22.12h6.18v6.36h-6.18v4.77h-7.67l7.67,1.93c-1.49,2.39-3.2,4.77-5.19,7.1v27.9h-8.38v-19.44c-2.06,1.65-4.05,3.24-6.04,4.55-1.56-1.31-4.97-3.7-6.96-4.77,7.32-4.09,14.21-10.69,18.18-17.45v-4.6H2.27v-6.36h15.91v-5h8.38v5ZM55.75,63.2c2.84,0,3.34-1.36,3.76-8.35,1.85,1.08,5.33,2.22,7.6,2.67-.92,9.15-3.2,11.93-10.58,11.93h-10.8c-8.45,0-10.79-2.1-10.79-9.09v-26.2h8.38v8.13h21.95v6.31h-21.95v11.76c0,2.5.43,2.84,3.48,2.84h8.95ZM41.55,28.48h-6.46v-6.36h6.46v-5h8.52v5h15.48v6.36h-15.48v4.89h-8.52v-4.89Z"/>
    <path class="cls-2" d="M143.23,50.07h-12.36v20h-8.81v-20h-21.59c-.57,7.44-3.62,15.06-15.98,20.17-1.28-1.53-4.12-4.15-6.11-5.34,9.87-3.98,12.71-9.49,13.35-14.83h-12.29v-6.65h12.5v-7.27h8.66v7.27h21.45v-7.27h8.81v7.27h12.36v6.65ZM106.94,30.75h-23.51v-6.54h23.51v-7.16h8.81v7.16h23.58v6.54h-23.58v8.13h-8.81v-8.13Z"/>
  </g>
</svg>