<?xml version="1.0" encoding="UTF-8"?>
<svg id="_圖層_1" data-name="圖層 1" xmlns="http://www.w3.org/2000/svg" xmlns:xlink="http://www.w3.org/1999/xlink" version="1.1" viewBox="0 0 672 929">
  <defs>
    <style>
      .cls-1 {
        clip-path: url(#clippath);
      }

      .cls-2 {
        fill: none;
      }

      .cls-2, .cls-3, .cls-4 {
        stroke-width: 0px;
      }

      .cls-3, .cls-5 {
        fill: #9500ff;
      }

      .cls-5 {
        stroke: #9500ff;
        stroke-miterlimit: 10;
        stroke-width: 7.15px;
      }

      .cls-4 {
        fill: #e0ff00;
      }
    </style>
    <clipPath id="clippath">
      <rect class="cls-2" x="33.51" y="213.73" width="607.05" height="715.27"/>
    </clipPath>
  </defs>
  <rect class="cls-3" x="-.49" y="-.45" width="674.49" height="929.45"/>
  <g class="cls-1">
    <g>
      <path class="cls-4" d="M556.35,437.93c0,123.59-117.18,232.98-223.77,232.98s-223.77-109.4-223.77-232.98,80.39-224.2,223.77-224.2,223.77,100.62,223.77,224.2Z"/>
      <circle class="cls-4" cx="557.41" cy="452.05" r="51.09"/>
      <circle class="cls-4" cx="112.2" cy="452.05" r="51.09"/>
      <rect class="cls-4" x="294.28" y="656.13" width="76.59" height="111.3"/>
      <g>
        <path class="cls-4" d="M537.94,873.14c-.21-5.52-.77-11.02-1.63-16.42-1.13-7.19-2.79-14.28-4.9-21.2-3.59-11.52-8.52-22.56-14.67-32.98-8.4-14.31-19.03-27.52-31.53-39.22-4.96-4.66-10.18-9.06-15.71-13.21-27.31-20.69-61.19-35.27-98.66-41.27-12.39-1.96-25.17-2.99-38.24-3h0s-.02,0-.03,0-.02,0-.03,0h0c-13.07,0-25.85,1.04-38.24,3-37.47,6-71.34,20.57-98.66,41.27-5.52,4.16-10.75,8.55-15.71,13.21-12.5,11.7-23.13,24.91-31.53,39.22-6.15,10.42-11.07,21.47-14.67,32.98-2.11,6.92-3.77,14.01-4.9,21.2-.86,5.4-1.43,10.9-1.63,16.42-.12,2.23-.18,4.42-.18,6.68,0,30.46,9.23,59.08,25.5,83.99,4.75,7.27,10.09,14.22,16,20.81,7.21,8.08,15.2,15.59,23.96,22.45l.03.03c.86.71,1.72,1.37,2.61,2.05,4.57,3.5,9.35,6.83,14.28,9.95.36.24.74.45,1.1.68h.03v.03c21.5,13.42,46.11,23.4,72.8,28.92.8.21,1.63.39,2.43.53,4.93.98,9.95,1.81,15.05,2.46,5.37.71,10.81,1.25,16.33,1.6,3.64.23,7.31.35,11,.41,0,.01.01.02.02.04h.03c1.45.03,2.88.03,4.33.03,0,0,.02,0,.03,0s.02,0,.03,0c1.45,0,2.88,0,4.33-.03h.03s.01-.02.02-.04c3.68-.06,7.35-.18,11-.41,5.52-.36,10.96-.89,16.33-1.6,5.11-.65,10.12-1.48,15.05-2.46.8-.15,1.63-.33,2.43-.53,26.69-5.52,51.3-15.5,72.8-28.92v-.03h.03c.36-.24.74-.45,1.1-.68,4.93-3.12,9.71-6.44,14.28-9.95.89-.68,1.75-1.34,2.61-2.05l.03-.03c8.76-6.86,16.75-14.37,23.96-22.45,5.91-6.59,11.25-13.54,16-20.81,16.27-24.91,25.5-53.53,25.5-83.99,0-2.26-.06-4.45-.18-6.68Z"/>
        <path class="cls-4" d="M472.62,1584.47l-16.92-530.94-.77-24.17v-.03l-.33-9.53v-.03l-1.4-44.36-.12-3.83-4.57-143.28v-.03l-1.84-57.57h-228.2l-1.84,57.57v.03l-4.57,143.28-.12,3.83-1.4,44.36v.03l-.33,9.53v.03l-.77,24.17-16.92,530.94-2.14,67.34h103.91l.53-13.33v-.33l.12-2.76c.03-.24.03-.5.03-.74l18.02-448.34h39.13l18.02,448.34c0,.24,0,.5.03.74l.12,2.76v.33l.53,13.33h103.91l-2.14-67.34Z"/>
        <path class="cls-4" d="M113.15,1033.55c20.34,6.25,41.94-5.18,48.18-25.52l7.21-23.4,5.13-16.69,42.96-139.63,17.72-57.6,2.44-7.96-41.14-12.66c-5.52,4.15-10.76,8.55-15.71,13.2-12.5,11.72-23.15,24.92-31.54,39.22-6.13,10.44-11.08,21.48-14.66,33l-46.11,149.82c-.43,1.41-.78,2.85-1.05,4.26-.05.21-.07.39-.11.59-.05.27-.11.57-.14.84-2.78,18.54,8.35,36.83,26.82,42.51Z"/>
        <path class="cls-4" d="M552,1033.55c-20.34,6.25-41.94-5.18-48.18-25.52l-7.21-23.4-5.13-16.69-42.96-139.63-17.72-57.6-2.44-7.96,41.14-12.66c5.52,4.15,10.76,8.55,15.71,13.2,12.5,11.72,23.15,24.92,31.54,39.22,6.13,10.44,11.08,21.48,14.66,33l46.11,149.82c.43,1.41.78,2.85,1.05,4.26.05.21.07.39.11.59.05.27.11.57.14.84,2.78,18.54-8.35,36.83-26.82,42.51Z"/>
      </g>
      <g>
        <ellipse class="cls-5" cx="246.67" cy="426.04" rx="63.54" ry="41.22"/>
        <circle class="cls-4" cx="246.67" cy="426.04" r="28.45"/>
      </g>
      <g>
        <ellipse class="cls-5" cx="420.47" cy="426.12" rx="63.54" ry="41.22"/>
        <circle class="cls-4" cx="420.47" cy="426.12" r="28.45"/>
      </g>
    </g>
  </g>
  <g>
    <path class="cls-4" d="M78.7,36.09c-.15,5.1-.46,11.65-1.06,18.93,2.12,16.38,11.38,62.12,64.32,80.81-5.61,3.52-10.77,8.37-13.2,12.5-33.67-12.86-50.51-36.52-59.31-57.39-8.34,21.36-24.27,43.32-55.82,58.12-3.19-3.88-8.95-8.49-15.02-11.77,61.59-26.33,58.7-80.69,59.31-101.2h20.78Z"/>
    <path class="cls-4" d="M266.18,128.18c14.26,3.4,30.19,7.77,40.65,11.16l-15.93,10.19c-11.68-4.37-32.61-10.31-48.69-14.08l12.74-7.28h-41.41l11.68,6.55c-12.29,5.7-31.7,11.53-47.02,14.56-3.34-3.03-9.56-7.52-13.65-10.31,13.2-2.3,28.82-6.67,39.14-10.8h-23.81v-53.63h110.88v53.63h-24.57ZM285.44,70.06h-98.75v-30.33h98.75v30.33ZM197.77,89.6h74.33v-5.22h-74.33v5.22ZM197.77,103.92h74.33v-5.1h-74.33v5.1ZM197.77,118.48h74.33v-5.34h-74.33v5.34ZM266.18,51.01h-61.28v7.89h61.28v-7.89Z"/>
    <path class="cls-4" d="M408.76,105.49c-.91,2.06-1.82,4-2.88,5.82h54.15v24.75c0,5.82-1.21,8.98-6.07,10.92-4.7,1.94-10.92,2.06-19.11,2.06-.61-3.64-3.03-8.49-5.16-11.77,4.55.12,9.25.12,10.77.12,1.67,0,2.12-.36,2.12-1.58v-13.23h-16.53v25.72h-16.38v-25.72h-15.93v25.72h-16.38v-25.72h-15.47v26.33h-16.99v-37.61h43.84c.61-1.94,1.21-3.88,1.67-5.82h-56.88v-11.16h20.93l-4.4-9.71c9.56-.97,22.6-2.55,36.25-4.12l.61,8.13c-10.77,2.06-21.54,4-30.94,5.7h112.1v11.16h-59.31ZM351.27,84.26h-17.14v-27.3h57.34v-5.7h-50.51v-10.31h118.92v10.31h-50.82v5.7h58.55v27.3h-18.05v-16.62h-8.5l5.76,6.19c-8.19,2.67-19.26,4.73-27.15,5.95l-5.61-6.92c6.07-.85,15.02-3.28,21.54-5.22h-26.55v23.42h-17.6v-23.42h-30.03c8.34,1.21,18.96,3.28,24.57,4.97l-4.7,7.89c-6.07-1.94-17.6-4.61-26.24-6.07l4.7-6.79h-8.49v16.62ZM415.13,79.41c11.23.97,26.7,3.52,35.04,5.82l-3.34,9.1c-8.19-2.43-23.82-5.46-35.19-6.92l3.49-8.01Z"/>
    <path class="cls-4" d="M629.3,80.5c-8.8,7.89-19.57,16.62-28.82,23.18,10.62,9.34,23.21,17.11,37.47,22.08-4.4,3.03-10.31,8.86-13.35,12.98-20.93-8.74-37.16-22.93-49.45-40.53v33.25c0,8.62-2.12,12.5-8.49,14.92-6.22,2.55-16.08,3.03-29.58,2.91-.76-4.13-3.34-10.92-6.07-15.17,9.1.36,18.66.24,21.69.24s3.94-.73,3.94-3.03v-18.69c-17.29,8.98-35.34,17.96-50.06,25l-11.53-13.1c14.56-5.95,39.14-16.75,61.58-27.06v-29.24h-57.03v-13.95h57.03v-18.08h18.51v18.08h30.19c-6.22-3.28-13.96-6.79-20.48-9.46l10.77-9.1c8.95,3.28,21.54,8.74,28.06,12.62l-6.67,5.95h16.53v13.95h-58.4v1.46c3.94,8.13,8.95,16.02,15.32,23.42,8.04-6.55,17.14-14.68,22.9-21.48l15.93,8.86ZM528.88,103.43c-4.4-6.67-15.02-16.26-24.12-23.05l13.8-7.64c8.95,6.31,20.17,15.41,25.03,21.96l-14.71,8.74Z"/>
  </g>
</svg>