<?xml version="1.0" encoding="UTF-8"?>
<svg id="_圖層_1" data-name="圖層 1" xmlns="http://www.w3.org/2000/svg" version="1.1" viewBox="0 0 672 929">
  <defs>
    <style>
      .cls-1 {
        fill: #9500ff;
      }

      .cls-1, .cls-2 {
        stroke-width: 0px;
      }

      .cls-2 {
        fill: #e0ff00;
      }
    </style>
  </defs>
  <rect class="cls-1" x="1.51" y=".24" width="670.49" height="931.76"/>
  <polygon class="cls-2" points="672 892.84 146.48 892.84 1.51 424.18 672 424.18 672 892.84"/>
  <rect class="cls-2" x="300.7" y="283.31" width="371.3" height="140.87"/>
  <rect class="cls-2" x="526.33" y="158.7" width="145.67" height="48.76"/>
  <rect class="cls-2" x="564.79" y="183.08" width="107.21" height="113.27"/>
  <rect class="cls-1" x="382.39" y="319.86" width="289.61" height="24.88"/>
  <rect class="cls-1" x="382.39" y="366.02" width="289.61" height="24.88"/>
  <rect class="cls-1" x="382.39" y="489.76" width="289.61" height="61.23"/>
  <rect class="cls-1" x="317.62" y="489.76" width="63.41" height="61.23"/>
  <g>
    <path class="cls-2" d="M25.42,54.19c-.22-.81-.51-1.74-.87-2.73-15.52,2.03-18.13,2.55-19.8,3.19-.43-1.22-1.81-4.35-2.68-6.03,1.88-.29,3.62-1.68,6.09-3.83.94-.81,2.83-2.5,5-4.82-6.16.58-7.83.93-8.99,1.33-.43-1.28-1.67-4.23-2.61-5.92,1.52-.29,2.83-1.39,4.35-3.08,1.67-1.62,6.6-8.12,9.5-14.27l7.69,2.55c-2.97,4.87-6.74,9.86-10.66,13.98l5.87-.35c1.96-2.5,3.92-5.11,5.58-7.72l6.96,3.6c-4.42,5.98-10.08,11.95-15.88,16.94l7.4-.81c-.58-1.39-1.3-2.79-1.96-4.06l6.24-1.86c2.17,3.71,4.42,8.64,5.37,11.66l-6.6,2.21ZM12.08,57.44c-.43,5.22-1.67,10.73-3.26,14.21-1.52-.64-5.08-1.57-6.89-1.92,1.67-3.42,2.54-8.59,2.97-13.23l7.18.93ZM20.56,56.05c.87,3.89,1.74,8.76,1.96,12.07l-6.96,1.22c-.14-3.37-.87-8.41-1.67-12.24l6.67-1.04ZM28.47,54.02c1.45,3.13,2.97,7.14,3.63,9.8l-6.6,1.86c-.51-2.73-2.03-6.85-3.26-10.09l6.24-1.57ZM57.83,46.88c.87,10.96,2.61,18.62,4.86,18.62,1.01,0,1.45-2.9,1.59-8.7,1.67,1.39,4.42,2.67,6.45,3.36-.94,9.34-3.34,11.72-8.92,11.72-7.47,0-10.59-10.67-11.82-25h-9.43v16.65l9.57-2.26c.14,1.8.58,4.53,1.01,5.92-13.63,3.65-16.17,4.64-17.69,5.57-.65-1.45-2.54-4-3.77-5.11,1.38-.81,2.83-2.44,2.83-5.16V24.2h.07c10.73-1.28,22.62-3.25,30.24-5.22l5.95,5.57c-3.41.81-7.4,1.57-11.38,2.2-.15,4.82-.07,9.46.07,13.75h11.75v6.38h-11.38ZM49.49,40.5c-.22-4-.29-8.24-.36-12.47-2.9.41-5.73.75-8.56,1.1v11.37h8.92Z"/>
    <path class="cls-2" d="M131.87,48.04c5.15,3.13,12.25,7.83,15.81,10.79l-6.45,3.95c-1.3-1.28-3.34-2.79-5.44-4.41l-14.21.87v6.15c0,3.31-.87,5.05-4.06,6.09-3.12.99-7.11,1.04-12.33,1.04-.51-1.97-1.96-4.7-3.19-6.56-3.99,2.09-8.63,4.12-12.25,5.57-1.67-1.28-4.86-3.42-6.82-4.41,5.44-1.57,11.53-3.94,15.52-6.15l7.76,2.67c-1.23.7-2.61,1.51-4.13,2.26,3.7.12,8.12.12,9.21.12,1.23,0,1.59-.17,1.59-.81v-5.45c-19.14,1.16-22.33,1.51-24.8,2.26v-.29c-.07.12-.15.17-.15.29-.29-1.16-1.3-4.06-2.03-5.63,2.68-.23,5.37-.93,9.5-2.2,1.74-.46,4.71-1.39,8.34-2.73-8.27.58-10.15.87-11.46,1.33-.29-1.16-1.23-3.95-1.96-5.45,1.74-.17,3.55-.75,6.02-1.62,1.16-.35,3.34-1.22,5.95-2.32h-6.82v-8.88c-2.83,3.07-6.02,5.74-9.35,7.54-1.09-1.39-3.34-3.42-5-4.58,4.35-1.92,8.92-5.34,12.04-8.99h-10.37v-5.63h12.69v-4.41h7.98v4.41h11.09v5.63h-10.22c2.9,1.33,8.7,4.06,10.37,4.99l-4.28,4.64c-1.6-1.16-4.42-3.02-6.96-4.64v9.4c3.12-1.33,6.82-3.13,9.86-4.99l5.51,3.77c-3.7,1.91-7.9,3.77-12.11,5.34l9.79-.46c2.97-1.33,5.87-2.67,8.63-4.12l5,4.47c-6.45,3.08-13.41,5.8-20.52,8.12l19.94-1.04c-1.23-.87-2.47-1.74-3.63-2.5l5.95-3.42ZM128.53,42.47c-8.34,0-10.44-1.91-10.44-8.01v-16.07h8.34v15.95c0,2.03.43,2.32,3.19,2.32h8.19c2.54,0,2.97-1.22,3.34-8.24,1.74,1.04,5.15,2.15,7.4,2.61-.87,8.99-2.97,11.43-10.08,11.43h-9.93ZM130.56,60.52c5.37,1.91,12.18,4.82,16.1,6.73l-6.45,4.12c-3.77-2.09-10.73-5.34-16.1-7.31l6.45-3.54Z"/>
  </g>
</svg>