<svg width="79" height="47" viewBox="0 0 79 47" fill="none" xmlns="http://www.w3.org/2000/svg">
    <path d="M20.1557 37.62C16.3157 37.62 12.9258 36.87 9.98576 35.36C7.04576 33.86 4.74575 31.72 3.08575 28.95C1.42575 26.18 0.595764 22.89 0.595764 19.09C0.595764 15.29 1.42575 11.97 3.08575 9.25C4.74575 6.53 7.04576 4.45001 9.98576 3.01001C12.9258 1.57001 16.3157 0.849976 20.1557 0.849976C23.9957 0.849976 27.4358 1.57997 30.3558 3.02997C33.2758 4.48997 35.5658 6.56996 37.2258 9.26996C38.8858 11.97 39.7158 15.25 39.7158 19.09C39.7158 22.93 38.8858 26.19 37.2258 28.95C35.5658 31.72 33.2758 33.85 30.3558 35.36C27.4358 36.86 24.0357 37.62 20.1557 37.62ZM20.1557 32.39C22.4757 32.39 24.4958 31.85 26.2158 30.78C27.9358 29.71 29.2658 28.18 30.2058 26.2C31.1458 24.22 31.6158 21.85 31.6158 19.1C31.6158 16.35 31.1458 14.16 30.2058 12.26C29.2658 10.36 27.9358 8.89 26.2158 7.87C24.4958 6.85 22.4757 6.32996 20.1557 6.32996C17.8357 6.32996 15.8157 6.84 14.0957 7.87C12.3757 8.89 11.0558 10.36 10.1358 12.26C9.21576 14.16 8.75577 16.44 8.75577 19.1C8.75577 21.76 9.21576 24.22 10.1358 26.2C11.0558 28.18 12.3757 29.71 14.0957 30.78C15.8157 31.85 17.8357 32.39 20.1557 32.39ZM34.2558 46.36C31.2558 46.36 28.5557 45.94 26.1557 45.11C23.7557 44.28 21.7158 43.13 20.0358 41.68C18.3558 40.22 17.0758 38.58 16.1958 36.76L24.2958 36.14C24.8558 37.32 25.6858 38.29 26.7858 39.04C27.8858 39.79 29.1657 40.34 30.6257 40.7C32.0857 41.05 33.5957 41.23 35.1557 41.23C36.1157 41.23 36.9958 41.17 37.7958 41.06C38.5958 40.95 39.3158 40.81 39.9558 40.65L41.3958 45.35C40.6358 45.64 39.6358 45.88 38.3958 46.07C37.1558 46.26 35.7758 46.36 34.2558 46.36Z" fill="#E0FF00"/>
    <path d="M63.4158 37.62C61.0958 37.62 59.0358 37.4 57.2358 36.95C55.4358 36.5 53.8358 35.91 52.4358 35.17C51.0358 34.43 49.8358 33.6 48.8358 32.67L52.6158 28.69C53.9358 29.71 55.4158 30.59 57.0558 31.33C58.6958 32.07 60.5958 32.43 62.7558 32.43C64.3558 32.43 65.7558 32.23 66.9558 31.83C68.1558 31.43 69.0858 30.84 69.7458 30.05C70.4058 29.26 70.7358 28.35 70.7358 27.29C70.7358 26.08 70.3657 25.03 69.6257 24.17C68.8857 23.31 67.5958 22.64 65.7558 22.18C63.9158 21.72 61.3558 21.48 58.0758 21.48V16.87C60.9158 16.87 63.1458 16.63 64.7658 16.15C66.3858 15.67 67.5458 15.01 68.2458 14.18C68.9458 13.35 69.2958 12.4 69.2958 11.35C69.2958 9.90998 68.7358 8.77997 67.6158 7.96997C66.4958 7.14997 64.9358 6.75 62.9358 6.75C61.2958 6.75 59.7757 7.04997 58.3757 7.65997C56.9757 8.26997 55.6158 9.07 54.2958 10.06L50.2758 6.12C52.1158 4.84 54.0958 3.8 56.2158 3C58.3358 2.2 60.6758 1.79999 63.2358 1.79999C65.9958 1.79999 68.4258 2.14999 70.5258 2.85999C72.6258 3.55999 74.2658 4.59996 75.4458 5.95996C76.6258 7.31996 77.2158 8.96 77.2158 10.88C77.2158 12.8 76.5458 14.46 75.2058 15.78C73.8658 17.09 72.0358 18.12 69.7158 18.85V19.04C71.3958 19.39 72.9158 19.95 74.2758 20.72C75.6358 21.49 76.7058 22.45 77.4858 23.6C78.2658 24.75 78.6557 26.1 78.6557 27.63C78.6557 29.74 77.9658 31.54 76.5858 33.03C75.2058 34.52 73.3658 35.65 71.0658 36.44C68.7658 37.22 66.2158 37.62 63.4158 37.62Z" fill="#E0FF00"/>
</svg>
