<svg width="80" height="47" viewBox="0 0 80 47" fill="none" xmlns="http://www.w3.org/2000/svg">
    <path d="M19.86 37.3598C16.02 37.3598 12.63 36.6098 9.69005 35.0998C6.75005 33.5998 4.45004 31.4598 2.79004 28.6898C1.13004 25.9198 0.300049 22.6298 0.300049 18.8298C0.300049 15.0298 1.13004 11.7098 2.79004 8.98981C4.45004 6.26981 6.75005 4.18982 9.69005 2.74982C12.63 1.30982 16.02 0.589844 19.86 0.589844C23.7 0.589844 27.14 1.31984 30.06 2.76984C32.98 4.22984 35.27 6.30983 36.93 9.00983C38.59 11.7098 39.4201 14.9898 39.4201 18.8298C39.4201 22.6698 38.59 25.9298 36.93 28.6898C35.27 31.4598 32.98 33.5898 30.06 35.0998C27.14 36.5998 23.74 37.3598 19.86 37.3598ZM19.86 32.1198C22.18 32.1198 24.2001 31.5798 25.9201 30.5098C27.6401 29.4398 28.97 27.9098 29.91 25.9298C30.85 23.9498 31.3201 21.5798 31.3201 18.8298C31.3201 16.0798 30.85 13.8898 29.91 11.9898C28.97 10.0898 27.6401 8.61979 25.9201 7.59979C24.2001 6.57979 22.18 6.05981 19.86 6.05981C17.54 6.05981 15.52 6.56979 13.8 7.59979C12.08 8.61979 10.76 10.0898 9.84004 11.9898C8.92004 13.8898 8.46005 16.1698 8.46005 18.8298C8.46005 21.4898 8.92004 23.9498 9.84004 25.9298C10.76 27.9098 12.08 29.4398 13.8 30.5098C15.52 31.5798 17.54 32.1198 19.86 32.1198ZM33.96 46.0898C30.96 46.0898 28.26 45.6698 25.86 44.8398C23.46 44.0098 21.42 42.8598 19.74 41.4098C18.06 39.9498 16.78 38.3098 15.9 36.4898L24 35.8698C24.56 37.0498 25.39 38.0198 26.49 38.7698C27.59 39.5198 28.87 40.0698 30.33 40.4298C31.79 40.7798 33.3 40.9598 34.86 40.9598C35.82 40.9598 36.7 40.8998 37.5 40.7898C38.3 40.6798 39.02 40.5398 39.66 40.3798L41.1001 45.0798C40.3401 45.3698 39.3401 45.6098 38.1001 45.7998C36.8601 45.9898 35.48 46.0898 33.96 46.0898Z" fill="#E0FF00"/>
    <path d="M67.2 36.6799V15.1799C67.2 14.1899 67.2399 12.9999 67.3199 11.5999C67.3999 10.2099 67.4599 9.01996 67.4999 8.01996H67.2599C66.6999 8.87996 66.1299 9.76991 65.5499 10.6599C64.9699 11.5599 64.3599 12.47 63.7199 13.4L55.92 22.95H79.9799V27.8499H48.1799V23.53L65.2199 2.16992H74.5199V36.6799H67.2Z" fill="#E0FF00"/>
</svg>
