<?xml version="1.0" encoding="UTF-8"?>
<svg xmlns="http://www.w3.org/2000/svg" version="1.1" viewBox="0 0 979.13 863.6">
  <defs>
    <style>
      .cls-1 {
        fill: none;
      }

      .cls-1, .cls-2, .cls-3, .cls-4 {
        stroke-width: 0px;
      }

      .cls-2 {
        fill: #9500ff;
      }

      .cls-3 {
        fill: #e0ff00;
      }

      .cls-4 {
        fill: #fff;
      }
    </style>
  </defs>
  <g id="_圖層_7" data-name="圖層 7">
    <g>
      <rect class="cls-4" x="287.89" y="144.29" width="99.65" height="522.19" rx="7.97" ry="7.97"/>
      <rect class="cls-1" width="979.13" height="863.6"/>
    </g>
  </g>
  <g id="_圖層_6" data-name="圖層 6">
    <g>
      <rect class="cls-2" x="387.54" y="144.29" width="99.65" height="522.19" rx="7.97" ry="7.97"/>
      <rect class="cls-1" width="979.13" height="863.6"/>
    </g>
  </g>
  <g id="_圖層_5" data-name="圖層 5">
    <g>
      <rect class="cls-4" x="487.38" y="144.29" width="99.65" height="522.19" rx="7.97" ry="7.97"/>
      <rect class="cls-1" width="979.13" height="863.6"/>
    </g>
  </g>
  <g id="_圖層_4" data-name="圖層 4">
    <g>
      <rect class="cls-2" x="587.04" y="144.29" width="99.65" height="522.19" rx="7.97" ry="7.97"/>
      <rect class="cls-1" width="979.13" height="863.6"/>
    </g>
  </g>
  <g id="_圖層_3" data-name="圖層 3">
    <g>
      <path class="cls-3" d="M756.73,226.62l-66.45,92.99h-403.43l-66.48-93.02-9.09,9.1,59.97,83.92h.03v403.33h434.57v-403.3l59.97-83.92-9.09-9.1ZM488.55,484.07c-67.22,0-121.72-22.95-121.72-51.27s54.49-51.27,121.72-51.27,121.72,22.95,121.72,51.27-54.49,51.27-121.72,51.27Z"/>
      <rect class="cls-1" width="979.13" height="863.6"/>
    </g>
  </g>
</svg>