<svg width="714" height="646" viewBox="0 0 714 646" fill="none" xmlns="http://www.w3.org/2000/svg">
<path d="M691.04 410.95L288.13 37.4402L144.04 0.000244141L0 64.2003L0.830002 337.1L542.98 615.57L688.41 523.52L692.72 410.36M141.06 7.62024L284.9 43.4203L680.17 409.85L540.17 494.81L7.38 223.13L6.49001 69.3003L141.06 7.62024Z" fill="#E0FF00"/>
<path d="M221.41 51.0303C257.49 65.4603 307.84 114.41 270.09 183.14L286.82 195.69C286.82 195.69 329.67 176.44 383.55 192.61C437.43 208.78 586.03 414.02 586.03 414.02L477.38 442.01C477.38 442.01 369.74 380.31 316.05 353.12C264.01 326.76 221.97 264.03 258.92 220.8L243.61 209.08C243.61 209.08 193.4 239.53 130.02 212.37C130.02 212.37 115.3 224.05 99.1299 216.5C82.9599 208.96 89.4299 191.71 92.6599 188.48C92.6599 188.48 74.8599 168.74 74.8599 145.7C74.8599 115.52 80.7799 97.8003 104.49 74.0903C128.23 50.3703 178.3 33.7903 221.41 51.0303Z" fill="#9600FF"/>
<path d="M167.481 134.809C180.108 127.519 186.288 114.584 181.284 105.917C176.28 97.251 161.988 96.1353 149.361 103.425C136.735 110.716 130.555 123.651 135.559 132.317C140.563 140.984 154.855 142.099 167.481 134.809Z" fill="white"/>
<path d="M160.049 130.44C168.383 130.44 175.139 124.651 175.139 117.51C175.139 110.369 168.383 104.58 160.049 104.58C151.715 104.58 144.959 110.369 144.959 117.51C144.959 124.651 151.715 130.44 160.049 130.44Z" fill="#9600FF"/>
<path d="M238.72 74.3702H219.27L221.88 62.7202L212.92 63.9202L210.36 74.3702H193.4L188.86 82.7802L208.3 82.7602L204.55 98.0802L214.22 96.8902L217.39 82.7602L234.53 82.7402L238.72 74.3702Z" fill="#E0FF00"/>
</svg>
