<svg width="963" height="646" viewBox="0 0 963 646" fill="none" xmlns="http://www.w3.org/2000/svg">
    <path d="M271 194.71L415.06 130.67L558.93 168.22L962.94 541.68L814.24 636.37L271.57 358.14L271 194.71Z" fill="#E0FF00"/>
    <path d="M533.2 222.51L515.25 275.84L455.97 254.36L480.05 305.99L418.9 322.52L444.32 352.21L566.01 247.98L533.2 222.51Z" fill="black"/>
    <path d="M592.86 297.68C595.03 291.28 597.02 285.42 599.29 278.74C592.76 278.33 587.06 278.15 581.41 277.55C578.55 277.25 577.5 278.36 576.7 280.87C574.74 287.05 572.42 293.11 570.43 299.28C569.74 301.4 568.71 302.21 566.42 302.53C559.87 303.46 553.37 304.76 546.89 306.1C545.69 306.35 543.81 307.39 543.72 308.24C542.98 314.63 542.61 321.07 542.1 327.86C548.78 326.67 554.94 325.58 561.7 324.38C559.43 331.08 557.41 337.01 555.13 343.71C561 344.03 566.2 343.9 571.26 344.71C575.67 345.42 577.31 343.66 578.43 339.82C580.14 333.97 582.3 328.26 584.22 322.47C584.8 320.73 585.55 319.97 587.68 319.67C594.74 318.7 601.74 317.23 608.73 315.81C609.52 315.65 610.7 314.69 610.76 314.01C611.39 307.61 611.81 301.19 612.33 294.33C605.53 295.52 599.36 296.57 592.86 297.68ZM606.73 307.43C607.02 311.34 604.75 312.31 601.64 312.8C595.84 313.7 590.01 314.53 584.27 315.73C582.99 316 581.47 317.48 580.98 318.76C578.31 325.7 575.92 332.74 573.39 339.91C569.56 339.52 565.64 339.12 561.56 338.7C563.74 332.38 565.99 325.85 568.46 318.69C561.1 319.95 554.37 321.1 546.83 322.38C547.24 318.72 547.42 315.42 548.08 312.23C548.27 311.3 549.76 310.18 550.83 309.96C557.34 308.62 563.93 307.65 570.43 306.23C571.66 305.96 573.07 304.44 573.57 303.17C576.22 296.37 578.61 289.48 581.14 282.48C584.94 282.82 588.87 283.17 592.96 283.53C590.83 289.81 588.68 296.13 586.18 303.48C593.77 302.18 600.36 301.05 607.48 299.82C607.15 302.71 606.55 305.1 606.73 307.43Z" fill="black"/>
    <path d="M519.2 336.76C510.02 338.13 502.27 342.39 495.35 348.73C487.45 354.9 481.85 362.85 479.48 372.84C477.75 380.09 478.57 387.17 484.04 392.52C489.72 398.08 497.08 399.41 504.73 397.59C522.97 393.25 535.81 382.4 542.62 364.86C545.57 357.27 545.4 349.58 539.91 343.1C534.53 336.72 527.11 335.58 519.2 336.76ZM538.88 361.32C535.89 372.46 529.09 381.01 519.05 387.05C512.63 390.92 506 393.78 498.44 393.45C483.97 392.82 481.39 383.48 484.5 371.89C486.71 363.64 491.48 356.75 496.13 353.31C506.02 345.1 514.41 340.87 524.72 341.13C538 341.48 541.73 350.7 538.88 361.32Z" fill="black"/>
    <path d="M500.01 353.91C492.05 358.78 492.26 372.29 497.68 378.74C504.08 386.36 516.12 386.82 522.96 381.17C530.51 374.92 531.51 362.52 525.02 355.66C517.75 347.98 508.13 346.96 500.01 353.91Z" fill="black"/>
    <path d="M963 541.57V552.83L814.54 645.75L271.57 368.24V358.24L814.24 636.37L963 541.57Z" fill="black"/>
</svg>
