<svg xmlns="http://www.w3.org/2000/svg" xmlns:xlink="http://www.w3.org/1999/xlink" id="_圖層_1" data-name="圖層 1" version="1.1" viewBox="0 0 1920 1080">
    <defs>
        <style>
            .cls-1 {
            clip-path: url(#clippath);
            }

            .cls-2, .cls-3, .cls-4, .cls-5, .cls-6 {
            fill: none;
            }

            .cls-2, .cls-7, .cls-8, .cls-9, .cls-10 {
            stroke-width: 0px;
            }

            .cls-3 {
            stroke: #e0ff00;
            }

            .cls-3, .cls-4, .cls-5, .cls-6, .cls-11 {
            stroke-miterlimit: 10;
            }

            .cls-12 {
            font-size: 72px;
            }

            .cls-12, .cls-13, .cls-14, .cls-15, .cls-16 {
            font-family: SourceHanSansTW-Bold-B5pc-H, 'Source Han Sans TW';
            font-weight: 700;
            }

            .cls-12, .cls-16 {
            fill: #fff;
            letter-spacing: .09em;
            }

            .cls-13 {
            font-size: 17.29px;
            letter-spacing: .09em;
            }

            .cls-13, .cls-15, .cls-9, .cls-11 {
            fill: #9500ff;
            }

            .cls-14 {
            font-size: 16px;
            letter-spacing: .09em;
            }

            .cls-14, .cls-10 {
            fill: #e0ff00;
            }

            .cls-4 {
            stroke-width: 3px;
            }

            .cls-4, .cls-5, .cls-6, .cls-11 {
            stroke: #9500ff;
            }

            .cls-17 {
            clip-path: url(#clippath-1);
            }

            .cls-7 {
            fill: #000;
            }

            .cls-8 {
            fill: #9600ff;
            }

            .cls-15 {
            font-size: 22.8px;
            letter-spacing: .09em;
            }

            .cls-16 {
            font-size: 24px;
            }

            .cls-5 {
            stroke-width: 2.37px;
            }

            .cls-6 {
            stroke-width: 15.61px;
            }

            .cls-11 {
            stroke-width: .94px;
            }
        </style>
        <clipPath id="clippath">
            <rect class="cls-2" x="1277.58" y="316.65" width="132.95" height="46.5"/>
        </clipPath>
        <clipPath id="clippath-1">
            <rect class="cls-2" x="239.5" y="605.36" width="80.04" height="94.31"/>
        </clipPath>
    </defs>
    <rect class="cls-7" x="-.5" y="2.38" width="1920" height="1080"/>


    <rect class="cls-9" x="1582.37" y="291.05" width="97.13" height="131.85"/>
    <rect class="cls-9" x="1419.86" y="470.51" width="189.36" height="251.49"/>
    <rect class="cls-9" x="793.74" y="214.39" width="94.31" height="131"/>
    <rect class="cls-9" x="647.39" y="442.1" width="195.39" height="256.99"/>
    <rect class="cls-9" x="239.5" y="577.12" width="84.18" height="122.55"/>
    <rect class="cls-9" x="1119.25" y="669.94" width="79.11" height="117.49"/>
    <rect class="cls-9" x="1041.56" y="364.03" width="130.88" height="180.07"/>
    <rect class="cls-9" x="1307.88" y="813.4" width="97.13" height="139.23"/>
    <rect class="cls-9" x="240.56" y="190.87" width="79.11" height="108.76"/>
    <rect class="cls-9" x="346.88" y="304.54" width="160.75" height="218.44"/>
    <path class="cls-10" d="M1459.24,648.11c-20.16,14.65-54.61-32.77-34.45-47.42,20.16-14.65,54.61,32.77,34.45,47.42Z"/>
    <path class="cls-10" d="M1460.43,701.97c-20.16,14.65-54.61-32.77-34.45-47.42,20.16-14.65,54.61,32.77,34.45,47.42Z"/>
    <path class="cls-10" d="M1470.45,714.54c12.88,9.36,34.9-20.94,22.02-30.31-12.88-9.36-34.9,20.94-22.02,30.31Z"/>

    <g>
        <path class="cls-10" d="M1406.81,232.69c2.05,0,3.72,1.68,3.72,3.72v18.67c0,2.05-1.68,3.72-3.72,3.72,2.05,0,3.72,1.68,3.72,3.72v18.67c0,1.86-1.38,3.4-3.16,3.68,1.78.28,3.16,1.82,3.16,3.68v18.67c0,2.05-1.68,3.72-3.72,3.72,2.05,0,3.72,1.67,3.72,3.72v18.67c0,2.05-1.68,3.72-3.72,3.72,2.05,0,3.72,1.67,3.72,3.72v18.67c0,2.05-1.68,3.72-3.72,3.72h-125.51c-2.05,0-3.72-1.67-3.72-3.72v-18.67c0-2.05,1.67-3.72,3.72-3.72-2.05,0-3.72-1.68-3.72-3.72v-18.67c0-2.05,1.67-3.72,3.72-3.72-2.05,0-3.72-1.68-3.72-3.72v-18.67c0-1.86,1.37-3.4,3.15-3.68-1.78-.28-3.15-1.82-3.15-3.68v-18.67c0-2.05,1.67-3.72,3.72-3.72-2.05,0-3.72-1.67-3.72-3.72v-18.67c0-2.05,1.67-3.72,3.72-3.72-2.05,0-3.72-1.67-3.72-3.72v-22.39s0,0,0,0h132.95v22.39c0,2.05-1.68,3.72-3.72,3.72Z"/>
        <rect class="cls-9" x="1277.58" y="192.74" width="132.95" height="13.85"/>
        <text class="cls-15" transform="translate(1313 253.81)"><tspan x="0" y="0">MILK</tspan></text>
        <g class="cls-1">
            <path class="cls-9" d="M1406.81,232.69c2.05,0,3.72,1.68,3.72,3.72v18.67c0,2.05-1.68,3.72-3.72,3.72,2.05,0,3.72,1.68,3.72,3.72v18.67c0,1.86-1.38,3.4-3.16,3.68,1.78.28,3.16,1.82,3.16,3.68v18.67c0,2.05-1.68,3.72-3.72,3.72,2.05,0,3.72,1.67,3.72,3.72v18.67c0,2.05-1.68,3.72-3.72,3.72,2.05,0,3.72,1.67,3.72,3.72v18.67c0,2.05-1.68,3.72-3.72,3.72h-125.51c-2.05,0-3.72-1.67-3.72-3.72v-18.67c0-2.05,1.67-3.72,3.72-3.72-2.05,0-3.72-1.68-3.72-3.72v-18.67c0-2.05,1.67-3.72,3.72-3.72-2.05,0-3.72-1.68-3.72-3.72v-18.67c0-1.86,1.37-3.4,3.15-3.68-1.78-.28-3.15-1.82-3.15-3.68v-18.67c0-2.05,1.67-3.72,3.72-3.72-2.05,0-3.72-1.67-3.72-3.72v-18.67c0-2.05,1.67-3.72,3.72-3.72-2.05,0-3.72-1.67-3.72-3.72v-22.39s0,0,0,0h132.95v22.39c0,2.05-1.68,3.72-3.72,3.72Z"/>
        </g>
        <rect class="cls-5" x="1308.24" y="229.08" width="71.63" height="33.47"/>
    </g>
    <rect class="cls-10" x="1119.18" y="763.91" width="79.11" height="23.52"/>
    <path class="cls-10" d="M1140.48,694.21h36.52c7.5,0,13.59,6.09,13.59,13.59v64.58h-63.7v-64.58c0-7.5,6.09-13.59,13.59-13.59Z"/>
    <rect class="cls-9" x="1119.18" y="772.38" width="79.11" height="10.34"/>
    <rect class="cls-9" x="1137.7" y="707.26" width="26.05" height="3.51"/>
    <rect class="cls-9" x="1137.7" y="713.11" width="36.01" height="3.51"/>
    <path class="cls-6" d="M1470.72,590.33"/>
    <rect class="cls-10" x="1461.18" y="586.15" width="11.9" height="135.69"/>
    <rect class="cls-10" x="1529.46" y="545.88" width="12.02" height="175.96"/>
    <rect class="cls-10" x="1546.72" y="690.27" width="18.17" height="31.56"/>
    <path class="cls-10" d="M1489.9,520.94h0s0,0,0,0c23.19,0,32.83,29.68,14.07,43.31h0s0,0,0,0c7.17,22.06-18.08,40.4-36.84,26.76h0s0,0,0,0c-18.76,13.63-44-4.71-36.84-26.76h0s0,0,0,0c-18.76-13.63-9.12-43.31,14.07-43.31h0c7.17-22.06,38.37-22.06,45.53,0Z"/>
    <path class="cls-10" d="M1577.51,606.89h0s0,0,0,0c31.36,0,44.4,40.13,19.03,58.57h0s0,0,0,0c9.69,29.83-24.45,54.63-49.82,36.2h0s0,0,0,0c-25.37,18.43-59.51-6.37-49.82-36.2h0s0,0,0,0c-25.37-18.43-12.33-58.57,19.03-58.57h0c9.69-29.83,51.89-29.83,61.58,0Z"/>
    <path class="cls-10" d="M1515.07,528.86h0s0,0,0,0c-6.8-20.94,17.16-38.35,34.97-25.41h0s0,0,0,0c17.81-12.94,41.77,4.47,34.97,25.41h0s0,0,0,0c17.81,12.94,8.66,41.11-13.36,41.11h0s0,0,0,0c-25.22,0-49.29-20.67-56.58-41.11Z"/>
    <circle class="cls-9" cx="1467.55" cy="552.28" r="9.78"/>
    <circle class="cls-9" cx="1537.08" cy="657.51" r="7.62"/>
    <circle class="cls-9" cx="1546.66" cy="641.03" r="7.62"/>
    <circle class="cls-9" cx="1556.36" cy="657.51" r="7.62"/>
    <rect class="cls-10" x="1041.56" y="401.75" width="120.81" height="142.35"/>
    <rect class="cls-9" x="1077.16" y="427.75" width="53.47" height="3.51"/>
    <rect class="cls-9" x="1077.16" y="433.6" width="73.9" height="3.51"/>
    <rect class="cls-9" x="1051.59" y="419.17" width="17.94" height="17.94"/>
    <rect class="cls-9" x="1076.75" y="467.42" width="53.47" height="3.51"/>
    <rect class="cls-9" x="1076.75" y="473.28" width="73.9" height="3.51"/>
    <rect class="cls-9" x="1051.13" y="458.84" width="17.94" height="17.94"/>
    <rect class="cls-9" x="1076.75" y="478.86" width="53.47" height="3.51"/>
    <circle class="cls-10" cx="427.26" cy="442.39" r="80.58"/>
    <circle class="cls-9" cx="427.26" cy="442.39" r="28.71"/>
    <circle class="cls-10" cx="427.26" cy="442.39" r="8.68"/>
    <rect class="cls-10" x="480.15" y="304.54" width="5.32" height="82.16"/>
    <polygon class="cls-9" points="457.91 414.34 452.65 409.07 480.14 381.58 485.47 386.69 457.91 414.34"/>
    <rect class="cls-9" x="448.71" y="405.26" width="12.22" height="13.67" rx="2.89" ry="2.89" transform="translate(424.61 -200.91) rotate(45)"/>
    <g class="cls-17">
        <g>
            <path class="cls-10" d="M308.44,634.92c0,16.3-15.45,30.72-29.51,30.72s-29.51-14.42-29.51-30.72,10.6-29.56,29.51-29.56,29.51,13.27,29.51,29.56Z"/>
            <circle class="cls-10" cx="308.58" cy="636.78" r="6.74"/>
            <circle class="cls-10" cx="249.88" cy="636.78" r="6.74"/>
            <rect class="cls-10" x="273.88" y="663.69" width="10.1" height="14.68"/>
            <path class="cls-8" d="M303.06,688.3"/>
            <path class="cls-8" d="M249.88,686.57"/>
            <g>
                <path class="cls-10" d="M306.01,692.3c-.03-.73-.1-1.45-.22-2.16-.15-.95-.37-1.88-.65-2.8-.47-1.52-1.12-2.98-1.93-4.35-1.11-1.89-2.51-3.63-4.16-5.17-.65-.61-1.34-1.19-2.07-1.74-3.6-2.73-8.07-4.65-13.01-5.44-1.63-.26-3.32-.39-5.04-.4h0s0,0,0,0,0,0,0,0h0c-1.72,0-3.41.14-5.04.4-4.94.79-9.41,2.71-13.01,5.44-.73.55-1.42,1.13-2.07,1.74-1.65,1.54-3.05,3.28-4.16,5.17-.81,1.37-1.46,2.83-1.93,4.35-.28.91-.5,1.85-.65,2.8-.11.71-.19,1.44-.22,2.16-.02.29-.02.58-.02.88,0,4.02,1.22,7.79,3.36,11.07.63.96,1.33,1.88,2.11,2.74.95,1.06,2,2.06,3.16,2.96h0c.11.1.23.18.34.27.6.46,1.23.9,1.88,1.31.05.03.1.06.14.09h0c2.83,1.77,6.08,3.09,9.6,3.82.11.03.22.05.32.07.65.13,1.31.24,1.98.32.71.09,1.42.16,2.15.21.48.03.96.05,1.45.05,0,0,0,0,0,0h0c.19,0,.38,0,.57,0,0,0,0,0,0,0s0,0,0,0c.19,0,.38,0,.57,0h0s0,0,0,0c.49,0,.97-.02,1.45-.05.73-.05,1.44-.12,2.15-.21.67-.09,1.33-.2,1.98-.32.11-.02.22-.04.32-.07,3.52-.73,6.76-2.04,9.6-3.81h0s0,0,0,0c.05-.03.1-.06.14-.09.65-.41,1.28-.85,1.88-1.31.12-.09.23-.18.34-.27h0c1.15-.91,2.21-1.9,3.16-2.96.78-.87,1.48-1.79,2.11-2.74,2.15-3.28,3.36-7.06,3.36-11.07,0-.3,0-.59-.02-.88Z"/>
                <path class="cls-10" d="M297.4,786.1l-2.23-70.01-.1-3.19h0s-.04-1.26-.04-1.26h0s-.18-5.85-.18-5.85l-.02-.51-.6-18.89h0s-.24-7.59-.24-7.59h-30.09l-.24,7.59h0s-.6,18.9-.6,18.9l-.02.51-.18,5.85h0s-.04,1.26-.04,1.26h0s-.1,3.19-.1,3.19l-2.23,70.01-.28,8.88h13.7l.07-1.76v-.04l.02-.36s0-.07,0-.1l2.38-59.12h5.16l2.38,59.12s0,.07,0,.1l.02.36v.04l.07,1.76h13.7l-.28-8.88Z"/>
                <path class="cls-10" d="M250,713.46c2.68.82,5.53-.68,6.35-3.36l.95-3.08.68-2.2,5.66-18.41,2.34-7.6.32-1.05-5.42-1.67c-.73.55-1.42,1.13-2.07,1.74-1.65,1.55-3.05,3.29-4.16,5.17-.81,1.38-1.46,2.83-1.93,4.35l-6.08,19.75c-.06.19-.1.38-.14.56,0,.03,0,.05-.02.08,0,.04-.02.08-.02.11-.37,2.44,1.1,4.86,3.54,5.6Z"/>
                <path class="cls-10" d="M259.71,696.85h0c2.81,0,5.08,2.28,5.08,5.08v21.87h-10.17v-21.87c0-2.81,2.28-5.08,5.08-5.08Z" transform="translate(-487.23 828.99) rotate(-78.94)"/>
                <rect class="cls-10" x="250.06" y="786.1" width="23.92" height="13.23" rx="6.61" ry="6.61"/>
                <path class="cls-10" d="M267.37,716.49c.23.23.49.45.76.66.87.68,1.91,1.21,3.08,1.52,3.01.82,6.01.02,7.74-1.83.21-.22.4-.46.57-.72h0c.32-.49.58-1.03.73-1.61.52-1.88-.03-3.84-1.31-5.41-1.03-1.27-2.55-2.27-4.37-2.77-.11-.03-.23-.06-.34-.09.51-1.32.43-2.54-.31-3.09-1.04-.78-3,.07-4.37,1.9-.31.41-.66.86-.99,1.3l-5.52-1.08-4.91-.96-2.55-.5"/>
                <path class="cls-10" d="M307.87,713.46c-2.68.82-5.53-.68-6.35-3.36l-.95-3.08-.68-2.2-5.66-18.41-2.34-7.6-.32-1.05,5.42-1.67c.73.55,1.42,1.13,2.07,1.74,1.65,1.55,3.05,3.29,4.16,5.17.81,1.38,1.46,2.83,1.93,4.35l6.08,19.75c.06.19.1.38.14.56,0,.03,0,.05.02.08,0,.04.02.08.02.11.37,2.44-1.1,4.86-3.54,5.6Z"/>
                <path class="cls-10" d="M293.07,696.85h10.17v21.87c0,2.81-2.28,5.08-5.08,5.08h0c-2.81,0-5.08-2.28-5.08-5.08v-21.87h0Z" transform="translate(-341.8 1139.17) rotate(-101.06)"/>
                <rect class="cls-10" x="283.89" y="786.1" width="23.92" height="13.23" rx="6.61" ry="6.61" transform="translate(591.7 1585.43) rotate(-180)"/>
                <path class="cls-10" d="M290.5,716.49c-.23.23-.49.45-.76.66-.87.68-1.91,1.21-3.08,1.52-3.01.82-6.01.02-7.74-1.83-.21-.22-.4-.46-.57-.72h0c-.32-.49-.58-1.03-.73-1.61-.52-1.88.03-3.84,1.31-5.41,1.03-1.27,2.55-2.27,4.37-2.77.11-.03.23-.06.34-.09-.51-1.32-.43-2.54.31-3.09,1.04-.78,3,.07,4.37,1.9.31.41.66.86.99,1.3l5.52-1.08,4.91-.96,2.55-.5"/>
            </g>
            <g>
                <ellipse class="cls-11" cx="267.61" cy="633.35" rx="8.38" ry="5.43"/>
                <circle class="cls-10" cx="267.61" cy="633.35" r="3.75"/>
            </g>
            <g>
                <ellipse class="cls-11" cx="290.52" cy="633.36" rx="8.38" ry="5.43"/>
                <circle class="cls-10" cx="290.52" cy="633.36" r="3.75"/>
            </g>
        </g>
    </g>
    <path class="cls-10" d="M319.68,213.43l-30.98,19.73c-2.06-1.32-4.2-2.59-6.14-3.82-8.9-5.59-18.68-6.01-21.86-.96-2.08,3.31-.78,8.17,2.87,12.69l-.32,1.93-16.25,10.35c-6.48,4.12-8.38,12.72-4.26,19.19l13.15,20.66c4.12,6.48,12.72,8.38,19.19,4.26l33.89-21.58.99-.63,9.71-6.18v-55.63Z"/>
    <line class="cls-4" x1="241.87" y1="273.17" x2="270.01" y2="255.39"/>
    <line class="cls-4" x1="248.39" y1="283.48" x2="276.52" y2="265.7"/>
    <line class="cls-4" x1="255.23" y1="294.3" x2="283.36" y2="276.52"/>
    <polygon class="cls-10" points="1320.4 931.63 1356.45 846.57 1392.5 931.63 1320.4 931.63"/>
    <circle class="cls-10" cx="1328.25" cy="922.49" r="15.22"/>
    <circle class="cls-10" cx="1323.1" cy="931.7" r="15.22"/>
    <circle class="cls-10" cx="1338.32" cy="937.41" r="15.22"/>
    <circle class="cls-10" cx="1356.45" cy="937.41" r="15.22"/>
    <circle class="cls-10" cx="1384.64" cy="922.49" r="15.22"/>
    <circle class="cls-10" cx="1389.79" cy="931.7" r="15.22"/>
    <circle class="cls-10" cx="1374.57" cy="937.41" r="15.22"/>
    <circle class="cls-10" cx="1346.6" cy="924.49" r="15.22"/>
    <circle class="cls-10" cx="1365.69" cy="924.49" r="15.22"/>
    <circle class="cls-10" cx="1356.45" cy="853.39" r="15.22"/>
    <rect class="cls-10" x="803.98" y="266.95" width="84.07" height="74.59"/>
    <polygon class="cls-10" points="888.06 266.95 803.98 266.95 814.79 244.83 888.06 244.83 888.06 266.95"/>
    <text class="cls-13" transform="translate(858.88 334.04) scale(1.25 1)"><tspan x="0" y="0">聞</tspan></text>
    <path class="cls-9" d="M853.11,326.14l-5.46,9.43-5.46-9.43c-1.04-1.79.11-4.12,2.18-4.26.07,0,.14,0,.21,0,1.69,0,3.08,1.39,3.08,3.08,0-1.69,1.39-3.08,3.08-3.08.07,0,.14,0,.21,0,2.06.14,3.21,2.47,2.18,4.26Z"/>
    <path class="cls-9" d="M837.17,326.77l-4.13,7.13-4.13-7.13c-.78-1.35.08-3.12,1.65-3.23.05,0,.11,0,.16,0,1.28,0,2.33,1.05,2.33,2.33,0-1.28,1.05-2.33,2.33-2.33.05,0,.11,0,.16,0,1.56.11,2.43,1.87,1.65,3.23Z"/>
    <path class="cls-9" d="M824.07,327.36l-2.86,4.94-2.86-4.94c-.54-.94.06-2.16,1.14-2.24.04,0,.07,0,.11,0,.88,0,1.61.73,1.61,1.61,0-.88.73-1.61,1.61-1.61.04,0,.07,0,.11,0,1.08.07,1.68,1.3,1.14,2.24Z"/>
    <rect class="cls-10" x="1582.37" y="362.72" width="97.13" height="54.34"/>
    <path class="cls-10" d="M1592.76,325.74h76.34c5.74,0,10.4,4.66,10.4,10.4v21.82h-97.13v-21.82c0-5.74,4.66-10.4,10.4-10.4Z"/>
    <path class="cls-9" d="M1604.33,325.74h54.34c5.74,0,10.4,4.66,10.4,10.4v21.82h-75.13v-21.82c0-5.74,4.66-10.4,10.4-10.4Z"/>
    <path class="cls-10" d="M1607.83,325.74h47.34c5.74,0,10.4,4.66,10.4,10.4v21.82h-68.13v-21.82c0-5.74,4.66-10.4,10.4-10.4Z"/>
    <polygon class="cls-9" points="1639 379.23 1623.32 379.23 1615.48 392.81 1623.32 406.39 1639 406.39 1646.84 392.81 1639 379.23"/>
    <polygon class="cls-9" points="1605.09 384.02 1594.95 384.02 1589.88 392.81 1594.95 401.6 1605.09 401.6 1610.17 392.81 1605.09 384.02"/>
    <polygon class="cls-9" points="1667.37 384.02 1657.23 384.02 1652.16 392.81 1657.23 401.6 1667.37 401.6 1672.45 392.81 1667.37 384.02"/>
    <polygon class="cls-9" points="1636.01 350.91 1625.86 350.91 1620.79 359.7 1625.86 368.48 1636.01 368.48 1641.08 359.7 1636.01 350.91"/>
    <polygon class="cls-10" points="1602.76 388.06 1597.28 388.06 1594.53 392.81 1597.28 397.56 1602.76 397.56 1605.51 392.81 1602.76 388.06"/>
    <polygon class="cls-10" points="1665.05 388.06 1659.56 388.06 1656.82 392.81 1659.56 397.56 1665.05 397.56 1667.79 392.81 1665.05 388.06"/>
    <polygon class="cls-10" points="1636.23 384.02 1626.09 384.02 1621.02 392.81 1626.09 401.6 1636.23 401.6 1641.31 392.81 1636.23 384.02"/>
    <line class="cls-3" x1="1594.95" y1="384.02" x2="1597.51" y2="388.46"/>
    <line class="cls-3" x1="1602.12" y1="388.82" x2="1605.89" y2="383.43"/>
    <line class="cls-3" x1="1587.19" y1="392.81" x2="1674" y2="392.81"/>
    <line class="cls-3" x1="1623.32" y1="406.39" x2="1626.83" y2="400.26"/>
    <line class="cls-3" x1="1639.44" y1="407.33" x2="1635.34" y2="399.95"/>
    <line class="cls-3" x1="1656.82" y1="382.8" x2="1660.54" y2="389.78"/>
    <line class="cls-3" x1="1664.23" y1="389.15" x2="1668.26" y2="382.92"/>
    <rect class="cls-10" x="1582.37" y="408.55" width="7.51" height="14.36"/>
    <rect class="cls-10" x="1672.45" y="410.02" width="7.05" height="12.88"/>
    <polygon class="cls-10" points="842.78 688.29 689.63 688.29 647.39 559.03 842.78 559.03 842.78 688.29"/>
    <rect class="cls-10" x="734.58" y="520.18" width="108.2" height="38.85"/>
    <rect class="cls-10" x="800.33" y="485.81" width="42.45" height="13.45"/>
    <rect class="cls-10" x="811.54" y="492.53" width="31.24" height="31.24"/>
    <rect class="cls-9" x="758.38" y="530.25" width="84.4" height="6.86"/>
    <rect class="cls-9" x="758.38" y="542.99" width="84.4" height="6.86"/>
    <rect class="cls-9" x="758.38" y="577.12" width="84.4" height="16.89"/>
    <rect class="cls-9" x="734.58" y="577.12" width="17.49" height="16.89"/>
    <text class="cls-14" transform="translate(646.91 460.66) scale(1.25 1)"><tspan x="0" y="0">紙紮</tspan></text>
    <text class="cls-14" transform="translate(793.17 233.07) scale(1.25 1)"><tspan x="0" y="0">訃文</tspan></text>
    <text class="cls-14" transform="translate(238.76 595.47) scale(1.25 1)"><tspan x="0" y="0">人員需求</tspan></text>
    <text class="cls-14" transform="translate(1119.87 688.25) scale(1.25 1)"><tspan x="0" y="0">墓地</tspan></text>
    <text class="cls-14" transform="translate(1041.56 382.64) scale(1.25 1)"><tspan x="0" y="0">規劃流程</tspan></text>
    <text class="cls-14" transform="translate(1307.33 831.83) scale(1.25 1)"><tspan x="0" y="0">道具準備</tspan></text>
    <text class="cls-14" transform="translate(240.05 209.35) scale(1.25 1)"><tspan x="0" y="0">接待</tspan></text>
    <text class="cls-14" transform="translate(346.14 323.17) scale(1.25 1)"><tspan x="0" y="0">音樂清單</tspan></text>
    <text class="cls-14" transform="translate(1419.38 488.88) scale(1.25 1)"><tspan x="0" y="0">花卉</tspan></text>
    <text class="cls-14" transform="translate(1581.83 309.56) scale(1.25 1)"><tspan x="0" y="0">祭品</tspan></text>
</svg>
