<svg width="600" height="650" viewBox="0 0 600 650" fill="none" xmlns="http://www.w3.org/2000/svg">
	<g clip-path="url(#clip0_384_1926)">
		<path d="M333.84 223.04C333.84 223.04 356.46 238.63 355.85 259.12H381.23C381.23 259.12 384.29 236.19 357.54 208.67" fill="white"/>
		<path d="M256.178 450.81C256.178 450.81 257.398 468.85 209.398 479.55L216.428 511.96C216.428 511.96 247.308 503.09 272.378 485.36" fill="white"/>
		<mask id="mask0_384_1926" style="mask-type:luminance" maskUnits="userSpaceOnUse" x="205" y="73" width="190" height="512">
			<path d="M344.981 233.19C349.371 231.06 353.551 228.63 357.481 225.92C378.331 211.62 392.341 189.71 394.371 164.82C394.531 162.75 394.621 160.66 394.621 158.55C394.621 155.87 394.481 153.22 394.201 150.61C392.811 137.08 387.871 124.48 380.211 113.55C373.301 103.67 364.181 95.16 353.471 88.57C338.261 79.2 319.841 73.73 300.001 73.73C284.471 73.73 269.811 77.08 256.881 83.03C241.671 90.02 228.841 100.6 219.801 113.52C212.881 123.38 208.181 134.62 206.301 146.66C206.291 146.74 206.271 146.82 206.261 146.9C205.671 150.7 205.371 154.59 205.371 158.55C205.371 174.31 210.171 189.07 218.521 201.71C226.751 214.17 238.441 224.58 252.411 231.88V263.66C250.011 265.78 247.621 268.08 245.251 270.54C242.771 273.11 240.311 275.85 237.911 278.72C229.351 288.98 221.501 300.93 215.691 312.88C215.651 312.96 215.611 313.04 215.571 313.12C209.501 325.63 205.671 338.13 205.601 348.69C205.511 358.85 208.891 367.21 217.081 372.04C219.871 373.7 223.231 374.95 227.201 375.72C229.671 376.2 232.381 376.49 235.331 376.58H253.421L253.231 400.35L253.211 401.91L253.201 403.58L252.921 436.74L252.881 442.13L252.821 450.07L252.621 474.04L252.521 485.95L252.511 487.31L252.421 499.34L252.261 517.92L252.151 531.3L252.081 540.3V540.43C252.041 545.93 247.561 550.37 242.061 550.37C238.251 550.37 234.731 551.63 231.901 553.78C227.811 556.85 225.171 561.75 225.171 567.26V567.6C225.171 576.93 232.741 584.5 242.071 584.5H357.251C358.571 584.5 359.861 584.35 361.091 584.05C361.091 584.05 361.101 584.06 361.111 584.05C368.581 582.31 374.151 575.6 374.151 567.6V567.26C374.151 558.27 367.141 550.94 358.291 550.4H358.281C357.941 550.38 357.601 550.37 357.261 550.37H347.301L347.111 527.53L347.001 514.15L346.801 488.42L346.691 475.04L346.511 453.06L346.401 439.73L346.241 419.16L346.221 416.25L345.991 388.42L345.891 376.58H363.891C399.291 375.5 398.821 345.55 384.551 314.97C383.581 312.91 382.561 310.85 381.481 308.79C381.471 308.78 381.471 308.76 381.461 308.75C377.781 301.76 373.471 294.86 368.781 288.35C366.031 284.54 363.151 280.87 360.201 277.4C360.011 277.18 359.821 276.96 359.631 276.74C354.871 271.21 349.901 266.24 344.981 262.08V233.19ZM237.851 178.79C230.721 173.31 219.091 161.84 214.681 157.5C214.681 157.5 262.851 159.68 312.471 143.18C313.271 143.64 314.071 144.1 314.871 144.54C340.431 158.69 366.001 163.13 382.811 164.38C377.611 169.41 370.971 174.6 362.521 179.46C305.671 197.06 246.471 181.54 238.531 179.3C238.301 179.13 238.071 178.96 237.851 178.79Z" fill="white"/>
		</mask>
		<g mask="url(#mask0_384_1926)">
			<path d="M344.981 233.19C349.371 231.06 353.551 228.63 357.481 225.92C378.331 211.62 392.341 189.71 394.371 164.82C394.531 162.75 394.621 160.66 394.621 158.55C394.621 155.87 394.481 153.22 394.201 150.61C392.811 137.08 387.871 124.48 380.211 113.55C373.301 103.67 364.181 95.16 353.471 88.57C338.261 79.2 319.841 73.73 300.001 73.73C284.471 73.73 269.811 77.08 256.881 83.03C241.671 90.02 228.841 100.6 219.801 113.52C212.881 123.38 208.181 134.62 206.301 146.66C206.291 146.74 206.271 146.82 206.261 146.9C205.671 150.7 205.371 154.59 205.371 158.55C205.371 174.31 210.171 189.07 218.521 201.71C226.751 214.17 238.441 224.58 252.411 231.88V263.66C250.011 265.78 247.621 268.08 245.251 270.54C242.771 273.11 240.311 275.85 237.911 278.72C229.351 288.98 221.501 300.93 215.691 312.88C215.651 312.96 215.611 313.04 215.571 313.12C209.501 325.63 205.671 338.13 205.601 348.69C205.511 358.85 208.891 367.21 217.081 372.04C219.871 373.7 223.231 374.95 227.201 375.72C229.671 376.2 232.381 376.49 235.331 376.58H253.421L253.231 400.35L253.211 401.91L253.201 403.58L252.921 436.74L252.881 442.13L252.821 450.07L252.621 474.04L252.521 485.95L252.511 487.31L252.421 499.34L252.261 517.92L252.151 531.3L252.081 540.3V540.43C252.041 545.93 247.561 550.37 242.061 550.37C238.251 550.37 234.731 551.63 231.901 553.78C227.811 556.85 225.171 561.75 225.171 567.26V567.6C225.171 576.93 232.741 584.5 242.071 584.5H357.251C358.571 584.5 359.861 584.35 361.091 584.05C361.091 584.05 361.101 584.06 361.111 584.05C368.581 582.31 374.151 575.6 374.151 567.6V567.26C374.151 558.27 367.141 550.94 358.291 550.4H358.281C357.941 550.38 357.601 550.37 357.261 550.37H347.301L347.111 527.53L347.001 514.15L346.801 488.42L346.691 475.04L346.511 453.06L346.401 439.73L346.241 419.16L346.221 416.25L345.991 388.42L345.891 376.58H363.891C399.291 375.5 398.821 345.55 384.551 314.97C383.581 312.91 382.561 310.85 381.481 308.79C381.471 308.78 381.471 308.76 381.461 308.75C377.781 301.76 373.471 294.86 368.781 288.35C366.031 284.54 363.151 280.87 360.201 277.4C360.011 277.18 359.821 276.96 359.631 276.74C354.871 271.21 349.901 266.24 344.981 262.08V233.19ZM237.851 178.79C230.721 173.31 219.091 161.84 214.681 157.5C214.681 157.5 262.851 159.68 312.471 143.18C313.271 143.64 314.071 144.1 314.871 144.54C340.431 158.69 366.001 163.13 382.811 164.38C377.611 169.41 370.971 174.6 362.521 179.46C305.671 197.06 246.471 181.54 238.531 179.3C238.301 179.13 238.071 178.96 237.851 178.79Z" fill="white"/>
			<path d="M370.772 227.93C366.232 227.32 361.802 226.65 357.482 225.92C343.842 223.63 331.332 220.8 319.872 217.58C303.542 213 289.342 207.63 277.042 201.94C261.212 194.61 248.532 186.74 238.532 179.3C231.482 174.06 225.762 169.03 221.212 164.55C210.562 154.08 200.402 138.58 200.402 138.58" stroke="#9600FF" stroke-width="4" stroke-miterlimit="10"/>
			<path d="M209.652 111.75C213.082 112.43 216.462 113.02 219.802 113.52C265.802 120.45 303.622 110.92 328.302 100.97C339.612 96.41 348.162 91.77 353.472 88.57C357.602 86.1 359.772 84.5 359.772 84.5C359.772 84.5 425.152 85.84 380.212 113.55C376.562 115.8 372.192 118.22 366.992 120.83C349.592 129.57 331.862 138.63 314.872 144.54C314.112 144.8 313.362 145.06 312.612 145.31" stroke="#9600FF" stroke-width="4" stroke-miterlimit="10"/>
			<path d="M256.133 82.3999C256.133 82.3999 272.003 97.3899 328.453 100.98" stroke="#9600FF" stroke-width="4" stroke-miterlimit="10"/>
			<path d="M276.359 201.99C276.589 201.97 276.819 201.96 277.049 201.94C316.869 199.22 344.049 190.11 362.529 179.46C370.979 174.6 377.619 169.41 382.819 164.38C387.849 159.51 391.529 154.78 394.209 150.61C399.839 141.87 401.079 135.57 401.079 135.57" stroke="#9600FF" stroke-width="4" stroke-miterlimit="10"/>
			<path d="M308.742 268.83C336.152 259.01 352.212 240.85 352.212 240.85" stroke="#9600FF" stroke-width="4" stroke-miterlimit="10"/>
			<path d="M384.082 308.75C384.082 308.75 269.982 310.14 221.582 267.07" stroke="#9600FF" stroke-width="4" stroke-miterlimit="10"/>
			<path d="M214.172 312.62C214.172 312.62 288.022 325.74 339.132 305.72" stroke="#9600FF" stroke-width="4" stroke-miterlimit="10"/>
			<path d="M367.343 276.85C367.343 276.85 293.323 278.96 243.293 235.27" stroke="#9600FF" stroke-width="4" stroke-miterlimit="10"/>
			<path d="M386.982 311.4C386.982 311.4 354.022 373.18 204.762 348.56" stroke="#9600FF" stroke-width="4" stroke-miterlimit="10"/>
			<path d="M411.902 387.44C410.982 387.44 353.512 389.28 315.902 349.99" stroke="#9600FF" stroke-width="4" stroke-miterlimit="10"/>
			<path d="M365.269 420.54C338.059 416.87 276.299 393.95 273.859 354.35" stroke="#9600FF" stroke-width="4" stroke-miterlimit="10"/>
			<path d="M289.802 385.67C289.802 385.67 281.512 397.31 251.242 404.04" stroke="#9600FF" stroke-width="4" stroke-miterlimit="10"/>
			<path d="M261.471 355.39C261.471 355.39 248.791 379.14 187.031 381.41" stroke="#9600FF" stroke-width="4" stroke-miterlimit="10"/>
			<path d="M357.633 436.23C357.633 436.23 305.393 458.24 233.223 430.12" stroke="#9600FF" stroke-width="4" stroke-miterlimit="10"/>
			<path d="M261.473 438.98C261.473 438.98 280.863 470.77 350.893 475.36" stroke="#9600FF" stroke-width="4" stroke-miterlimit="10"/>
			<path d="M357.63 515.11C357.63 515.11 284.56 513.28 235.34 457.18" stroke="#9600FF" stroke-width="4" stroke-miterlimit="10"/>
			<path d="M246.34 518.47C246.34 518.47 274.4 517.25 302.41 502.88" stroke="#9600FF" stroke-width="4" stroke-miterlimit="10"/>
			<path d="M264.061 482.77C251.121 486.72 236.981 489.79 221.891 491.26" stroke="#9600FF" stroke-width="4" stroke-miterlimit="10"/>
			<path d="M344.979 440.08C344.979 440.08 329.679 453.42 303.859 466.6" stroke="#9600FF" stroke-width="4" stroke-miterlimit="10"/>
			<path d="M244.203 537.03C333.473 576.47 418.773 531.83 418.773 531.83" stroke="#9600FF" stroke-width="4" stroke-miterlimit="10"/>
			<path d="M228.312 551.09C228.312 551.09 281.812 596.34 389.742 581.36" stroke="#9600FF" stroke-width="4" stroke-miterlimit="10"/>
		</g>
	</g>
	<defs>
		<clipPath id="clip0_384_1926">
			<rect width="600" height="650" fill="white"/>
		</clipPath>
	</defs>
</svg>
