<svg width="600" height="650" viewBox="0 0 600 650" fill="none" xmlns="http://www.w3.org/2000/svg">
	<g clip-path="url(#clip0_384_1838)">
		<path d="M278.798 270H264.668V284.13H278.798V270Z" fill="#E0FF00"/>
		<path d="M307.06 298.26H292.93V312.39H307.06V298.26Z" fill="white"/>
		<path d="M335.329 312.39H321.199V326.52H335.329V312.39Z" fill="white"/>
		<path d="M278.798 312.39H264.668V326.52H278.798V312.39Z" fill="white"/>
		<path d="M349.341 326.52H335.211V340.65H349.341V326.52Z" fill="white"/>
		<path d="M292.931 284.13H278.801V298.26H292.931V284.13Z" fill="#E2FF70"/>
		<path d="M321.2 284.13H307.07V298.26H321.2V284.13Z" fill="#ECFFC2"/>
		<path d="M321.2 312.39H307.07V326.52H321.2V312.39Z" fill="#ECFFC2"/>
		<path d="M278.798 284.13H264.668V298.26H278.798V284.13Z" fill="#ECFFC2"/>
		<path d="M335.329 284.13H321.199V298.26H335.329V284.13Z" fill="#E2FF70"/>
		<path d="M349.458 270H335.328V284.13H349.458V270Z" fill="#E2FF70"/>
		<path d="M264.669 298.26H250.539V312.39H264.669V298.26Z" fill="#E0FF00"/>
		<path d="M292.931 312.39H278.801V326.52H292.931V312.39Z" fill="#E0FF00"/>
		<path d="M292.931 298.26H278.801V312.39H292.931V298.26Z" fill="white"/>
		<path d="M321.2 298.26H307.07V312.39H321.2V298.26Z" fill="#E0FF00"/>
		<path d="M342.388 377.54H328.258V391.67H342.388V377.54Z" fill="#E0FF00"/>
		<path d="M335.329 298.26H321.199V312.39H335.329V298.26Z" fill="#E6FF33"/>
		<path d="M278.798 298.26H264.668V312.39H278.798V298.26Z" fill="#E6FF33"/>
		<path d="M349.458 312.39H335.328V326.52H349.458V312.39Z" fill="#E0FF00"/>
		<path d="M299.997 377.54H285.867V391.67H299.997V377.54Z" fill="#E6FF33"/>
		<path d="M314.13 377.54H300V391.67H314.13V377.54Z" fill="#ECFFC2"/>
		<path d="M285.868 391.67H271.738V405.8H285.868V391.67Z" fill="white"/>
		<path d="M299.997 391.67H285.867V405.8H299.997V391.67Z" fill="#ECFFC2"/>
		<path d="M314.13 391.67H300V405.8H314.13V391.67Z" fill="#E0FF00"/>
		<path d="M328.259 391.67H314.129V405.8H328.259V391.67Z" fill="white"/>
		<path d="M342.388 391.67H328.258V405.8H342.388V391.67Z" fill="#ECFFC2"/>
		<path d="M271.739 405.8H257.609V419.93H271.739V405.8Z" fill="#E0FF00"/>
		<path d="M299.997 405.8H285.867V419.93H299.997V405.8Z" fill="white"/>
		<path d="M314.13 405.8H300V419.93H314.13V405.8Z" fill="#ECFFC2"/>
		<path d="M328.259 405.8H314.129V419.93H328.259V405.8Z" fill="#E0FF00"/>
		<path d="M285.868 419.94H271.738V434.07H285.868V419.94Z" fill="white"/>
		<path d="M314.13 419.94H300V434.07H314.13V419.94Z" fill="#E0FF00"/>
	</g>
	<defs>
		<clipPath id="clip0_384_1838">
			<rect width="600" height="650" fill="white"/>
		</clipPath>
	</defs>
</svg>
