<svg width="600" height="650" viewBox="0 0 600 650" fill="none" xmlns="http://www.w3.org/2000/svg">
	<path d="M343.741 235.13C333.531 248.21 314.951 250.77 314.951 250.77C314.951 250.77 312.911 232.12 323.121 219.04C333.331 205.96 351.911 203.4 351.911 203.4C351.911 203.4 353.941 222.05 343.741 235.13Z" fill="#E0FF00"/>
	<path d="M347.698 252.93C332.148 258.71 314.988 251.14 314.988 251.14C314.988 251.14 323.038 234.19 338.588 228.41C354.138 222.63 371.298 230.2 371.298 230.2C371.298 230.2 363.248 247.15 347.698 252.93Z" fill="#E0FF00"/>
	<path d="M422.08 396.16C421.16 380.11 426.67 340.86 406.49 332.28C386.31 323.7 372.55 279.68 365.67 271.42C358.79 263.17 331.28 245.28 319.81 248.95C283.12 260.69 278.54 242.53 265.24 244.36C251.94 246.2 235.43 278.3 224.42 296.65C213.42 314.99 201.04 361.31 186.82 373.69C172.6 386.07 181.32 447.07 196.45 461.28C211.58 475.5 256.07 472.75 282.21 478.25C308.35 483.75 349.16 479.63 356.5 470.91C363.84 462.2 388.14 444.77 398.23 443.4C408.32 442.02 423 412.21 422.08 396.16ZM330.21 373.78C325.28 377.9 313.72 384.31 300.87 376.95C290.4 382.99 278.38 380.14 271.44 373.76L257.93 369.92L259.76 339.68L274.67 342.59V342.6L274.68 342.59C274.68 342.59 280.94 333.2 288.2 333.84C295.61 335.18 293.44 343.34 293.44 343.34C293.44 343.34 298.49 345.27 300.87 347.36C301.65 346.77 305.32 344.18 308.3 343.34C308.3 343.34 307.02 336.8 311.48 334.57C315.94 332.33 321.67 335.34 327.06 342.59L341.98 339.68L343.8 369.92L330.21 373.78Z" fill="#E0FF00"/>
	<path d="M239.999 324.55C231.129 367.66 250.699 404.04 271.799 403.73" stroke="#9600FF" stroke-width="4" stroke-miterlimit="10"/>
	<path d="M367.249 364.15C362.359 404.05 360.319 444.4 295.609 444.4" stroke="#9600FF" stroke-width="4" stroke-miterlimit="10"/>
	<path d="M319.809 257.51C319.809 257.51 336.009 253.23 338.149 232.44" stroke="#9600FF" stroke-width="4" stroke-miterlimit="10"/>
</svg>
