<svg width="79" height="46" viewBox="0 0 79 46" fill="none" xmlns="http://www.w3.org/2000/svg">
    <path d="M20.52 37.04C16.68 37.04 13.29 36.29 10.35 34.78C7.41002 33.28 5.11001 31.14 3.45001 28.37C1.79001 25.6 0.960022 22.31 0.960022 18.51C0.960022 14.71 1.79001 11.39 3.45001 8.67001C5.11001 5.95001 7.41002 3.87002 10.35 2.43002C13.29 0.990023 16.68 0.27002 20.52 0.27002C24.36 0.27002 27.8 1.00001 30.72 2.45001C33.64 3.91001 35.93 5.99 37.59 8.69C39.25 11.39 40.08 14.67 40.08 18.51C40.08 22.35 39.25 25.61 37.59 28.37C35.93 31.14 33.64 33.27 30.72 34.78C27.8 36.28 24.4 37.04 20.52 37.04ZM20.52 31.81C22.84 31.81 24.86 31.27 26.58 30.2C28.3 29.13 29.63 27.6 30.57 25.62C31.51 23.64 31.98 21.27 31.98 18.52C31.98 15.77 31.51 13.58 30.57 11.68C29.63 9.78002 28.3 8.31001 26.58 7.29001C24.86 6.27001 22.84 5.75 20.52 5.75C18.2 5.75 16.18 6.26001 14.46 7.29001C12.74 8.31001 11.42 9.78002 10.5 11.68C9.58002 13.58 9.12003 15.86 9.12003 18.52C9.12003 21.18 9.58002 23.64 10.5 25.62C11.42 27.6 12.74 29.13 14.46 30.2C16.18 31.27 18.2 31.81 20.52 31.81ZM34.62 45.78C31.62 45.78 28.92 45.36 26.52 44.53C24.12 43.7 22.08 42.55 20.4 41.1C18.72 39.64 17.44 38 16.56 36.18L24.66 35.56C25.22 36.74 26.05 37.71 27.15 38.46C28.25 39.21 29.53 39.76 30.99 40.12C32.45 40.47 33.96 40.65 35.52 40.65C36.48 40.65 37.36 40.59 38.16 40.48C38.96 40.37 39.68 40.23 40.32 40.07L41.76 44.77C41 45.06 40 45.3 38.76 45.49C37.52 45.68 36.14 45.78 34.62 45.78Z" fill="#E0FF00"/>
    <path d="M52.62 36.37V31.23H62.28V8.66998H54.24V4.72998C56.4 4.37998 58.27 3.97997 59.85 3.52997C61.43 3.07997 62.88 2.51998 64.2 1.84998H70.08V31.23H78.6V36.37H52.62Z" fill="#E0FF00"/>
</svg>
