<svg width="79" height="46" viewBox="0 0 79 46" fill="none" xmlns="http://www.w3.org/2000/svg">
    <path d="M19.9777 37.04C16.1377 37.04 12.7478 36.29 9.80776 34.78C6.86776 33.28 4.56775 31.1401 2.90775 28.3701C1.24775 25.6001 0.417763 22.31 0.417763 18.51C0.417763 14.71 1.24775 11.39 2.90775 8.67004C4.56775 5.95004 6.86776 3.87005 9.80776 2.43005C12.7478 0.990054 16.1377 0.27002 19.9777 0.27002C23.8177 0.27002 27.2578 1.00001 30.1778 2.45001C33.0978 3.91001 35.3878 5.99006 37.0478 8.69006C38.7078 11.3901 39.5378 14.67 39.5378 18.51C39.5378 22.35 38.7078 25.6101 37.0478 28.3701C35.3878 31.1401 33.0978 33.27 30.1778 34.78C27.2578 36.28 23.8577 37.04 19.9777 37.04ZM19.9777 31.8101C22.2977 31.8101 24.3178 31.27 26.0378 30.2C27.7578 29.13 29.0878 27.6001 30.0278 25.6201C30.9678 23.6401 31.4378 21.27 31.4378 18.52C31.4378 15.77 30.9678 13.5801 30.0278 11.6801C29.0878 9.78005 27.7578 8.31004 26.0378 7.29004C24.3178 6.27004 22.2977 5.75006 19.9777 5.75006C17.6577 5.75006 15.6377 6.26004 13.9177 7.29004C12.1977 8.31004 10.8778 9.78005 9.95776 11.6801C9.03776 13.5801 8.57777 15.86 8.57777 18.52C8.57777 21.18 9.03776 23.6401 9.95776 25.6201C10.8778 27.6001 12.1977 29.13 13.9177 30.2C15.6377 31.27 17.6577 31.8101 19.9777 31.8101ZM34.0778 45.77C31.0778 45.77 28.3777 45.35 25.9777 44.52C23.5777 43.69 21.5377 42.54 19.8577 41.09C18.1777 39.63 16.8978 37.99 16.0178 36.17L24.1178 35.55C24.6778 36.73 25.5077 37.7 26.6077 38.45C27.7077 39.2 28.9877 39.75 30.4477 40.11C31.9077 40.46 33.4177 40.64 34.9777 40.64C35.9377 40.64 36.8178 40.58 37.6178 40.47C38.4178 40.36 39.1378 40.2201 39.7778 40.0601L41.2178 44.76C40.4578 45.05 39.4578 45.29 38.2178 45.48C36.9778 45.67 35.5978 45.77 34.0778 45.77Z" fill="#E0FF00"/>
    <path d="M49.6178 36.3701V32.72C53.6178 29.65 57.0778 26.8901 59.9978 24.4401C62.9178 21.9901 65.1678 19.77 66.7478 17.77C68.3278 15.77 69.1178 13.89 69.1178 12.13C69.1178 10.88 68.8478 9.83002 68.3078 8.96002C67.7678 8.10002 66.9778 7.42004 65.9378 6.92004C64.8978 6.42004 63.5978 6.18005 62.0378 6.18005C60.3578 6.18005 58.8277 6.56002 57.4477 7.33002C56.0677 8.10002 54.7977 8.99002 53.6377 10.02L49.2578 6.56006C51.2178 4.83006 53.2678 3.51004 55.4078 2.60004C57.5478 1.69004 60.0978 1.23004 63.0578 1.23004C65.8178 1.23004 68.2178 1.66003 70.2578 2.53003C72.2978 3.40003 73.8878 4.62001 75.0278 6.20001C76.1678 7.78001 76.7378 9.65004 76.7378 11.79C76.7378 13.93 76.0178 15.92 74.5778 18.03C73.1378 20.14 71.2378 22.3 68.8778 24.51C66.5178 26.72 63.8978 29.02 61.0178 31.42C62.1778 31.32 63.4178 31.24 64.7378 31.16C66.0578 31.08 67.2378 31.04 68.2778 31.04H78.7778V36.3701H49.6178Z" fill="#E0FF00"/>
</svg>
