<svg width="79" height="46" viewBox="0 0 79 46" fill="none" xmlns="http://www.w3.org/2000/svg">
    <path d="M19.86 37.26C16.02 37.26 12.63 36.51 9.69005 35C6.75005 33.5 4.45004 31.36 2.79004 28.59C1.13004 25.82 0.300049 22.53 0.300049 18.73C0.300049 14.93 1.13004 11.61 2.79004 8.89001C4.45004 6.17001 6.75005 4.09002 9.69005 2.65002C12.63 1.21002 16.02 0.48999 19.86 0.48999C23.7 0.48999 27.14 1.22004 30.06 2.67004C32.98 4.13004 35.27 6.21003 36.93 8.91003C38.59 11.61 39.4201 14.89 39.4201 18.73C39.4201 22.57 38.59 25.83 36.93 28.59C35.27 31.36 32.98 33.49 30.06 35C27.14 36.5 23.74 37.26 19.86 37.26ZM19.86 32.03C22.18 32.03 24.2001 31.49 25.9201 30.42C27.6401 29.35 28.97 27.82 29.91 25.84C30.85 23.86 31.3201 21.49 31.3201 18.74C31.3201 15.99 30.85 13.8 29.91 11.9C28.97 10 27.6401 8.53001 25.9201 7.51001C24.2001 6.49001 22.18 5.96997 19.86 5.96997C17.54 5.96997 15.52 6.48001 13.8 7.51001C12.08 8.53001 10.76 10 9.84004 11.9C8.92004 13.8 8.46005 16.08 8.46005 18.74C8.46005 21.4 8.92004 23.86 9.84004 25.84C10.76 27.82 12.08 29.35 13.8 30.42C15.52 31.49 17.54 32.03 19.86 32.03ZM33.96 46C30.96 46 28.26 45.58 25.86 44.75C23.46 43.92 21.42 42.7699 19.74 41.3199C18.06 39.8599 16.78 38.22 15.9 36.4L24 35.78C24.56 36.96 25.39 37.9301 26.49 38.6801C27.59 39.4301 28.87 39.98 30.33 40.34C31.79 40.69 33.3 40.87 34.86 40.87C35.82 40.87 36.7 40.81 37.5 40.7C38.3 40.59 39.02 40.45 39.66 40.29L41.1001 44.99C40.3401 45.28 39.3401 45.52 38.1001 45.71C36.8601 45.9 35.48 46 33.96 46Z" fill="#E0FF00"/>
    <path d="M63.24 37.2599C60.92 37.2599 58.85 37.0398 57.03 36.5898C55.21 36.1398 53.61 35.5499 52.23 34.8099C50.85 34.0699 49.6 33.2898 48.48 32.4598L52.2 28.4299C53.04 29.0699 53.96 29.6699 54.96 30.2299C55.96 30.7899 57.07 31.2398 58.29 31.5698C59.51 31.9098 60.84 32.0698 62.28 32.0698C63.88 32.0698 65.3 31.8099 66.54 31.2999C67.78 30.7899 68.76 30.0498 69.48 29.0698C70.2 28.0898 70.56 26.9199 70.56 25.5399C70.56 23.4899 69.83 21.9099 68.37 20.7899C66.91 19.6699 65 19.1099 62.64 19.1099C61.28 19.1099 60.12 19.2598 59.16 19.5698C58.2 19.8798 57.06 20.3599 55.74 21.0299L52.02 19.1099L53.34 2.06982H76.38V7.3999H60.12L59.22 15.6998C60.1 15.3498 60.99 15.0799 61.89 14.8799C62.79 14.6899 63.8 14.5898 64.92 14.5898C67.4 14.5898 69.67 14.9699 71.73 15.7399C73.79 16.5099 75.43 17.6799 76.65 19.2699C77.87 20.8499 78.48 22.8798 78.48 25.3398C78.48 27.7998 77.76 29.9799 76.32 31.7699C74.88 33.5599 73.01 34.9199 70.71 35.8499C68.41 36.7799 65.92 37.2399 63.24 37.2399V37.2599Z" fill="#E0FF00"/>
</svg>
