<svg width="1314" height="616" viewBox="0 0 1314 616" fill="none" xmlns="http://www.w3.org/2000/svg">
  <path d="M225.78 586.59C222.23 592.81 217.89 598.43 212.56 603.04L212.55 603.05L212.53 603.07C212.53 603.07 212.46 603.13 212.42 603.16L212.38 603.2C211.16 604.23 209.9 605.21 208.58 606.14H208.57C208.51 606.19 208.45 606.24 208.39 606.28L208.35 606.31H208.34C199.99 600.85 194.37 593.28 191.61 583.75C185.79 563.63 194.03 539.61 200.07 526.02C200.04 526.15 200.01 526.24 199.99 526.31C199.98 526.35 199.97 526.37 199.97 526.39C199.97 526.4 199.96 526.4 199.96 526.41L204.67 528.09L220.93 533.89C221.76 534.18 222.54 534.53 223.28 534.94C223.74 535.19 224.18 535.45 224.6 535.75C225.03 536.02 225.44 536.33 225.83 536.66C226.01 536.81 226.19 536.97 226.37 537.13C226.95 537.65 227.49 538.21 228 538.81C236.74 549.11 234.9 570.61 225.78 586.59Z" fill="white"/>
  <path d="M1313.86 431.51L1297 500.39C1297 500.39 1126.43 515.56 1028.92 443.31V430.19H1028.91L1028.88 426.73L1028.86 424.48L1028.83 421.31L1028.45 379.86L1032.35 376.21C1032.35 376.21 1044.55 384.24 1065.67 394.54C1065.82 394.61 1065.96 394.68 1066.11 394.75C1067.5 395.44 1068.94 396.12 1070.41 396.82C1120.45 420.52 1213.81 453.48 1313.86 431.52V431.51Z" fill="white"/>
  <path d="M212.56 603.05L212.53 603.08L212.42 603.16L212.38 603.2L208.58 606.14H208.57L208.39 606.29L208.35 606.32H208.34C199.99 600.86 194.37 593.29 191.61 583.76C185.79 563.64 194.03 539.62 200.07 526.03C200.04 526.16 200.01 526.25 199.99 526.32C199.98 526.36 199.97 526.38 199.97 526.4C199.97 526.41 199.96 526.41 199.96 526.42L204.67 528.11C201.9 534.4 198.63 543.01 196.6 552.3C196.24 553.94 195.92 555.61 195.65 557.28C194.27 565.72 194.13 574.46 196.42 582.38C198.99 591.25 204.41 598.19 212.55 603.06H212.56V603.05Z" fill="#9600FF"/>
  <path d="M219.759 543.89C216.269 549.52 218.119 558.64 219.129 561.68L220.769 566.63L195.649 557.28L190.989 555.54L192.739 550.85L196.599 552.29L213.249 558.5C212.469 553.88 212.089 546.78 215.499 541.26C217.309 538.34 219.909 536.23 223.279 534.95C225.109 535.94 226.679 537.24 227.999 538.81C224.139 539.51 221.439 541.17 219.759 543.89Z" fill="#9600FF"/>
  <path d="M1028.92 430.19V431.52L1028.91 430.19H1028.92Z" fill="#9600FF"/>
  <path d="M1024.74 383.99L1021.83 386.05L1016.52 389.81L1016.49 389.83L1014.41 391.31L1012.35 392.77L957.64 431.51L949.9 436.99L917.34 460.05L914.52 462.09H899.85C898.63 449.5 896.72 434.27 896.1 429.46L905.23 422.91L989.42 362.54L991.48 361.06L993.45 359.64L993.48 359.62L998.95 355.7L1024.41 383.63L1024.74 383.99Z" fill="white"/>
  <path d="M1000.01 258.92C977.1 276.22 958.84 285.47 942.64 293.68C940.29 294.87 938.01 296.03 935.75 297.19C935.23 296.53 934.7 295.85 934.18 295.18C933.66 294.52 933.15 293.85 932.63 293.17C928.18 287.37 923.77 281.25 919.49 274.8C899.57 244.88 882.14 207.8 873.85 160.77H943.35C943.35 160.77 965.5 220.19 979.07 239.36C979.86 240.47 980.64 241.57 981.43 242.66C985.31 248.06 989.13 253.16 992.86 258.01C993.37 258.67 993.88 259.33 994.39 259.99C994.87 260.6 995.34 261.21 995.81 261.81C997.24 260.85 998.63 259.89 1000.01 258.92Z" fill="white"/>
  <path d="M1022.34 293.9C1022.34 293.9 1022.3 293.93 1022.28 293.94L1018.89 293.65L1022.24 293.89H1022.34V293.9Z" fill="white"/>
  <path d="M1024.74 383.99L1021.83 386.05L1016.52 389.81C1016.15 389.15 1015.78 388.49 1015.39 387.84C1015 387.18 1014.61 386.52 1014.22 385.88C1013.83 385.24 1013.44 384.6 1013.03 383.97C1011.18 381.01 1009.15 378.09 1006.96 375.2C1006.56 374.67 1006.17 374.15 1005.77 373.64C1005.58 373.39 1005.39 373.14 1005.19 372.9C1002.59 369.6 999.769 366.32 996.729 363.06C995.679 361.93 994.599 360.78 993.479 359.62L998.949 355.7L1024.41 383.63L1024.74 383.99Z" fill="white"/>
  <path d="M1066.11 394.74V394.75C1059.63 404.82 1048.17 417.43 1028.93 424.79C1028.91 424.68 1028.89 424.58 1028.87 424.47C1028.69 423.48 1028.5 422.52 1028.29 421.55C1028.47 421.48 1028.65 421.39 1028.84 421.3L1028.46 379.85L1032.36 376.2C1032.36 376.2 1044.56 384.23 1065.68 394.53C1065.83 394.6 1065.97 394.67 1066.12 394.74H1066.11Z" fill="white"/>
  <path d="M1003.47 256.28C1002.36 257.14 1001.27 257.97 1000.18 258.8C1000.16 258.82 1000.13 258.84 1000.11 258.85C1000.08 258.88 1000.04 258.9 1000.01 258.92C977.1 276.22 958.84 285.47 942.64 293.68C940.29 294.87 938.01 296.03 935.75 297.19C934.17 298 932.6 298.82 931.02 299.65L928.689 295.22C930.009 294.53 931.32 293.85 932.63 293.17C935.17 291.86 937.73 290.57 940.38 289.22C956.13 281.24 972.359 273.02 992.859 258.01C995.309 256.21 997.83 254.32 1000.41 252.32L1003.47 256.28Z" fill="#9600FF"/>
  <path d="M1015.33 398.38C1004.22 375.93 986.249 359.41 986.069 359.25L989.359 355.51C990.909 357.38 1008.69 373.04 1019.8 396.17L1015.34 398.38H1015.33Z" fill="#9600FF"/>
  <path d="M1070.41 396.82C1060.27 408.01 1041.12 421.7 1028.88 426.72C1028.53 426.86 1028.19 427 1027.85 427.13L1026.07 422.47C1026.78 422.2 1027.52 421.89 1028.28 421.55C1028.46 421.48 1028.64 421.39 1028.83 421.3C1040.43 416.02 1056.64 404.01 1065.67 394.54C1065.81 394.61 1065.96 394.68 1066.1 394.75C1067.5 395.43 1068.93 396.12 1070.41 396.82Z" fill="#9600FF"/>
  <path d="M1056.85 262.38C1052.79 266.45 1043.76 275.28 1031.4 286.12L1041.14 295.29L1022.34 293.9H1022.24L1018.89 293.65L998.74 292.16C998.89 290.05 998.19 287.55 996.65 285.28C993.85 281.14 989.3 279.33 986.5 281.23C984.43 282.63 983.88 285.67 984.87 288.82L981.9 288.6C981.4 288.56 980.91 288.54 980.41 288.54C970.15 288.54 961.47 296.48 960.71 306.88C959.95 317.16 967.19 326.2 977.18 327.85C977.77 327.95 978.37 328.02 978.98 328.07L984.73 328.49C988.07 328.74 991.28 328.14 994.15 326.88L1050.11 331.01C1064.45 354.92 1073.55 379.38 1073.55 379.38C1073.55 379.38 1071.66 386.13 1066.11 394.74C1065.96 394.67 1065.82 394.6 1065.67 394.53C1044.55 384.23 1032.35 376.2 1032.35 376.2L1028.45 379.85L1028.83 421.29C1028.64 421.39 1028.46 421.48 1028.28 421.55C1026.41 412.54 1023.61 404.16 1019.8 396.16C1019.58 395.7 1019.36 395.25 1019.13 394.79C1018.76 394.04 1018.39 393.29 1018 392.55C1017.52 391.62 1017.02 390.71 1016.52 389.81L1021.83 386.05L1024.74 383.99L1024.41 383.63L998.95 355.7L993.48 359.62C992.71 358.81 991.92 358 991.12 357.17C990.91 356.96 990.72 356.76 990.55 356.59C990.21 356.23 989.85 355.86 989.49 355.49C983.03 348.87 975.75 341.65 968.04 333.68C955.03 341.68 941.45 348.85 927.89 354.17C922.35 356.35 916.81 358.22 911.31 359.71L905.98 415.05C879.01 430.38 832.51 445.95 761.16 436.62C642.81 421.16 537.64 367.72 449.81 367.29C248.95 366.32 202.77 516.59 200.09 525.95C200.09 525.96 200.09 525.97 200.08 525.98C200.08 525.98 200.08 526 200.07 526.01C194.03 539.61 185.79 563.63 191.61 583.75C194.37 593.28 199.99 600.85 208.34 606.31C192.93 617.03 170.35 619.86 137.26 606.85C71.25 580.89 64.23 533.62 85.95 482.81C227.7 151.04 624.29 377.32 798.76 391.62C855.87 396.3 888.98 375.45 906.55 357.51L901.82 314.62C901.82 314.62 907.43 311.92 916.35 307.39C921.78 304.63 928.44 301.18 935.8 297.25C935.78 297.23 935.77 297.21 935.75 297.19C938.01 296.03 940.29 294.87 942.64 293.68C958.84 285.47 977.1 276.22 1000.01 258.92C1000.04 258.9 1000.08 258.88 1000.11 258.85C1000.13 258.84 1000.16 258.82 1000.18 258.8C1000.61 258.51 1001.03 258.21 1001.45 257.91C1008.82 252.72 1015.43 247.57 1020.75 242.66C1023.5 240.14 1025.91 237.67 1027.88 235.3C1028.25 234.87 1028.59 234.45 1028.92 234.03L1048.51 250.78C1078.98 232.63 1123.37 211.79 1158.8 217.98L1175.48 262.09C1175.48 262.09 1126.61 262.09 1079.3 283.35L1056.85 262.38Z" fill="white"/>
</svg>
