<svg width="471" height="444" viewBox="0 0 471 444" fill="none" xmlns="http://www.w3.org/2000/svg">
    <path d="M216.736 113.206C216.736 113.206 96.1056 169.096 55.8856 297.396C55.8856 297.396 12.5256 398.236 0.265625 443.556H259.506L219.976 370.276L216.746 113.216" fill="#9600FF"/>
    <path d="M406.674 3.82593H259.164C226.248 3.82593 199.564 30.5097 199.564 63.4259V380.156C199.564 413.072 226.248 439.756 259.164 439.756H406.674C439.591 439.756 466.274 413.072 466.274 380.156V63.4259C466.274 30.5097 439.591 3.82593 406.674 3.82593Z" fill="white"/>
    <path d="M406.975 443.446H406.485L258.975 443.326C224.115 443.296 195.775 414.916 195.805 380.046L196.065 63.316C196.095 28.456 224.465 0.135999 259.345 0.145999L406.855 0.265994C441.715 0.295994 470.055 28.676 470.025 63.546L469.765 380.276C469.755 397.166 463.165 413.036 451.215 424.966C439.375 436.786 423.685 443.336 406.985 443.446H406.975ZM258.905 7.396C228.235 7.606 203.335 32.606 203.305 63.326L203.045 380.056C203.015 410.916 228.105 436.046 258.975 436.076L406.485 436.196C421.435 436.196 435.495 430.396 446.075 419.836C456.655 409.276 462.485 395.216 462.505 380.266L462.765 63.536C462.785 32.666 437.695 7.53599 406.835 7.51599L259.325 7.396H258.905Z" fill="black"/>
    <path d="M432.505 45.7559H227.915V387.486H432.505V45.7559Z" fill="black"/>
    <path d="M360.225 195.246L295.335 195.196L259.645 232.076L290.095 350.486L365.195 350.546L395.855 232.186L360.225 195.246ZM306.655 287.826C301.625 287.826 297.055 286.536 293.685 284.446C290.105 282.236 287.865 279.096 287.875 275.636C287.875 273.846 288.465 272.146 289.535 270.626C292.495 266.386 299.055 263.456 306.675 263.456C317.055 263.466 325.465 268.926 325.465 275.666C325.465 282.406 317.045 287.846 306.655 287.846V287.826ZM370.995 281.306L364.605 287.676L352.785 280.736L340.955 287.656L334.585 281.266L344.145 275.676L334.585 270.066L340.975 263.696L352.795 270.626L364.625 263.716L370.995 270.106L361.435 275.696L370.995 281.306ZM287.905 241.776L287.925 221.286L317.905 235.586L329.945 209.346L342.205 235.606L371.935 221.366L371.915 241.856L287.905 241.786V241.776Z" fill="white"/>
    <path d="M306.664 267.216C302.014 267.216 298.244 270.976 298.244 275.626C298.244 280.276 301.994 284.046 306.654 284.046C311.314 284.046 315.074 280.286 315.074 275.636C315.074 270.986 311.314 267.226 306.664 267.216Z" fill="white"/>
    <path d="M336.624 68.0759H329.374V112.446H336.624V68.0759Z" fill="white"/>
    <path d="M332.964 118.506L306.124 91.5961L311.254 86.4761L332.974 108.246L354.754 86.5161L359.874 91.6461L332.964 118.506Z" fill="white"/>
    <path d="M373.474 136.126L292.444 136.066L292.464 107.436H299.714L299.704 128.816L366.224 128.866L366.244 107.486L373.494 107.496L373.474 136.126Z" fill="white"/>
    <path d="M209.485 364.366C229.616 364.366 245.935 348.047 245.935 327.916C245.935 307.785 229.616 291.466 209.485 291.466C189.354 291.466 173.035 307.785 173.035 327.916C173.035 348.047 189.354 364.366 209.485 364.366Z" fill="#9600FF"/>
</svg>
