<svg width="497" height="564" viewBox="0 0 497 564" fill="none" xmlns="http://www.w3.org/2000/svg">
    <path d="M318.997 74.6743H178.607C147.276 74.6743 121.877 100.073 121.877 131.404V432.854C121.877 464.185 147.276 489.584 178.607 489.584H318.997C350.329 489.584 375.727 464.185 375.727 432.854V131.404C375.727 100.073 350.329 74.6743 318.997 74.6743Z" fill="white" stroke="black" stroke-width="6.9" stroke-miterlimit="10"/>
    <path d="M343.578 114.579H148.858V439.829H343.578V114.579Z" fill="black"/>
    <path d="M274.771 256.844L213.015 256.844L179.074 291.977L208.148 404.654L279.623 404.655L308.709 291.986L274.768 256.853L274.771 256.844ZM223.852 344.995C219.061 344.996 214.716 343.775 211.512 341.786C208.1 339.689 205.974 336.703 205.975 333.404C205.977 331.703 206.53 330.084 207.556 328.629C210.368 324.597 216.608 321.796 223.869 321.792C233.745 321.791 241.757 326.989 241.762 333.399C241.766 339.81 233.757 345.003 223.871 345.002L223.852 344.995ZM285.09 338.745L279.016 344.815L267.767 338.217L256.512 344.813L250.442 338.739L259.535 333.411L250.43 328.082L256.504 322.012L267.756 328.6L279.008 322.014L285.078 328.088L275.986 333.416L285.09 338.745ZM205.968 301.179L205.969 281.679L234.507 295.267L245.951 270.282L257.64 295.272L285.928 281.693L285.927 301.193L205.975 301.192L205.968 301.179Z" fill="white"/>
    <path d="M223.857 325.382C219.433 325.385 215.851 328.97 215.845 333.391C215.839 337.812 219.42 341.403 223.854 341.403C228.287 341.403 231.86 337.815 231.866 333.394C231.872 328.973 228.288 325.391 223.857 325.382Z" fill="white"/>
    <path d="M248.775 135.819L248.775 178.044" stroke="white" stroke-width="6.9" stroke-miterlimit="10"/>
    <path d="M271.913 155.798L248.772 178.935L225.644 155.797" stroke="white" stroke-width="6.9" stroke-miterlimit="10"/>
    <path d="M213.663 173.317L213.665 197.115L283.881 197.109L283.879 173.312" stroke="white" stroke-width="6.9" stroke-miterlimit="10"/>
    <path d="M128.05 387.008C147.211 393.182 167.748 382.654 173.922 363.494C180.096 344.333 169.568 323.795 150.408 317.621C131.247 311.447 110.709 321.975 104.535 341.136C98.3615 360.296 108.889 380.834 128.05 387.008Z" fill="#9600FF"/>
</svg>
