<svg width="600" height="650" viewBox="0 0 600 650" fill="none" xmlns="http://www.w3.org/2000/svg">
	<g clip-path="url(#clip0_384_1979)">
		<path d="M346.289 305.41C346.289 297.87 315.009 293.62 301.019 293.35V293.34C300.799 293.34 300.559 293.34 300.329 293.35C300.099 293.35 299.859 293.34 299.639 293.34V293.35C285.649 293.62 254.359 297.87 254.359 305.41C254.359 313.21 256.649 340.11 256.649 340.11L274.309 343.21C274.309 343.21 278.039 336.73 283.879 335.01C289.729 333.29 294.139 336.73 292.939 344.12C292.939 344.12 297.449 345.32 300.379 348.13C303.299 345.32 307.929 344 307.929 344C306.729 336.61 310.919 333.28 316.769 335C322.619 336.72 326.339 343.2 326.339 343.2L343.999 340.1C343.999 340.11 346.289 313.2 346.289 305.41Z" fill="white"/>
		<path d="M246.199 106.25C248.439 109.38 252.109 111.42 256.259 111.42C259.719 111.42 262.849 110 265.089 107.71C267.949 111.03 272.179 113.13 276.899 113.13C280.839 113.13 284.419 111.68 287.159 109.27C290.169 112.73 294.609 114.91 299.559 114.91C303.999 114.91 308.019 113.16 310.979 110.3C313.509 112.09 316.589 113.13 319.919 113.13C324.639 113.13 328.869 111.03 331.729 107.71C333.969 110 337.099 111.42 340.559 111.42C345.849 111.42 350.369 108.1 352.129 103.43C364.749 115.05 372.099 131.55 374.249 150.28C374.589 150.26 374.929 150.25 375.279 150.25C378.969 150.25 382.399 151.4 385.209 153.37C385.119 150.89 385.079 148.48 385.079 146.12C382.879 130.15 377.669 117.54 370.709 107.63C363.759 97.7397 355.079 90.5397 345.939 85.3797C329.699 76.2197 311.999 73.4897 299.989 73.4897C286.799 73.4897 266.019 75.5597 248.189 86.9697C238.149 93.3997 229.039 102.79 222.759 116.44C218.969 124.68 216.209 134.48 214.899 146.12C214.899 148.3 214.859 150.52 214.789 152.8C217.339 151.23 220.329 150.31 223.529 150.26C226.019 133 233.889 117.64 246.199 106.25Z" fill="white"/>
		<path d="M340.33 359.59L340.25 359.68C340.28 359.66 340.3 359.65 340.33 359.63V359.59Z" fill="white"/>
		<path d="M427.721 348.14C421.531 330.51 395.381 245.99 387.411 180.08C384.281 183.13 380.001 185.01 375.281 185.01C373.871 185.01 372.501 184.84 371.191 184.52C362.041 211.89 337.321 234.03 311.831 239.89V253.87C324.571 255.9 336.091 260.86 345.391 267.9C347.261 269.31 349.051 270.81 350.731 272.39C354.981 276.38 358.601 280.87 361.461 285.73C362.761 287.95 363.911 290.25 364.881 292.62C365.321 293.69 365.731 294.76 366.091 295.85C366.151 296.03 366.211 296.22 366.271 296.4C366.331 296.58 366.391 296.77 366.441 296.95L366.581 297.42L382.131 347.92C382.231 348.23 382.311 348.54 382.371 348.86C382.411 349.03 382.451 349.2 382.481 349.37C382.491 349.41 382.501 349.44 382.501 349.47L382.521 349.57L382.551 349.7V349.74C382.561 349.78 382.571 349.81 382.571 349.85C383.851 356.84 379.281 363.57 372.291 364.93L343.781 370.51C343.951 370.85 344.121 371.17 344.301 371.49C344.111 371.4 343.931 371.3 343.741 371.2L330.191 373.76C330.191 373.76 324.151 380.41 314.321 381.1C305.751 381.7 301.391 378.55 300.421 377.74V377.55C300.421 377.55 300.381 377.59 300.311 377.65C300.251 377.59 300.201 377.55 300.201 377.55V377.74C299.231 378.55 294.881 381.7 286.301 381.1C276.471 380.41 270.431 373.76 270.431 373.76L256.881 371.2C256.381 371.44 255.891 371.71 255.401 371.98C255.601 371.64 255.791 371.3 255.981 370.93L227.221 365.31L225.311 364.94C218.321 363.58 213.751 356.85 215.031 349.86C215.041 349.77 215.061 349.68 215.081 349.58L215.101 349.45C215.101 349.43 215.111 349.4 215.111 349.38C215.211 348.9 215.321 348.41 215.471 347.93L230.811 298.09L230.871 297.89L231.371 296.25L231.391 296.19C235.011 285.11 242.341 275.35 252.181 267.91H252.191V267.9C261.481 260.86 272.991 255.9 285.751 253.87V239.89C260.351 234.05 235.711 212.05 226.491 184.81C225.621 184.94 224.731 185.01 223.821 185.01C219.481 185.01 215.511 183.43 212.471 180.79C204.401 246.59 178.421 330.58 172.251 348.14C164.911 369 190.891 373.88 197.711 361.39C198.631 375.88 221.531 380.01 227.041 366.25C228.831 374.65 237.601 381.6 245.731 379.88C204.901 424.11 188.001 585.85 188.001 585.85H300.201H300.411H412.611C412.611 585.85 395.751 424.46 355.011 380.02C362.901 381.15 371.171 374.38 372.911 366.25C378.421 380.01 401.321 375.88 402.241 361.39C409.081 373.88 435.071 369 427.721 348.14Z" fill="white"/>
	</g>
	<defs>
		<clipPath id="clip0_384_1979">
			<rect width="600" height="650" fill="white"/>
		</clipPath>
	</defs>
</svg>
